STARTFONT 2.1
FONT -FontForge-Montserrat-Regular-R-Normal--39-370-75-75-P-231-ISO10646-1
SIZE 37 75 75
FONTBOUNDINGBOX 70 57 -12 -12
COMMENT "Generated by fontforge, http://fontforge.sourceforge.net"
COMMENT "Copyright 2011 - 2016 The Montserrat Project Authors \(julieta.ulanovsky@gmail.com\)"
STARTPROPERTIES 41
FOUNDRY "FontForge"
FAMILY_NAME "Montserrat"
WEIGHT_NAME "Regular"
SLANT "R"
SETWIDTH_NAME "Normal"
ADD_STYLE_NAME ""
PIXEL_SIZE 39
POINT_SIZE 370
RESOLUTION_X 75
RESOLUTION_Y 75
SPACING "P"
AVERAGE_WIDTH 231
CHARSET_REGISTRY "ISO10646"
CHARSET_ENCODING "1"
FONTNAME_REGISTRY ""
CHARSET_COLLECTIONS "ISO8859-2 ISO8859-9 ISO8859-4 ISO10646-1"
FONT_NAME "Montserrat-Regular"
FACE_NAME "Montserrat Regular"
COPYRIGHT "Copyright 2011 - 2016 The Montserrat Project Authors \(julieta.ulanovsky@gmail.com\)"
FONT_VERSION "004.000"
FONT_ASCENT 31
FONT_DESCENT 8
UNDERLINE_POSITION -4
UNDERLINE_THICKNESS 2
X_HEIGHT 20
CAP_HEIGHT 26
DEFAULT_CHAR 991
RAW_ASCENT 800
RAW_DESCENT 200
NORM_SPACE 12
RELATIVE_WEIGHT 40
RELATIVE_SETWIDTH 50
SUPERSCRIPT_X 0
SUPERSCRIPT_Y 13
SUPERSCRIPT_SIZE 23
SUBSCRIPT_X 0
SUBSCRIPT_Y 2
SUBSCRIPT_SIZE 23
FIGURE_WIDTH 24
AVG_LOWERCASE_WIDTH 223
AVG_UPPERCASE_WIDTH 278
ENDPROPERTIES
CHARS 992
STARTCHAR NULL.dup1
ENCODING 0
SWIDTH 0 0
DWIDTH 0 0
BBX 1 1 0 0
BITMAP
00
ENDCHAR
STARTCHAR CR
ENCODING 13
SWIDTH 300 0
DWIDTH 12 0
BBX 1 1 0 0
BITMAP
00
ENDCHAR
STARTCHAR space
ENCODING 32
SWIDTH 300 0
DWIDTH 12 0
BBX 1 1 0 0
BITMAP
00
ENDCHAR
STARTCHAR exclam
ENCODING 33
SWIDTH 210 0
DWIDTH 8 0
BBX 5 27 2 -1
BITMAP
78
78
78
78
78
78
78
78
78
78
78
70
70
70
70
70
70
70
00
00
00
00
70
F8
F8
F8
70
ENDCHAR
STARTCHAR quotedbl
ENCODING 34
SWIDTH 362 0
DWIDTH 14 0
BBX 10 10 2 17
BITMAP
F3C0
F3C0
F3C0
F3C0
F3C0
F3C0
F3C0
F3C0
F3C0
F3C0
ENDCHAR
STARTCHAR numbersign
ENCODING 35
SWIDTH 725 0
DWIDTH 28 0
BBX 26 27 1 0
BITMAP
00E03C00
00E03800
00E03800
00E03800
01E03800
01E03800
01E07800
3FFFFFC0
3FFFFFC0
7FFFFFC0
01C07000
01C07000
03C07000
03C07000
03C0F000
0380F000
0380E000
FFFFFF80
FFFFFF80
FFFFFF80
0780E000
0780E000
0781E000
0701E000
0701E000
0701C000
0701C000
ENDCHAR
STARTCHAR dollar
ENCODING 36
SWIDTH 622 0
DWIDTH 24 0
BBX 21 38 1 -6
BITMAP
003800
003800
003800
003800
003800
01FF00
07FFE0
0FFFF8
1FFFF8
3F87F0
3E0070
3E0000
3E0000
3E0000
3F0000
3FC000
1FF800
0FFF00
03FFC0
00FFF0
001FF0
0003F8
0000F8
0000F8
2000F8
7000F8
7C00F8
FF83F8
7FFFF0
3FFFE0
0FFFC0
01FF00
003800
003800
003800
003800
003800
003800
ENDCHAR
STARTCHAR percent
ENCODING 37
SWIDTH 974 0
DWIDTH 38 0
BBX 35 27 1 0
BITMAP
07E0007C00
1FF0007800
3FF800F000
383C01E000
701C03E000
700E03C000
700E078000
700E0F0000
F00E1F0000
700E1E0000
700E3C0000
701C787E00
783CF8FF80
3FF8F1FFC0
1FF1E3C1E0
07C3C380E0
0007C700E0
00078700E0
000F0700E0
001F0700E0
003E0700E0
003C0700E0
00780380E0
00F803C1C0
01F001FFC0
01E000FF80
03C0007E00
ENDCHAR
STARTCHAR ampersand
ENCODING 38
SWIDTH 663 0
DWIDTH 26 0
BBX 23 29 2 -1
BITMAP
00FC00
03FE00
07FF00
0F0780
0F0380
0E03C0
1E0380
0E0380
0F0780
0F0F00
079F00
07FC00
03F800
07E000
0FE000
1FF010
3C7838
783C3C
781E38
F01F78
F00FF0
F007F0
F003E0
7803F0
7C07F8
3F3FFC
3FFF3E
0FFC1E
03F00C
ENDCHAR
STARTCHAR quotesingle
ENCODING 39
SWIDTH 208 0
DWIDTH 8 0
BBX 4 10 2 17
BITMAP
F0
F0
F0
F0
F0
F0
F0
F0
F0
F0
ENDCHAR
STARTCHAR parenleft
ENCODING 40
SWIDTH 319 0
DWIDTH 12 0
BBX 9 34 3 -5
BITMAP
0F80
0F00
1E00
1E00
3E00
3C00
3C00
7C00
7800
7800
7800
F800
F800
F000
F000
F000
F000
F000
F000
F000
F000
F800
F800
7800
7800
7800
7C00
3C00
3C00
3E00
1E00
1F00
0F00
0780
ENDCHAR
STARTCHAR parenright
ENCODING 41
SWIDTH 345 0
DWIDTH 13 0
BBX 8 34 5 -5
BITMAP
F0
78
78
3C
3C
3E
1E
1E
1F
1F
0F
0F
0F
0F
0F
0F
0F
0F
0F
0F
0F
0F
0F
0F
1F
1E
1E
1E
3C
3C
7C
78
F8
F0
ENDCHAR
STARTCHAR asterisk
ENCODING 42
SWIDTH 348 0
DWIDTH 14 0
BBX 11 12 1 16
BITMAP
0600
0600
4660
F7E0
7FE0
1F80
3F80
7FE0
F6E0
4660
0600
0600
ENDCHAR
STARTCHAR plus
ENCODING 43
SWIDTH 498 0
DWIDTH 19 0
BBX 17 17 1 5
BITMAP
01C000
01C000
01C000
01C000
01C000
01C000
01C000
FFFF80
FFFF80
FFFF80
01C000
01C000
01C000
01C000
01C000
01C000
01C000
ENDCHAR
STARTCHAR comma
ENCODING 44
SWIDTH 214 0
DWIDTH 8 0
BBX 5 8 2 -3
BITMAP
70
F0
F8
F0
70
E0
E0
C0
ENDCHAR
STARTCHAR hyphen
ENCODING 45
SWIDTH 368 0
DWIDTH 14 0
BBX 10 3 2 10
BITMAP
FFC0
FFC0
FFC0
ENDCHAR
STARTCHAR period
ENCODING 46
SWIDTH 218 0
DWIDTH 9 0
BBX 5 5 2 -1
BITMAP
70
F8
F8
F0
70
ENDCHAR
STARTCHAR slash
ENCODING 47
SWIDTH 331 0
DWIDTH 13 0
BBX 16 36 -1 -4
BITMAP
000F
000F
000F
001E
001E
001C
003C
003C
0038
0078
0078
0070
00F0
00F0
00E0
01E0
01E0
01C0
03C0
03C0
0380
0780
0780
0700
0F00
0F00
0E00
1E00
1E00
1C00
3C00
3C00
7800
7800
7800
F000
ENDCHAR
STARTCHAR zero
ENCODING 48
SWIDTH 617 0
DWIDTH 24 0
BBX 20 29 2 -1
BITMAP
01F800
07FE00
0FFF80
1FFFC0
3E07C0
7C03E0
7C03E0
7801E0
F801F0
F801F0
F800F0
F000F0
F000F0
F000F0
F000F0
F000F0
F000F0
F000F0
F800F0
F801F0
F801F0
7801E0
7C03E0
7C03E0
3E07C0
1FFF80
1FFF80
07FE00
01F800
ENDCHAR
STARTCHAR one
ENCODING 49
SWIDTH 617 0
DWIDTH 24 0
BBX 11 29 4 -1
BITMAP
FFE0
FFE0
FFE0
FFE0
03E0
03E0
03E0
03E0
03E0
03E0
03E0
03E0
03E0
03E0
03E0
03E0
03E0
03E0
03E0
03E0
03E0
03E0
03E0
03E0
03E0
03E0
03E0
03E0
03E0
ENDCHAR
STARTCHAR two
ENCODING 50
SWIDTH 617 0
DWIDTH 24 0
BBX 20 29 2 -1
BITMAP
03FC00
1FFF00
3FFF80
FFFFC0
FE0FC0
F007E0
6003E0
4003E0
0003E0
0003C0
0007C0
000780
000F80
001F00
003E00
007E00
00FC00
01F800
03F000
03E000
07C000
0F8000
1F0000
3E0000
7C0000
FFFFF0
FFFFF0
FFFFF0
FFFFF0
ENDCHAR
STARTCHAR three
ENCODING 51
SWIDTH 617 0
DWIDTH 24 0
BBX 20 29 1 -1
BITMAP
7FFFE0
7FFFE0
7FFFE0
7FFFC0
0007C0
000F80
001F00
003E00
007C00
00F800
01F000
03E000
07FC00
07FF80
07FFC0
0007E0
0003F0
0001F0
0000F0
0000F0
0000F0
0000F0
4001F0
7001F0
7C07E0
FFFFE0
FFFFC0
3FFF00
07F800
ENDCHAR
STARTCHAR four
ENCODING 52
SWIDTH 617 0
DWIDTH 24 0
BBX 22 29 1 -1
BITMAP
003C00
007C00
007800
00F800
00F000
01F000
01E000
03E000
03C000
07C000
0F8000
0F03C0
1F03C0
1E03C0
3E03C0
3C03C0
7C03C0
7803C0
FFFFFC
FFFFFC
FFFFFC
FFFFFC
0003C0
0003C0
0003C0
0003C0
0003C0
0003C0
0003C0
ENDCHAR
STARTCHAR five
ENCODING 53
SWIDTH 617 0
DWIDTH 24 0
BBX 20 29 2 -1
BITMAP
7FFFE0
7FFFE0
7FFFE0
7FFFE0
7C0000
7C0000
7C0000
7C0000
7C0000
7C0000
7C0000
7FFC00
7FFF00
7FFF80
7FFFC0
000FE0
0003F0
0003F0
0001F0
0001F0
0001F0
0001F0
4003F0
7003E0
FC0FE0
FFFFC0
FFFF80
3FFF00
07F800
ENDCHAR
STARTCHAR six
ENCODING 54
SWIDTH 617 0
DWIDTH 24 0
BBX 21 29 2 -1
BITMAP
00FF00
03FFE0
07FFF0
0FFFE0
1F80E0
3E0000
3C0000
7C0000
780000
780000
F81C00
F9FF80
F3FFC0
F7FFE0
FF07F0
FE01F0
FC00F0
FC00F8
F800F8
F800F8
7800F8
7800F8
7C00F0
3E01F0
3F07F0
1FFFE0
0FFFC0
07FF80
01FC00
ENDCHAR
STARTCHAR seven
ENCODING 55
SWIDTH 617 0
DWIDTH 24 0
BBX 21 29 2 -1
BITMAP
FFFFF8
FFFFF8
FFFFF8
FFFFF8
F001F0
F001F0
F003E0
F003E0
0003C0
0007C0
000780
000F80
000F80
001F00
001F00
003E00
003E00
007C00
007C00
007800
00F800
00F800
01F000
01F000
03E000
03E000
07C000
07C000
0F8000
ENDCHAR
STARTCHAR eight
ENCODING 56
SWIDTH 617 0
DWIDTH 24 0
BBX 20 29 2 -1
BITMAP
03FC00
0FFF00
1FFF80
3F9FC0
3C03E0
7801E0
7801E0
7801E0
7801E0
7801E0
3C03C0
3E07C0
1FFF80
07FE00
1FFF80
3FFFC0
7C03E0
F801F0
F000F0
F000F0
F000F0
F000F0
F000F0
F801F0
FC03F0
7FFFE0
3FFFC0
1FFF80
03FC00
ENDCHAR
STARTCHAR nine
ENCODING 57
SWIDTH 617 0
DWIDTH 24 0
BBX 20 29 2 -1
BITMAP
03F800
0FFE00
3FFF00
7FFF80
7E0FC0
F807E0
F803E0
F001E0
F001F0
F001F0
F001F0
F001F0
F803F0
F807F0
7E0FF0
7FFEF0
3FFCF0
0FF8F0
03C1F0
0001F0
0001E0
0003E0
0003E0
0007C0
381F80
7FFF80
7FFF00
7FFC00
07F000
ENDCHAR
STARTCHAR colon
ENCODING 58
SWIDTH 218 0
DWIDTH 9 0
BBX 5 17 2 -1
BITMAP
70
F8
F8
F8
70
00
00
00
00
00
00
00
70
F8
F8
F0
70
ENDCHAR
STARTCHAR semicolon
ENCODING 59
SWIDTH 216 0
DWIDTH 8 0
BBX 5 19 2 -3
BITMAP
70
F8
F8
F0
70
00
00
00
00
00
00
00
F0
F8
F8
F0
70
E0
C0
ENDCHAR
STARTCHAR less
ENCODING 60
SWIDTH 498 0
DWIDTH 19 0
BBX 17 18 1 4
BITMAP
000080
000380
001F80
007F80
01FE00
0FF000
3FC000
FE0000
F80000
F00000
FC0000
7F8000
1FE000
03FC00
00FF00
003F80
000780
000180
ENDCHAR
STARTCHAR equal
ENCODING 61
SWIDTH 498 0
DWIDTH 19 0
BBX 17 11 1 7
BITMAP
FFFF80
FFFF80
FFFF80
000000
000000
000000
000000
000000
FFFF80
FFFF80
FFFF80
ENDCHAR
STARTCHAR greater
ENCODING 62
SWIDTH 498 0
DWIDTH 19 0
BBX 17 18 1 4
BITMAP
C00000
F00000
FC0000
FF0000
1FE000
07F800
01FE00
003F80
000F80
000780
001F80
007F00
03FC00
0FF000
3F8000
FE0000
F80000
E00000
ENDCHAR
STARTCHAR question
ENCODING 63
SWIDTH 443 0
DWIDTH 17 0
BBX 16 28 0 -1
BITMAP
03E0
1FFC
3FFE
7FFE
7C3F
701F
F00F
F00F
000F
000F
001E
003C
007C
00F8
00F0
01E0
01C0
01C0
03C0
0000
0000
0000
0000
03C0
03C0
03E0
03C0
01C0
ENDCHAR
STARTCHAR at
ENCODING 64
SWIDTH 974 0
DWIDTH 38 0
BBX 36 33 1 -6
BITMAP
0003FE0000
001FFFC000
007FFFF000
01FE03FC00
03F0007E00
07C0001F00
0F00000F80
1E03E1E780
3C0FF9E3C0
3C1FFDE1C0
783FFFE1E0
787E0FE1E0
707C07E0E0
70F803E0E0
F0F803E0F0
F0F803E0F0
F0F003E0F0
F0F803E0F0
F0F803E0F0
70F803E0E0
707C07E0E0
787E0FE1E0
783FFFE3C0
3C1FFEFF80
3C0FF8FF00
1E01E03E00
0F00000000
07C0000000
03F001C000
01FE0FC000
00FFFFE000
003FFF8000
0007FC0000
ENDCHAR
STARTCHAR A
ENCODING 65
SWIDTH 738 0
DWIDTH 29 0
BBX 29 27 0 0
BITMAP
000F8000
001F8000
001FC000
001FC000
003FE000
003DE000
007DF000
0079F000
00F8F800
00F0F800
01F07800
01E07C00
01E03C00
03E03E00
03C03E00
07C01F00
07801F00
0FFFFF80
0FFFFF80
1FFFFF80
1FFFFFC0
3E0007C0
3E0003E0
3C0003E0
7C0001F0
780001F0
F80000F8
ENDCHAR
STARTCHAR B
ENCODING 66
SWIDTH 706 0
DWIDTH 28 0
BBX 22 27 4 0
BITMAP
FFFE00
FFFFC0
FFFFE0
FFFFF0
F003F0
F001F8
F000F8
F000F8
F000F0
F001F0
F003E0
FFFFC0
FFFF00
FFFFC0
FFFFF0
F003F8
F000F8
F00078
F0007C
F0007C
F0007C
F000F8
F003F8
FFFFF0
FFFFF0
FFFFC0
FFFF00
ENDCHAR
STARTCHAR C
ENCODING 67
SWIDTH 697 0
DWIDTH 27 0
BBX 25 28 1 -1
BITMAP
001FC000
00FFF800
03FFFE00
07FFFF00
0FF07F80
1FC00F00
1F000600
3E000000
7E000000
7C000000
7C000000
78000000
F8000000
F8000000
F8000000
F8000000
78000000
7C000000
7C000000
7E000000
3F000000
3F800600
1FC00F00
0FF87F80
07FFFF00
03FFFE00
00FFF800
001FC000
ENDCHAR
STARTCHAR D
ENCODING 68
SWIDTH 775 0
DWIDTH 30 0
BBX 25 27 4 0
BITMAP
FFFE0000
FFFFC000
FFFFE000
FFFFF800
F007FC00
F000FC00
F0007E00
F0003F00
F0001F00
F0001F00
F0000F80
F0000F80
F0000F80
F0000F80
F0000F80
F0000F80
F0000F80
F0001F00
F0001F00
F0003F00
F0007E00
F000FC00
F003FC00
FFFFF800
FFFFE000
FFFF8000
FFFE0000
ENDCHAR
STARTCHAR E
ENCODING 69
SWIDTH 656 0
DWIDTH 26 0
BBX 20 27 4 0
BITMAP
FFFFE0
FFFFE0
FFFFE0
FFFFE0
F00000
F00000
F00000
F00000
F00000
F00000
F00000
FFFFC0
FFFFC0
FFFFC0
FFFFC0
F00000
F00000
F00000
F00000
F00000
F00000
F00000
F00000
FFFFF0
FFFFF0
FFFFF0
FFFFF0
ENDCHAR
STARTCHAR F
ENCODING 70
SWIDTH 575 0
DWIDTH 22 0
BBX 18 27 4 0
BITMAP
FFFFC0
FFFFC0
FFFFC0
FFFFC0
F00000
F00000
F00000
F00000
F00000
F00000
F00000
F00000
FFFF80
FFFF80
FFFF80
FFFF80
F00000
F00000
F00000
F00000
F00000
F00000
F00000
F00000
F00000
F00000
F00000
ENDCHAR
STARTCHAR G
ENCODING 71
SWIDTH 749 0
DWIDTH 29 0
BBX 25 28 1 -1
BITMAP
001FE000
00FFFC00
03FFFF80
07FFFF80
0FF03F80
1FC00F00
1F000200
3E000000
7E000000
7C000000
7C000000
78000000
F8000000
F8000000
F8000780
F8000780
78000780
7C000780
7C000780
7E000780
3F000780
3F800780
1FC00F80
0FF03F80
07FFFF80
03FFFF00
00FFFC00
001FE000
ENDCHAR
STARTCHAR H
ENCODING 72
SWIDTH 791 0
DWIDTH 31 0
BBX 23 27 4 0
BITMAP
F0001E
F0001E
F0001E
F0001E
F0001E
F0001E
F0001E
F0001E
F0001E
F0001E
F0001E
F0001E
FFFFFE
FFFFFE
FFFFFE
FFFFFE
F0001E
F0001E
F0001E
F0001E
F0001E
F0001E
F0001E
F0001E
F0001E
F0001E
F0001E
ENDCHAR
STARTCHAR I
ENCODING 73
SWIDTH 302 0
DWIDTH 12 0
BBX 4 27 4 0
BITMAP
F0
F0
F0
F0
F0
F0
F0
F0
F0
F0
F0
F0
F0
F0
F0
F0
F0
F0
F0
F0
F0
F0
F0
F0
F0
F0
F0
ENDCHAR
STARTCHAR J
ENCODING 74
SWIDTH 499 0
DWIDTH 19 0
BBX 16 28 0 -1
BITMAP
3FFF
3FFF
3FFF
3FFF
000F
000F
000F
000F
000F
000F
000F
000F
000F
000F
000F
000F
000F
000F
000F
000F
000F
601F
781F
FFFF
FFFE
7FFC
1FF8
07E0
ENDCHAR
STARTCHAR K
ENCODING 75
SWIDTH 718 0
DWIDTH 28 0
BBX 23 27 4 0
BITMAP
F0007C
F000F8
F001F0
F003E0
F007E0
F00FC0
F01F80
F03F00
F07E00
F0FC00
F1F800
F3F000
F3F800
F7FC00
FFFC00
FF7E00
FF3F00
FE1F00
FC1F80
F80FC0
F007E0
F003E0
F003F0
F001F8
F000FC
F0007C
F0007E
ENDCHAR
STARTCHAR L
ENCODING 76
SWIDTH 534 0
DWIDTH 21 0
BBX 16 27 4 0
BITMAP
F000
F000
F000
F000
F000
F000
F000
F000
F000
F000
F000
F000
F000
F000
F000
F000
F000
F000
F000
F000
F000
F000
F000
FFFF
FFFF
FFFF
FFFF
ENDCHAR
STARTCHAR M
ENCODING 77
SWIDTH 925 0
DWIDTH 36 0
BBX 28 27 4 0
BITMAP
F80001F0
FC0003F0
FC0003F0
FE0007F0
FE0007F0
FF000FF0
FF000FF0
FF801FF0
F7801EF0
F7C03EF0
F3C03CF0
F3E07CF0
F1E078F0
F1F0F8F0
F0F0F0F0
F0F9F0F0
F079E0F0
F07FE0F0
F03FC0F0
F03FC0F0
F01F80F0
F01F80F0
F00F00F0
F00F00F0
F00000F0
F00000F0
F00000F0
ENDCHAR
STARTCHAR N
ENCODING 78
SWIDTH 792 0
DWIDTH 31 0
BBX 23 27 4 0
BITMAP
F0001E
F8001E
FC001E
FE001E
FF001E
FF001E
FF801E
FFC01E
F7E01E
F3E01E
F3F01E
F1F81E
F0FC1E
F07C1E
F07E1E
F03F1E
F01F9E
F00F9E
F00FDE
F007FE
F003FE
F001FE
F001FE
F000FE
F0007E
F0003E
F0003E
ENDCHAR
STARTCHAR O
ENCODING 79
SWIDTH 810 0
DWIDTH 32 0
BBX 29 28 1 -1
BITMAP
001FE000
00FFFC00
03FFFE00
07FFFF80
0FF07FC0
1FC00FC0
1F0007E0
3E0003F0
7E0001F0
7C0001F8
7C0000F8
780000F8
F80000F8
F8000078
F8000078
F80000F8
780000F8
7C0000F8
7C0000F8
7E0001F0
3F0003F0
1F8007E0
1FC00FC0
0FF03FC0
07FFFF00
03FFFE00
00FFF800
001FE000
ENDCHAR
STARTCHAR P
ENCODING 80
SWIDTH 673 0
DWIDTH 26 0
BBX 21 27 4 0
BITMAP
FFFE00
FFFF80
FFFFE0
FFFFF0
F007F0
F001F8
F000F8
F00078
F00078
F00078
F00078
F00078
F000F8
F001F8
F007F0
FFFFE0
FFFFC0
FFFF80
FFFC00
F00000
F00000
F00000
F00000
F00000
F00000
F00000
F00000
ENDCHAR
STARTCHAR Q
ENCODING 81
SWIDTH 818 0
DWIDTH 32 0
BBX 31 33 1 -6
BITMAP
001FE000
00FFFC00
03FFFE00
07FFFF80
0FF07FC0
1FC00FE0
3F0007E0
3E0003F0
7E0001F0
7C0000F8
7C0000F8
780000F8
F80000F8
F8000078
F80000F8
F80000F8
7C0000F8
7C0000F8
7C0001F0
3E0001F0
3F0003E0
1F800FE0
0FE03FC0
07FFFF80
03FFFF00
00FFFC00
003FF000
0001F808
0000FC3C
0000FFFE
00007FFC
00001FF8
000007C0
ENDCHAR
STARTCHAR R
ENCODING 82
SWIDTH 723 0
DWIDTH 28 0
BBX 22 27 4 0
BITMAP
FFFE00
FFFF80
FFFFE0
FFFFF0
F003F8
F000F8
F00078
F0007C
F0007C
F0007C
F0007C
F00078
F00078
F000F8
F003F0
FFFFF0
FFFFE0
FFFF80
FFFF00
F00F80
F007C0
F007C0
F003E0
F001F0
F001F0
F000F8
F0007C
ENDCHAR
STARTCHAR S
ENCODING 83
SWIDTH 622 0
DWIDTH 24 0
BBX 21 29 1 -1
BITMAP
00FF00
07FFE0
0FFFF8
1FFFF8
3FC7F0
3F00F0
3E0020
3E0000
3E0000
3F0000
3F8000
3FE000
1FFC00
0FFF80
07FFC0
00FFF0
001FF0
0007F8
0001F8
0000F8
0000F8
6000F8
7800F8
7C01F8
FFC7F8
7FFFF0
3FFFE0
0FFFC0
01FE00
ENDCHAR
STARTCHAR T
ENCODING 84
SWIDTH 579 0
DWIDTH 23 0
BBX 22 27 0 0
BITMAP
FFFFFC
FFFFFC
FFFFFC
FFFFFC
007C00
007C00
007C00
007C00
007C00
007C00
007C00
007C00
007C00
007C00
007C00
007C00
007C00
007C00
007C00
007C00
007C00
007C00
007C00
007C00
007C00
007C00
007C00
ENDCHAR
STARTCHAR U
ENCODING 85
SWIDTH 764 0
DWIDTH 30 0
BBX 24 28 3 -1
BITMAP
F8001F
F8001F
F8001F
F8001F
F8001F
F8001F
F8001F
F8001F
F8001F
F8001F
F8001F
F8001F
F8001F
F8001F
F8001F
F8001F
F8001F
F8001F
F8001F
F8001F
7C003E
7C003E
7E007C
3FC1FC
1FFFF8
0FFFF0
07FFC0
00FF00
ENDCHAR
STARTCHAR V
ENCODING 86
SWIDTH 690 0
DWIDTH 27 0
BBX 27 27 0 0
BITMAP
F80003E0
7C0007C0
7C0007C0
3C000780
3E000F80
3E000F80
1F001F00
1F001F00
0F001E00
0F803E00
0F803C00
07803C00
07C07C00
03C07800
03E0F800
03E0F000
01E0F000
01F1F000
00F1E000
00FBE000
00FBC000
007BC000
007FC000
003F8000
003F8000
003F0000
001F0000
ENDCHAR
STARTCHAR W
ENCODING 87
SWIDTH 1036 0
DWIDTH 40 0
BBX 41 27 0 0
BITMAP
F8003E000F80
7C003E000F00
7C003F001F00
7C007F001F00
3C007F001E00
3E007F003E00
3E00F7803E00
1E00F7803C00
1F00F7807C00
1F01E3C07C00
0F01E3C07800
0F81E3C07800
0F81C3E0F800
0783C1E0F000
0783C1E0F000
07C381F1F000
03C780F1E000
03C780F1E000
03E780F3E000
01EF007BC000
01EF007BC000
01FF007BC000
00FE003F8000
00FE003F8000
00FE003F8000
007C003F0000
007C001F0000
ENDCHAR
STARTCHAR X
ENCODING 88
SWIDTH 692 0
DWIDTH 27 0
BBX 25 27 1 0
BITMAP
7C001F00
7E003E00
3E007E00
1F00FC00
1F80F800
0FC1F000
07C3F000
03E3E000
03F7C000
01FFC000
00FF8000
00FF0000
007F0000
007F0000
007F0000
00FF8000
01FFC000
03F7C000
03E7E000
07C3F000
0FC1F800
0F80F800
1F00FC00
3E007E00
7E003E00
7C001F00
F8001F80
ENDCHAR
STARTCHAR Y
ENCODING 89
SWIDTH 637 0
DWIDTH 25 0
BBX 25 27 0 0
BITMAP
F8000F80
7C001F00
7C001E00
3E003E00
1E007C00
1F007C00
0F80F800
0F80F800
07C1F000
07C1F000
03E3E000
03F7C000
01F7C000
00FF8000
00FF8000
007F0000
007F0000
003E0000
003E0000
003E0000
003E0000
003E0000
003E0000
003E0000
003E0000
003E0000
003E0000
ENDCHAR
STARTCHAR Z
ENCODING 90
SWIDTH 666 0
DWIDTH 26 0
BBX 23 27 1 0
BITMAP
7FFFFE
7FFFFE
7FFFFE
7FFFFE
00007C
0000F8
0001F8
0003F0
0007E0
0007C0
000F80
001F00
003E00
007E00
00FC00
01F800
01F000
03E000
07C000
0FC000
1F8000
3F0000
7E0000
7FFFFE
FFFFFE
FFFFFE
FFFFFE
ENDCHAR
STARTCHAR bracketleft
ENCODING 91
SWIDTH 345 0
DWIDTH 13 0
BBX 8 34 4 -5
BITMAP
FF
FF
FF
FF
F0
F0
F0
F0
F0
F0
F0
F0
F0
F0
F0
F0
F0
F0
F0
F0
F0
F0
F0
F0
F0
F0
F0
F0
F0
F0
FF
FF
FF
FF
ENDCHAR
STARTCHAR backslash
ENCODING 92
SWIDTH 545 0
DWIDTH 21 0
BBX 16 36 5 -4
BITMAP
F000
7000
7800
7800
3800
3C00
3C00
1C00
1E00
1E00
0E00
0F00
0F00
0700
0780
0780
03C0
03C0
03C0
01E0
01E0
01E0
00F0
00F0
00F0
0078
0078
0078
003C
003C
003C
001E
001E
001E
000F
000F
ENDCHAR
STARTCHAR bracketright
ENCODING 93
SWIDTH 473 0
DWIDTH 18 0
BBX 9 34 6 -5
BITMAP
FF80
FF80
FF80
FF80
0780
0780
0780
0780
0780
0780
0780
0780
0780
0780
0780
0780
0780
0780
0780
0780
0780
0780
0780
0780
0780
0780
0780
0780
0780
0780
FF80
FF80
FF80
FF80
ENDCHAR
STARTCHAR asciicircum
ENCODING 94
SWIDTH 537 0
DWIDTH 21 0
BBX 19 16 1 5
BITMAP
01F000
01F000
03F800
03B800
07B800
071C00
071C00
0E0E00
0E0E00
1E0F00
1C0700
3C0780
380380
7803C0
7001C0
F001E0
ENDCHAR
STARTCHAR underscore
ENCODING 95
SWIDTH 566 0
DWIDTH 22 0
BBX 22 3 0 -9
BITMAP
FFFFFC
FFFFFC
FFFFFC
ENDCHAR
STARTCHAR grave
ENCODING 96
SWIDTH 350 0
DWIDTH 14 0
BBX 8 6 3 24
BITMAP
10
F8
FC
7C
3E
0F
ENDCHAR
STARTCHAR a
ENCODING 97
SWIDTH 586 0
DWIDTH 23 0
BBX 18 23 2 -1
BITMAP
03F800
1FFE00
7FFF00
7FFF80
380FC0
2007C0
0007C0
0003C0
0003C0
0FFFC0
3FFFC0
7FFFC0
FC03C0
F003C0
F003C0
F003C0
F007C0
F007C0
F81FC0
FFFFC0
7FFFC0
3FF3C0
0FC3C0
ENDCHAR
STARTCHAR b
ENCODING 98
SWIDTH 680 0
DWIDTH 27 0
BBX 21 30 4 -1
BITMAP
F00000
F00000
F00000
F00000
F00000
F00000
F00000
F0FE00
F3FF80
F7FFC0
FFFFE0
FE07E0
FC03F0
F801F0
F800F8
F000F8
F000F8
F00078
F00078
F00078
F000F8
F000F8
F800F8
F801F0
FC03F0
FF07F0
FFFFE0
F7FFC0
F3FF80
00FE00
ENDCHAR
STARTCHAR c
ENCODING 99
SWIDTH 564 0
DWIDTH 22 0
BBX 19 23 1 -1
BITMAP
00FE00
07FF80
0FFFE0
1FFFE0
3F83E0
3E00C0
7C0000
7C0000
780000
780000
F80000
F80000
F80000
F80000
780000
7C0000
7C0000
3E00C0
3F03E0
1FFFE0
0FFFC0
07FF80
01FE00
ENDCHAR
STARTCHAR d
ENCODING 100
SWIDTH 682 0
DWIDTH 27 0
BBX 22 30 1 -1
BITMAP
00003C
00003C
00003C
00003C
00003C
00003C
00003C
01FC3C
07FF3C
0FFFBC
1FFFBC
3F03FC
3E01FC
7C00FC
7C007C
78007C
78007C
F8003C
F8003C
F8003C
F8007C
78007C
7C007C
7C00FC
3E00FC
3F03FC
1FFFBC
0FFFBC
07FF3C
01F800
ENDCHAR
STARTCHAR e
ENCODING 101
SWIDTH 588 0
DWIDTH 23 0
BBX 21 23 1 -1
BITMAP
00FE00
07FF80
0FFFC0
1FFFE0
3F03E0
3E01F0
7C00F0
7800F0
7800F0
780078
FFFFF8
FFFFF8
FFFFF8
F80000
780000
7C0000
7C0000
3E00C0
3F01E0
1FFFF0
0FFFC0
07FF80
01FE00
ENDCHAR
STARTCHAR f
ENCODING 102
SWIDTH 343 0
DWIDTH 13 0
BBX 15 30 1 0
BITMAP
00F8
03FE
07FE
0FFC
0F88
1F00
1F00
1F00
1F00
1F00
FFF8
FFF8
FFF8
1F00
1F00
1F00
1F00
1F00
1F00
1F00
1F00
1F00
1F00
1F00
1F00
1F00
1F00
1F00
1F00
1F00
ENDCHAR
STARTCHAR g
ENCODING 103
SWIDTH 640 0
DWIDTH 25 0
BBX 21 30 1 -8
BITMAP
01F800
07FE78
1FFF78
3FFFF8
3F03F8
7C01F8
7C00F8
7800F8
7800F8
F80078
F80078
F80078
7800F8
7800F8
7800F8
7C01F8
3E03F8
3FFFF8
1FFF78
0FFE78
03F878
0000F8
0000F8
0000F8
1001F0
1C03F0
3FFFE0
3FFFC0
0FFF00
03FC00
ENDCHAR
STARTCHAR h
ENCODING 104
SWIDTH 669 0
DWIDTH 26 0
BBX 19 29 4 0
BITMAP
F00000
F00000
F00000
F00000
F00000
F00000
F00000
F0FE00
F3FF80
F7FFC0
FFFFC0
FF1FE0
FC07E0
F803E0
F801E0
F001E0
F001E0
F001E0
F001E0
F001E0
F001E0
F001E0
F001E0
F001E0
F001E0
F001E0
F001E0
F001E0
F001E0
ENDCHAR
STARTCHAR i
ENCODING 105
SWIDTH 284 0
DWIDTH 11 0
BBX 5 29 3 0
BITMAP
70
F8
F8
F8
70
00
00
00
F8
F8
F8
F8
F8
F8
F8
F8
F8
F8
F8
F8
F8
F8
F8
F8
F8
F8
F8
F8
F8
ENDCHAR
STARTCHAR j
ENCODING 106
SWIDTH 287 0
DWIDTH 11 0
BBX 11 38 -3 -9
BITMAP
03E0
03E0
03E0
03E0
01C0
0000
0000
0000
03E0
03E0
03E0
03E0
03E0
03E0
03E0
03E0
03E0
03E0
03E0
03E0
03E0
03E0
03E0
03E0
03E0
03E0
03E0
03E0
03E0
03E0
03E0
03E0
03E0
47C0
7FC0
FF80
FF00
7E00
ENDCHAR
STARTCHAR k
ENCODING 107
SWIDTH 595 0
DWIDTH 23 0
BBX 19 29 4 0
BITMAP
F00000
F00000
F00000
F00000
F00000
F00000
F00000
F00000
F007C0
F00F80
F01F00
F03E00
F07C00
F0F800
F1F000
F3E000
F7E000
FFF000
FFF000
FEF800
FCF800
FC7C00
F87E00
F03E00
F01F00
F01F80
F00F80
F007C0
F007E0
ENDCHAR
STARTCHAR l
ENCODING 108
SWIDTH 295 0
DWIDTH 12 0
BBX 4 29 4 0
BITMAP
F0
F0
F0
F0
F0
F0
F0
F0
F0
F0
F0
F0
F0
F0
F0
F0
F0
F0
F0
F0
F0
F0
F0
F0
F0
F0
F0
F0
F0
ENDCHAR
STARTCHAR m
ENCODING 109
SWIDTH 1043 0
DWIDTH 41 0
BBX 35 22 3 0
BITMAP
007E00FC00
F9FF83FF00
FBFFC7FF80
FFFFEFFFC0
FF8FEF1FC0
FE03FC07E0
FC01F803E0
FC01F803E0
F801F003E0
F801F003E0
F801F003E0
F801F003E0
F801F003E0
F801F003E0
F801F003E0
F801F003E0
F801F003E0
F801F003E0
F801F003E0
F801F003E0
F801F003E0
F801F003E0
ENDCHAR
STARTCHAR n
ENCODING 110
SWIDTH 663 0
DWIDTH 26 0
BBX 20 22 3 0
BITMAP
007F00
F9FF80
FBFFC0
FFFFE0
FF8FF0
FE03F0
FC01F0
FC01F0
F800F0
F800F0
F800F0
F800F0
F800F0
F800F0
F800F0
F800F0
F800F0
F800F0
F800F0
F800F0
F800F0
F800F0
ENDCHAR
STARTCHAR o
ENCODING 111
SWIDTH 625 0
DWIDTH 24 0
BBX 22 23 1 -1
BITMAP
00FE00
07FF80
0FFFC0
1FFFE0
3F03F0
3E01F8
7C00F8
7C007C
78007C
78007C
F8007C
F8003C
F8007C
78007C
78007C
7C0078
7C00F8
3E01F8
3F03F0
1FFFE0
0FFFC0
07FF80
00FE00
ENDCHAR
STARTCHAR p
ENCODING 112
SWIDTH 680 0
DWIDTH 27 0
BBX 21 31 4 -9
BITMAP
F0FE00
F3FF80
F7FFC0
FFFFE0
FF07E0
FC03F0
F801F0
F800F8
F000F8
F000F8
F00078
F00078
F00078
F000F8
F000F8
F800F8
F801F0
FC01F0
FF07F0
FFFFE0
F7FFC0
F3FF80
F0FE00
F00000
F00000
F00000
F00000
F00000
F00000
F00000
F00000
ENDCHAR
STARTCHAR q
ENCODING 113
SWIDTH 682 0
DWIDTH 27 0
BBX 22 30 1 -8
BITMAP
01FC00
07FF3C
0FFFBC
1FFFBC
3F03FC
3E01FC
7C00FC
7C007C
78007C
78007C
F8003C
F8003C
F8003C
F8007C
78007C
7C007C
7C00FC
3E00FC
3F03FC
1FFFBC
0FFFBC
07FF3C
01F83C
00003C
00003C
00003C
00003C
00003C
00003C
00003C
ENDCHAR
STARTCHAR r
ENCODING 114
SWIDTH 394 0
DWIDTH 15 0
BBX 12 22 3 0
BITMAP
0070
F9F0
FBF0
FFF0
FFC0
FE00
FC00
FC00
F800
F800
F800
F800
F800
F800
F800
F800
F800
F800
F800
F800
F800
F800
ENDCHAR
STARTCHAR s
ENCODING 115
SWIDTH 470 0
DWIDTH 18 0
BBX 16 23 1 -1
BITMAP
07F0
1FFE
3FFF
3FFE
7C0E
7800
7800
7C00
7F00
3FC0
3FF8
1FFC
07FE
00FF
003F
001F
000F
600F
701F
FFFE
FFFE
3FFC
0FE0
ENDCHAR
STARTCHAR t
ENCODING 116
SWIDTH 407 0
DWIDTH 16 0
BBX 14 26 1 -1
BITMAP
1F00
1F00
1F00
1F00
1F00
1F00
FFFC
FFFC
FFFC
1F00
1F00
1F00
1F00
1F00
1F00
1F00
1F00
1F00
1F00
1F00
1F00
1F08
0FF8
0FFC
07FC
03F0
ENDCHAR
STARTCHAR u
ENCODING 117
SWIDTH 653 0
DWIDTH 25 0
BBX 19 22 3 -1
BITMAP
F001E0
F001E0
F001E0
F001E0
F001E0
F001E0
F001E0
F001E0
F001E0
F001E0
F001E0
F001E0
F001E0
F003E0
F003E0
F807E0
FC07E0
FE1FE0
7FFDE0
7FFDE0
3FF1E0
0FC000
ENDCHAR
STARTCHAR v
ENCODING 118
SWIDTH 525 0
DWIDTH 20 0
BBX 20 21 0 0
BITMAP
F800F0
7800F0
7C01F0
7C01E0
3C01E0
3E03E0
3E03C0
1E03C0
1F0780
0F0780
0F0780
0F8F00
078F00
078F00
03DE00
03DE00
03DC00
01FC00
01FC00
01F800
00F800
ENDCHAR
STARTCHAR w
ENCODING 119
SWIDTH 893 0
DWIDTH 35 0
BBX 35 21 0 0
BITMAP
F801F003E0
7801F003C0
7803F803C0
7C03F807C0
3C03F80780
3C03FC0780
3E07BC0F80
1E07BC0F00
1E079E0F00
1F0F1E1F00
0F0F1E1E00
0F0E0F1E00
079E0F3E00
079E0F3C00
079C07BC00
03FC07F800
03FC07F800
03F803F800
01F803F000
01F803F000
01F001F000
ENDCHAR
STARTCHAR x
ENCODING 120
SWIDTH 554 0
DWIDTH 22 0
BBX 20 21 1 0
BITMAP
FC03E0
7C03C0
3E07C0
3E0F80
1F0F80
0F9F00
0FBE00
07FE00
03FC00
03F800
01F800
03FC00
07FC00
07FE00
0F9F00
1F1F00
1F0F80
3E07C0
7C07C0
7C03E0
F803F0
ENDCHAR
STARTCHAR y
ENCODING 121
SWIDTH 531 0
DWIDTH 21 0
BBX 21 30 0 -9
BITMAP
F800F8
F800F0
7800F0
7C01F0
3C01E0
3E01E0
3E03C0
1E03C0
1F07C0
0F0780
0F0780
0F8F80
078F00
078F00
03DE00
03DE00
03FE00
01FC00
01FC00
01FC00
00F800
00F800
00F000
00F000
01F000
63E000
7FE000
FFC000
FF8000
3E0000
ENDCHAR
STARTCHAR z
ENCODING 122
SWIDTH 537 0
DWIDTH 21 0
BBX 18 21 2 0
BITMAP
FFFF80
FFFF80
FFFF80
FFFF80
001F00
003E00
007C00
00F800
00F800
01F000
03E000
07C000
0F8000
1F0000
1F0000
3E0000
7C0000
FFFFC0
FFFFC0
FFFFC0
FFFFC0
ENDCHAR
STARTCHAR braceleft
ENCODING 123
SWIDTH 329 0
DWIDTH 13 0
BBX 11 34 1 -5
BITMAP
03E0
0FE0
0FE0
1FE0
1F00
1E00
1E00
1E00
1E00
1E00
1E00
1E00
1E00
1E00
1E00
FE00
FC00
FC00
FE00
1E00
1E00
1E00
1E00
1E00
1E00
1E00
1E00
1E00
1E00
1F00
1FE0
0FE0
0FE0
03E0
ENDCHAR
STARTCHAR bar
ENCODING 124
SWIDTH 269 0
DWIDTH 10 0
BBX 3 36 4 -4
BITMAP
E0
E0
E0
E0
E0
E0
E0
E0
E0
E0
E0
E0
E0
E0
E0
E0
E0
E0
E0
E0
E0
E0
E0
E0
E0
E0
E0
E0
E0
E0
E0
E0
E0
E0
E0
E0
ENDCHAR
STARTCHAR braceright
ENCODING 125
SWIDTH 402 0
DWIDTH 16 0
BBX 11 34 5 -5
BITMAP
F800
FE00
FE00
FF00
1F00
0F00
0F00
0F00
0F00
0F00
0F00
0F00
0F00
0F00
0F00
0FE0
03E0
07E0
0FE0
0F00
0F00
0F00
0F00
0F00
0F00
0F00
0F00
0F00
0F00
1F00
FF00
FE00
FE00
F800
ENDCHAR
STARTCHAR asciitilde
ENCODING 126
SWIDTH 498 0
DWIDTH 19 0
BBX 14 5 3 10
BITMAP
7C1C
FF3C
FFFC
E7F8
E1F8
ENDCHAR
STARTCHAR uni00A0
ENCODING 160
SWIDTH 300 0
DWIDTH 12 0
BBX 1 1 0 0
BITMAP
00
ENDCHAR
STARTCHAR exclamdown
ENCODING 161
SWIDTH 210 0
DWIDTH 8 0
BBX 5 27 2 -5
BITMAP
70
F8
F8
F8
70
00
00
00
00
70
70
70
70
70
70
78
78
78
78
78
78
78
78
78
78
78
78
ENDCHAR
STARTCHAR cent
ENCODING 162
SWIDTH 600 0
DWIDTH 23 0
BBX 19 33 1 -6
BITMAP
007800
007800
007800
007800
007800
007800
00FC00
07FF80
0FFFC0
1FFFE0
3F83E0
3E00C0
7C0000
7C0000
780000
F80000
F80000
F80000
780000
780000
7C0000
7E00C0
3F01E0
1FFFE0
0FFFE0
07FF80
01FE00
007800
007800
007800
007800
007800
007800
ENDCHAR
STARTCHAR sterling
ENCODING 163
SWIDTH 547 0
DWIDTH 21 0
BBX 20 28 1 0
BITMAP
007E00
01FF80
03FFE0
07FFF0
0FE3E0
0F80E0
0F8040
0F0000
0F0000
0F0000
0F0000
0F0000
0F0000
FFFE00
FFFE00
FFFE00
0F0000
0F0000
0F0000
0F0000
0F0000
0F0000
0F0000
0F0000
FFFFE0
FFFFE0
FFFFE0
FFFFE0
ENDCHAR
STARTCHAR currency
ENCODING 164
SWIDTH 711 0
DWIDTH 28 0
BBX 24 27 2 -1
BITMAP
400004
60000E
F03C1F
F9FFBF
7FFFFE
3FFFFC
1F83F8
1F00F8
3E0078
3C003C
38003C
38001C
78001C
78001C
78001C
38003C
3C003C
3E007C
1E00F8
1F81F0
1FFFF8
3FFFFC
7FFFBE
F87E1F
F0000F
60000E
400004
ENDCHAR
STARTCHAR yen
ENCODING 165
SWIDTH 635 0
DWIDTH 25 0
BBX 24 27 0 0
BITMAP
F8000F
7C001F
7C001E
3E003E
3E007C
1F007C
0F00F8
0F80F8
07C1F0
07C1F0
03E3E0
03E7C0
01F7C0
01FF80
00FF80
1FFFFC
1FFFFC
1FFFFC
003E00
003E00
1FFFFC
1FFFFC
1FFFFC
003E00
003E00
003E00
003E00
ENDCHAR
STARTCHAR brokenbar
ENCODING 166
SWIDTH 269 0
DWIDTH 10 0
BBX 3 36 4 -4
BITMAP
E0
E0
E0
E0
E0
E0
E0
E0
E0
E0
E0
E0
E0
E0
00
00
00
00
00
00
00
00
00
E0
E0
E0
E0
E0
E0
E0
E0
E0
E0
E0
E0
E0
ENDCHAR
STARTCHAR section
ENCODING 167
SWIDTH 499 0
DWIDTH 19 0
BBX 17 31 1 -4
BITMAP
03F800
0FFE00
1FFF00
3E1F00
3C0200
780000
3C0000
3E0000
3F8000
0FF000
07FC00
1FFF00
3FFF00
780F80
780780
780780
780780
7C0F80
3FFF00
1FFE00
0FF800
01FE00
003F00
001F00
000F00
400F00
600F00
FC3F00
FFFE00
3FFC00
07F000
ENDCHAR
STARTCHAR dieresis
ENCODING 168
SWIDTH 367 0
DWIDTH 14 0
BBX 12 5 1 25
BITMAP
70E0
79F0
F9F0
79F0
70E0
ENDCHAR
STARTCHAR copyright
ENCODING 169
SWIDTH 745 0
DWIDTH 29 0
BBX 27 26 1 1
BITMAP
003F8000
00FFF000
03F1F800
07803C00
0E000E00
1C000700
38000380
301F8180
707FC1C0
60F0C0C0
60C040C0
61C000E0
E18000E0
E18000E0
E18000E0
E1C000E0
61C040C0
60F0C0C0
707FC1C0
301F8180
38000380
1C000700
0F001E00
07C07C00
01FFF000
007FC000
ENDCHAR
STARTCHAR ordfeminine
ENCODING 170
SWIDTH 385 0
DWIDTH 15 0
BBX 12 12 1 18
BITMAP
3FC0
7FE0
20F0
0070
0070
3FF0
7FF0
E070
E070
F0F0
7FF0
3E70
ENDCHAR
STARTCHAR guillemotleft
ENCODING 171
SWIDTH 456 0
DWIDTH 18 0
BBX 15 14 1 3
BITMAP
0F1E
1E3C
1E3C
3C78
78F0
78F0
F1E0
F1E0
78F0
3C78
3C78
1E3C
0F1E
0F1E
ENDCHAR
STARTCHAR logicalnot
ENCODING 172
SWIDTH 561 0
DWIDTH 22 0
BBX 18 10 1 6
BITMAP
FFFFC0
FFFFC0
FFFFC0
0001C0
0001C0
0001C0
0001C0
0001C0
0001C0
0001C0
ENDCHAR
STARTCHAR uni00AD
ENCODING 173
SWIDTH 368 0
DWIDTH 14 0
BBX 10 3 2 10
BITMAP
FFC0
FFC0
FFC0
ENDCHAR
STARTCHAR registered
ENCODING 174
SWIDTH 745 0
DWIDTH 29 0
BBX 27 26 1 1
BITMAP
003F8000
01FFF000
03F1F800
07803E00
0E000F00
1C000700
387F0380
307FC180
7060E1C0
606060C0
606060C0
606060E0
E06060E0
E060E0E0
E07FC0E0
E07F00E0
606180C0
6061C0C0
7060E1C0
30606180
38000380
1C000700
0F001E00
07C07C00
01FFF000
007FC000
ENDCHAR
STARTCHAR macron
ENCODING 175
SWIDTH 350 0
DWIDTH 14 0
BBX 10 3 2 25
BITMAP
FFC0
FFC0
FFC0
ENDCHAR
STARTCHAR degree
ENCODING 176
SWIDTH 346 0
DWIDTH 14 0
BBX 9 9 3 23
BITMAP
1E00
7F00
6380
C180
C180
C180
6380
7F00
1E00
ENDCHAR
STARTCHAR plusminus
ENCODING 177
SWIDTH 498 0
DWIDTH 19 0
BBX 17 22 1 1
BITMAP
01C000
01C000
01C000
01C000
01C000
01C000
01C000
FFFF80
FFFF80
FFFF80
01C000
01C000
01C000
01C000
01C000
01C000
000000
000000
000000
FFFF80
FFFF80
FFFF80
ENDCHAR
STARTCHAR uni00B2
ENCODING 178
SWIDTH 383 0
DWIDTH 15 0
BBX 13 16 1 14
BITMAP
0F80
7FE0
FFF0
60F0
40F0
00F0
00E0
01C0
03C0
0780
0E00
1C00
3800
7FF8
FFF8
FFF8
ENDCHAR
STARTCHAR uni00B3
ENCODING 179
SWIDTH 355 0
DWIDTH 14 0
BBX 11 15 1 14
BITMAP
FFE0
FFE0
03C0
0780
0F00
1E00
1F80
1FC0
01E0
00E0
00E0
00E0
E1E0
FFC0
7F80
ENDCHAR
STARTCHAR acute
ENCODING 180
SWIDTH 350 0
DWIDTH 14 0
BBX 8 6 3 24
BITMAP
18
1E
3F
7C
F8
F0
ENDCHAR
STARTCHAR uni00B5
ENCODING 181
SWIDTH 675 0
DWIDTH 26 0
BBX 19 29 4 -8
BITMAP
F001E0
F001E0
F001E0
F001E0
F001E0
F001E0
F001E0
F001E0
F001E0
F001E0
F001E0
F001E0
F003E0
F003E0
F003E0
F807E0
F80FE0
FE1FE0
FFFDE0
FFF9E0
FFF1E0
FFC000
F00000
F00000
F00000
F00000
F00000
F00000
F00000
ENDCHAR
STARTCHAR paragraph
ENCODING 182
SWIDTH 615 0
DWIDTH 24 0
BBX 20 34 0 -5
BITMAP
07FFF0
1FFFF0
3FFFF0
7FF070
7FF070
FFF070
FFF070
FFF070
FFF070
FFF070
FFF070
7FF070
7FF070
3FF070
1FF070
00F070
00F070
00F070
00F070
00F070
00F070
00F070
00F070
00F070
00F070
00F070
00F070
00F070
00F070
00F070
00F070
00F070
00F070
00F070
ENDCHAR
STARTCHAR periodcentered
ENCODING 183
SWIDTH 212 0
DWIDTH 8 0
BBX 4 5 2 9
BITMAP
70
F0
F0
F0
70
ENDCHAR
STARTCHAR cedilla
ENCODING 184
SWIDTH 350 0
DWIDTH 14 0
BBX 8 10 3 -9
BITMAP
1C
18
38
3E
0E
07
07
6E
FE
7C
ENDCHAR
STARTCHAR uni00B9
ENCODING 185
SWIDTH 262 0
DWIDTH 10 0
BBX 6 16 1 14
BITMAP
FC
FC
FC
1C
1C
1C
1C
1C
1C
1C
1C
1C
1C
1C
1C
1C
ENDCHAR
STARTCHAR ordmasculine
ENCODING 186
SWIDTH 407 0
DWIDTH 16 0
BBX 14 12 1 18
BITMAP
0FC0
3FF0
7FF8
7078
F03C
E03C
E03C
F03C
7038
7FF8
3FF0
0FC0
ENDCHAR
STARTCHAR guillemotright
ENCODING 187
SWIDTH 468 0
DWIDTH 18 0
BBX 15 14 3 3
BITMAP
F1E0
78F0
7870
3C78
1E3C
1E3C
0F1E
0F1E
1E3C
3C78
3C78
78F0
70E0
F1E0
ENDCHAR
STARTCHAR onequarter
ENCODING 188
SWIDTH 817 0
DWIDTH 32 0
BBX 30 27 1 0
BITMAP
FC000780
FC000F00
FC001E00
1C003E00
1C003C00
1C007800
1C00F000
1C01F000
1C01E000
1C03C000
1C07C000
1C0F8380
1C0F0700
1C1E0700
1C3E0E00
1C7C0E00
00781C00
00F01C70
01F03870
01E07870
03C07070
07807FFC
0F807FFC
0F000070
1E000070
3C000070
7C000070
ENDCHAR
STARTCHAR onehalf
ENCODING 189
SWIDTH 839 0
DWIDTH 33 0
BBX 30 27 1 0
BITMAP
FC000780
FC000F00
FC001E00
1C003E00
1C003C00
1C007800
1C00F000
1C01F000
1C01E000
1C03C000
1C07C000
1C0F87E0
1C0F1FF8
1C1E3FF8
1C3E383C
1C7C003C
00780038
00F00078
01F00070
01E000E0
03C001C0
07800380
0F800700
0F000E00
1E001FFC
3C003FFC
7C003FFC
ENDCHAR
STARTCHAR threequarters
ENCODING 190
SWIDTH 879 0
DWIDTH 34 0
BBX 32 27 1 0
BITMAP
FFE001E0
FFE003C0
03C007C0
07800780
0F000F00
1E001E00
1F803E00
1FC03C00
01E07800
00E0F000
00E1F000
00E1E0E0
C0E3C0E0
FFE7C1C0
FFCF81C0
3F0F0380
001E0780
003E071C
003C0F1C
00780E1C
00F01C1C
01F01FFF
01E01FFF
03C0001C
07C0001C
0F80001C
0F00001C
ENDCHAR
STARTCHAR questiondown
ENCODING 191
SWIDTH 443 0
DWIDTH 17 0
BBX 16 28 1 -6
BITMAP
01C0
03C0
03E0
03C0
03C0
0000
0000
0000
0000
03C0
03C0
03C0
0380
0780
0F00
1E00
3C00
7800
7800
F800
F007
F00F
F80F
FC1E
7FFE
3FFC
1FF8
07E0
ENDCHAR
STARTCHAR Agrave
ENCODING 192
SWIDTH 738 0
DWIDTH 29 0
BBX 29 36 0 0
BITMAP
00080000
003C0000
00FC0000
003E0000
001F0000
000F0000
00000000
00000000
00000000
000F8000
001F8000
001FC000
001FC000
003FE000
003DE000
007DF000
0079F000
00F8F800
00F0F800
01F07800
01E07C00
01E03C00
03E03E00
03C03E00
07C01F00
07801F00
0FFFFF80
0FFFFF80
1FFFFF80
1FFFFFC0
3E0007C0
3E0003E0
3C0003E0
7C0001F0
780001F0
F80000F8
ENDCHAR
STARTCHAR Aacute
ENCODING 193
SWIDTH 738 0
DWIDTH 29 0
BBX 29 36 0 0
BITMAP
00008000
0001E000
0003F000
0003E000
0007C000
000F0000
00000000
00000000
00000000
000F8000
001F8000
001FC000
001FC000
003FE000
003DE000
007DF000
0079F000
00F8F800
00F0F800
01F07800
01E07C00
01E03C00
03E03E00
03C03E00
07C01F00
07801F00
0FFFFF80
0FFFFF80
1FFFFF80
1FFFFFC0
3E0007C0
3E0003E0
3C0003E0
7C0001F0
780001F0
F80000F8
ENDCHAR
STARTCHAR Acircumflex
ENCODING 194
SWIDTH 738 0
DWIDTH 29 0
BBX 29 35 0 0
BITMAP
000F8000
001FC000
003DE000
0078E000
0070F000
00000000
00000000
00000000
000F8000
001F8000
001FC000
001FC000
003FE000
003DE000
007DF000
0079F000
00F8F800
00F0F800
01F07800
01E07C00
01E03C00
03E03E00
03C03E00
07C01F00
07801F00
0FFFFF80
0FFFFF80
1FFFFF80
1FFFFFC0
3E0007C0
3E0003E0
3C0003E0
7C0001F0
780001F0
F80000F8
ENDCHAR
STARTCHAR Atilde
ENCODING 195
SWIDTH 738 0
DWIDTH 29 0
BBX 29 36 0 0
BITMAP
003C3800
007E7800
00FFF000
00F3F000
00E1E000
00000000
00000000
00000000
00000000
000F8000
001F8000
001FC000
001FC000
003FE000
003DE000
007DF000
0079F000
00F8F800
00F0F800
01F07800
01E07C00
01E03C00
03E03E00
03C03E00
07C01F00
07801F00
0FFFFF80
0FFFFF80
1FFFFF80
1FFFFFC0
3E0007C0
3E0003E0
3C0003E0
7C0001F0
780001F0
F80000F8
ENDCHAR
STARTCHAR Adieresis
ENCODING 196
SWIDTH 738 0
DWIDTH 29 0
BBX 29 35 0 0
BITMAP
0030E000
0078F000
0079F000
0078F000
0030E000
00000000
00000000
00000000
000F8000
001F8000
001FC000
001FC000
003FE000
003DE000
007DF000
0079F000
00F8F800
00F0F800
01F07800
01E07C00
01E03C00
03E03E00
03C03E00
07C01F00
07801F00
0FFFFF80
0FFFFF80
1FFFFF80
1FFFFFC0
3E0007C0
3E0003E0
3C0003E0
7C0001F0
780001F0
F80000F8
ENDCHAR
STARTCHAR Aring
ENCODING 197
SWIDTH 738 0
DWIDTH 29 0
BBX 29 35 0 0
BITMAP
000F8000
001FC000
0038E000
00306000
00306000
00306000
0038E000
001FC000
000F8000
001FC000
001FC000
003FE000
003FE000
007DE000
0079F000
0078F000
00F8F800
00F0F800
01F07C00
01E07C00
03E03C00
03E03E00
07C03E00
07C01F00
07801F00
0FFFFF80
0FFFFF80
1FFFFFC0
1FFFFFC0
3E0007C0
3E0003E0
3C0003E0
7C0001F0
780001F0
F80000F8
ENDCHAR
STARTCHAR AE
ENCODING 198
SWIDTH 1051 0
DWIDTH 41 0
BBX 39 27 0 0
BITMAP
0000FFFFFC
0001FFFFFC
0003FFFFFC
0003FFFFFC
0007DF0000
00079F0000
000F9F0000
001F1F0000
001E1F0000
003E1F0000
003C1F0000
007C1FFFF8
00781FFFF8
00F81FFFF8
01F01FFFF8
01F01F0000
03E01F0000
03FFFF0000
07FFFF0000
0FFFFF0000
0FFFFF0000
1F001F0000
1F001F0000
3E001FFFFE
7C001FFFFE
7C001FFFFE
F8001FFFFE
ENDCHAR
STARTCHAR Ccedilla
ENCODING 199
SWIDTH 697 0
DWIDTH 27 0
BBX 25 36 1 -9
BITMAP
001FC000
00FFF800
03FFFE00
07FFFF00
0FF07F80
1FC00F00
1F000600
3E000000
7E000000
7C000000
7C000000
78000000
F8000000
F8000000
F8000000
F8000000
78000000
7C000000
7C000000
7E000000
3F000000
3F800600
1FC00F00
0FF87F80
07FFFF00
03FFFE00
00FFF800
003FC000
00070000
00060000
000F8000
0001C000
0001C000
001BC000
003F8000
001F0000
ENDCHAR
STARTCHAR Egrave
ENCODING 200
SWIDTH 656 0
DWIDTH 26 0
BBX 20 36 4 0
BITMAP
010000
078000
0FC000
07C000
03E000
01F000
000000
000000
000000
FFFFE0
FFFFE0
FFFFE0
FFFFE0
F00000
F00000
F00000
F00000
F00000
F00000
F00000
FFFFC0
FFFFC0
FFFFC0
FFFFC0
F00000
F00000
F00000
F00000
F00000
F00000
F00000
F00000
FFFFF0
FFFFF0
FFFFF0
FFFFF0
ENDCHAR
STARTCHAR Eacute
ENCODING 201
SWIDTH 656 0
DWIDTH 26 0
BBX 20 36 4 0
BITMAP
001000
003C00
003E00
007C00
00F800
01F000
000000
000000
000000
FFFFE0
FFFFE0
FFFFE0
FFFFE0
F00000
F00000
F00000
F00000
F00000
F00000
F00000
FFFFC0
FFFFC0
FFFFC0
FFFFC0
F00000
F00000
F00000
F00000
F00000
F00000
F00000
F00000
FFFFF0
FFFFF0
FFFFF0
FFFFF0
ENDCHAR
STARTCHAR Ecircumflex
ENCODING 202
SWIDTH 656 0
DWIDTH 26 0
BBX 20 35 4 0
BITMAP
01F000
03F800
07BC00
071E00
0F0E00
000000
000000
000000
FFFFE0
FFFFE0
FFFFE0
FFFFE0
F00000
F00000
F00000
F00000
F00000
F00000
F00000
FFFFC0
FFFFC0
FFFFC0
FFFFC0
F00000
F00000
F00000
F00000
F00000
F00000
F00000
F00000
FFFFF0
FFFFF0
FFFFF0
FFFFF0
ENDCHAR
STARTCHAR Edieresis
ENCODING 203
SWIDTH 656 0
DWIDTH 26 0
BBX 20 35 4 0
BITMAP
070E00
0F1E00
0F9F00
0F1E00
070C00
000000
000000
000000
FFFFE0
FFFFE0
FFFFE0
FFFFE0
F00000
F00000
F00000
F00000
F00000
F00000
F00000
FFFFC0
FFFFC0
FFFFC0
FFFFC0
F00000
F00000
F00000
F00000
F00000
F00000
F00000
F00000
FFFFF0
FFFFF0
FFFFF0
FFFFF0
ENDCHAR
STARTCHAR Igrave
ENCODING 204
SWIDTH 302 0
DWIDTH 12 0
BBX 8 35 0 0
BITMAP
78
FC
7E
3E
0F
00
00
00
0F
0F
0F
0F
0F
0F
0F
0F
0F
0F
0F
0F
0F
0F
0F
0F
0F
0F
0F
0F
0F
0F
0F
0F
0F
0F
0F
ENDCHAR
STARTCHAR Iacute
ENCODING 205
SWIDTH 302 0
DWIDTH 12 0
BBX 8 36 4 0
BITMAP
10
1C
3F
7C
F8
F0
00
00
00
F0
F0
F0
F0
F0
F0
F0
F0
F0
F0
F0
F0
F0
F0
F0
F0
F0
F0
F0
F0
F0
F0
F0
F0
F0
F0
F0
ENDCHAR
STARTCHAR Icircumflex
ENCODING 206
SWIDTH 302 0
DWIDTH 12 0
BBX 12 35 0 0
BITMAP
1F80
3F80
39C0
79E0
F0F0
0000
0000
0000
0F00
0F00
0F00
0F00
0F00
0F00
0F00
0F00
0F00
0F00
0F00
0F00
0F00
0F00
0F00
0F00
0F00
0F00
0F00
0F00
0F00
0F00
0F00
0F00
0F00
0F00
0F00
ENDCHAR
STARTCHAR Idieresis
ENCODING 207
SWIDTH 302 0
DWIDTH 12 0
BBX 12 35 0 0
BITMAP
70E0
F9F0
F9F0
F9F0
70E0
0000
0000
0000
0F00
0F00
0F00
0F00
0F00
0F00
0F00
0F00
0F00
0F00
0F00
0F00
0F00
0F00
0F00
0F00
0F00
0F00
0F00
0F00
0F00
0F00
0F00
0F00
0F00
0F00
0F00
ENDCHAR
STARTCHAR Eth
ENCODING 208
SWIDTH 795 0
DWIDTH 31 0
BBX 30 27 0 0
BITMAP
0FFFF000
0FFFFC00
0FFFFF00
0FFFFF80
0F803FC0
0F8007E0
0F8003F0
0F8001F0
0F8000F8
0F8000F8
0F800078
0F80007C
FFFF807C
FFFF807C
FFFF807C
0F80007C
0F800078
0F8000F8
0F8000F8
0F8001F0
0F8003F0
0F8007E0
0F801FC0
0FFFFF80
0FFFFF00
0FFFFC00
0FFFE000
ENDCHAR
STARTCHAR Ntilde
ENCODING 209
SWIDTH 792 0
DWIDTH 31 0
BBX 23 36 4 0
BITMAP
01E1C0
03F1C0
03FFC0
039F80
038F80
000000
000000
000000
000000
F0001E
F8001E
FC001E
FE001E
FF001E
FF001E
FF801E
FFC01E
F7E01E
F3E01E
F3F01E
F1F81E
F0FC1E
F07C1E
F07E1E
F03F1E
F01F9E
F00F9E
F00FDE
F007FE
F003FE
F001FE
F001FE
F000FE
F0007E
F0003E
F0003E
ENDCHAR
STARTCHAR Ograve
ENCODING 210
SWIDTH 810 0
DWIDTH 32 0
BBX 29 37 1 -1
BITMAP
00080000
003C0000
007C0000
003E0000
001F0000
000F8000
00000000
00000000
00000000
001FE000
00FFFC00
03FFFE00
07FFFF80
0FF07FC0
1FC00FC0
1F0007E0
3E0003F0
7E0001F0
7C0001F8
7C0000F8
780000F8
F80000F8
F8000078
F8000078
F80000F8
780000F8
7C0000F8
7C0000F8
7E0001F0
3F0003F0
1F8007E0
1FC00FC0
0FF03FC0
07FFFF00
03FFFE00
00FFF800
001FE000
ENDCHAR
STARTCHAR Oacute
ENCODING 211
SWIDTH 810 0
DWIDTH 32 0
BBX 29 36 1 -1
BITMAP
0001E000
0001F000
0003E000
0007C000
000F8000
00000000
00000000
00000000
001FE000
00FFFC00
03FFFE00
07FFFF80
0FF07FC0
1FC00FC0
1F0007E0
3E0003F0
7E0001F0
7C0001F8
7C0000F8
780000F8
F80000F8
F8000078
F8000078
F80000F8
780000F8
7C0000F8
7C0000F8
7E0001F0
3F0003F0
1F8007E0
1FC00FC0
0FF03FC0
07FFFF00
03FFFE00
00FFF800
001FE000
ENDCHAR
STARTCHAR Ocircumflex
ENCODING 212
SWIDTH 810 0
DWIDTH 32 0
BBX 29 36 1 -1
BITMAP
000F8000
001FC000
003DE000
0038F000
00787000
00000000
00000000
00000000
001FE000
00FFFC00
03FFFE00
07FFFF80
0FF07FC0
1FC00FC0
1F0007E0
3E0003F0
7E0001F0
7C0001F8
7C0000F8
780000F8
F80000F8
F8000078
F8000078
F80000F8
780000F8
7C0000F8
7C0000F8
7E0001F0
3F0003F0
1F8007E0
1FC00FC0
0FF03FC0
07FFFF00
03FFFE00
00FFF800
001FE000
ENDCHAR
STARTCHAR Otilde
ENCODING 213
SWIDTH 810 0
DWIDTH 32 0
BBX 29 37 1 -1
BITMAP
003C0000
007E3800
007F7800
00F7F800
00E3F000
0000E000
00000000
00000000
00000000
001FE000
00FFFC00
03FFFE00
07FFFF80
0FF07FC0
1FC00FC0
1F0007E0
3E0003F0
7E0001F0
7C0001F8
7C0000F8
780000F8
F80000F8
F8000078
F8000078
F80000F8
780000F8
7C0000F8
7C0000F8
7E0001F0
3F0003F0
1F8007E0
1FC00FC0
0FF03FC0
07FFFF00
03FFFE00
00FFF800
001FE000
ENDCHAR
STARTCHAR Odieresis
ENCODING 214
SWIDTH 810 0
DWIDTH 32 0
BBX 29 36 1 -1
BITMAP
00387000
0078F000
007CF000
0078F000
00306000
00000000
00000000
00000000
001FE000
00FFFC00
03FFFE00
07FFFF80
0FF07FC0
1FC00FC0
1F0007E0
3E0003F0
7E0001F0
7C0001F8
7C0000F8
780000F8
F80000F8
F8000078
F8000078
F80000F8
780000F8
7C0000F8
7C0000F8
7E0001F0
3F0003F0
1F8007E0
1FC00FC0
0FF03FC0
07FFFF00
03FFFE00
00FFF800
001FE000
ENDCHAR
STARTCHAR multiply
ENCODING 215
SWIDTH 498 0
DWIDTH 19 0
BBX 13 14 3 6
BITMAP
4010
E038
F078
78F0
3DE0
1FC0
0F80
0F80
1FC0
3DE0
78F0
F078
E038
4010
ENDCHAR
STARTCHAR Oslash
ENCODING 216
SWIDTH 810 0
DWIDTH 32 0
BBX 29 32 1 -3
BITMAP
000000C0
000001C0
001FE380
00FFFF00
03FFFF00
07FFFF80
0FF07FC0
1FC01FE0
1F003FE0
3E0033F0
7E0071F0
7C00E1F8
7C00C0F8
7801C0F8
F80380F8
F8030078
F8070078
F80E00F8
780C00F8
7C1C00F8
7C3800F8
7E3001F0
3F7003F0
3FE007E0
1FE00FC0
0FF03FC0
07FFFF00
03FFFE00
07FFF800
061FE000
0E000000
1C000000
ENDCHAR
STARTCHAR Ugrave
ENCODING 217
SWIDTH 764 0
DWIDTH 30 0
BBX 24 36 3 -1
BITMAP
01E000
03F000
01F800
00F800
003C00
000000
000000
000000
F8001F
F8001F
F8001F
F8001F
F8001F
F8001F
F8001F
F8001F
F8001F
F8001F
F8001F
F8001F
F8001F
F8001F
F8001F
F8001F
F8001F
F8001F
F8001F
F8001F
7C003E
7C003E
7E007C
3FC1FC
1FFFF8
0FFFF0
07FFC0
00FF00
ENDCHAR
STARTCHAR Uacute
ENCODING 218
SWIDTH 764 0
DWIDTH 30 0
BBX 24 37 3 -1
BITMAP
000400
000700
000FC0
001F00
003E00
003C00
000000
000000
000000
F8001F
F8001F
F8001F
F8001F
F8001F
F8001F
F8001F
F8001F
F8001F
F8001F
F8001F
F8001F
F8001F
F8001F
F8001F
F8001F
F8001F
F8001F
F8001F
F8001F
7C003E
7C003E
7E007C
3FC1FC
1FFFF8
0FFFF0
07FFC0
00FF00
ENDCHAR
STARTCHAR Ucircumflex
ENCODING 219
SWIDTH 764 0
DWIDTH 30 0
BBX 24 36 3 -1
BITMAP
007E00
00FE00
00E700
01E780
03C3C0
000000
000000
000000
F8001F
F8001F
F8001F
F8001F
F8001F
F8001F
F8001F
F8001F
F8001F
F8001F
F8001F
F8001F
F8001F
F8001F
F8001F
F8001F
F8001F
F8001F
F8001F
F8001F
7C003E
7C003E
7E007C
3FC1FC
1FFFF8
0FFFF0
07FFC0
00FF00
ENDCHAR
STARTCHAR Udieresis
ENCODING 220
SWIDTH 764 0
DWIDTH 30 0
BBX 24 36 3 -1
BITMAP
01C380
03E7C0
03E7C0
03E7C0
01C380
000000
000000
000000
F8001F
F8001F
F8001F
F8001F
F8001F
F8001F
F8001F
F8001F
F8001F
F8001F
F8001F
F8001F
F8001F
F8001F
F8001F
F8001F
F8001F
F8001F
F8001F
F8001F
7C003E
7C003E
7E007C
3FC1FC
1FFFF8
0FFFF0
07FFC0
00FF00
ENDCHAR
STARTCHAR Yacute
ENCODING 221
SWIDTH 637 0
DWIDTH 25 0
BBX 25 36 0 0
BITMAP
00020000
00078000
000FC000
000F8000
001F0000
003C0000
00000000
00000000
00000000
F8000F80
7C001F00
7C001E00
3E003E00
1E007C00
1F007C00
0F80F800
0F80F800
07C1F000
07C1F000
03E3E000
03F7C000
01F7C000
00FF8000
00FF8000
007F0000
007F0000
003E0000
003E0000
003E0000
003E0000
003E0000
003E0000
003E0000
003E0000
003E0000
003E0000
ENDCHAR
STARTCHAR Thorn
ENCODING 222
SWIDTH 678 0
DWIDTH 26 0
BBX 21 27 4 0
BITMAP
F00000
F00000
F00000
F00000
FFFE00
FFFF80
FFFFE0
FFFFF0
F003F0
F000F8
F000F8
F00078
F00078
F00078
F00078
F000F8
F001F8
F003F0
FFFFF0
FFFFE0
FFFF80
FFFC00
F00000
F00000
F00000
F00000
F00000
ENDCHAR
STARTCHAR germandbls
ENCODING 223
SWIDTH 654 0
DWIDTH 26 0
BBX 21 30 3 0
BITMAP
01FC00
0FFF00
1FFF80
3FFFC0
7E07C0
7C03E0
7803E0
F801E0
F801E0
F801E0
F003E0
F003C0
F007C0
F03F80
F07E00
F07F80
F07FC0
F007E0
F001F0
F000F0
F000F8
F000F8
F000F8
F000F0
F001F0
F003F0
F01FE0
F0FFC0
F0FF80
F0FC00
ENDCHAR
STARTCHAR agrave
ENCODING 224
SWIDTH 586 0
DWIDTH 23 0
BBX 18 31 2 -1
BITMAP
010000
0F8000
1F8000
07C000
03E000
000000
000000
000000
03F800
1FFE00
7FFF00
7FFF80
380FC0
2007C0
0007C0
0003C0
0003C0
0FFFC0
3FFFC0
7FFFC0
FC03C0
F003C0
F003C0
F003C0
F007C0
F007C0
F81FC0
FFFFC0
7FFFC0
3FF3C0
0FC000
ENDCHAR
STARTCHAR aacute
ENCODING 225
SWIDTH 586 0
DWIDTH 23 0
BBX 18 31 2 -1
BITMAP
003000
003C00
007E00
00F800
01F000
000000
000000
000000
03F800
1FFE00
7FFF00
7FFF80
380FC0
2007C0
0007C0
0003C0
0003C0
0FFFC0
3FFFC0
7FFFC0
FC03C0
F003C0
F003C0
F003C0
F007C0
F007C0
F81FC0
FFFFC0
7FFFC0
3FF3C0
0FC000
ENDCHAR
STARTCHAR acircumflex
ENCODING 226
SWIDTH 586 0
DWIDTH 23 0
BBX 18 31 2 -1
BITMAP
01F000
03F000
07B800
073C00
0F1E00
1E0E00
000000
000000
03F800
1FFE00
7FFF00
7FFF80
380FC0
2007C0
0007C0
0003C0
0003C0
0FFFC0
3FFFC0
7FFFC0
FC03C0
F003C0
F003C0
F003C0
F007C0
F007C0
F81FC0
FFFFC0
7FFFC0
3FF3C0
0FC000
ENDCHAR
STARTCHAR atilde
ENCODING 227
SWIDTH 586 0
DWIDTH 23 0
BBX 18 31 2 -1
BITMAP
000700
0F8700
0FCE00
1FFE00
1CFC00
003800
000000
000000
03F800
1FFE00
7FFF00
7FFF80
380FC0
2007C0
0007C0
0003C0
0003C0
0FFFC0
3FFFC0
7FFFC0
FC03C0
F003C0
F003C0
F003C0
F007C0
F007C0
F81FC0
FFFFC0
7FFFC0
3FF3C0
0FC000
ENDCHAR
STARTCHAR adieresis
ENCODING 228
SWIDTH 586 0
DWIDTH 23 0
BBX 18 31 2 -1
BITMAP
0E1C00
0F1E00
1F3E00
0F1E00
0E1C00
000000
000000
000000
03F800
1FFE00
7FFF00
7FFF80
380FC0
2007C0
0007C0
0003C0
0003C0
0FFFC0
3FFFC0
7FFFC0
FC03C0
F003C0
F003C0
F003C0
F007C0
F007C0
F81FC0
FFFFC0
7FFFC0
3FF3C0
0FC000
ENDCHAR
STARTCHAR aring
ENCODING 229
SWIDTH 586 0
DWIDTH 23 0
BBX 18 33 2 -1
BITMAP
01E000
03F800
071800
060C00
060C00
060C00
071800
03F800
01E000
000000
03F800
1FFE00
7FFF00
7FFF80
380FC0
2007C0
0007C0
0003C0
0003C0
0FFFC0
3FFFC0
7FFFC0
FC03C0
F003C0
F003C0
F003C0
F007C0
F007C0
F81FC0
FFFFC0
7FFFC0
3FF3C0
0FC000
ENDCHAR
STARTCHAR ae
ENCODING 230
SWIDTH 975 0
DWIDTH 38 0
BBX 35 23 2 -1
BITMAP
03F807F000
1FFF1FFC00
7FFFBFFE00
7FFFFE3F00
780FF80F80
2007F00780
0007E007C0
0003E003C0
0003E003C0
0003C003E0
0FFFFFFFE0
3FFFFFFFE0
7F03C00000
F803C00000
F003E00000
F003E00000
F007E00000
F007F00300
F80EFC0F00
FC3E7FFF80
7FFC3FFF00
3FF81FFE00
0FC007F000
ENDCHAR
STARTCHAR ccedilla
ENCODING 231
SWIDTH 564 0
DWIDTH 22 0
BBX 19 31 1 -9
BITMAP
01FE00
07FF80
0FFFE0
1FFFE0
3F03E0
3E00C0
7C0000
7C0000
780000
F80000
F80000
F80000
F80000
780000
7C0000
7C0000
7E00C0
3F01E0
1FFFE0
0FFFC0
07FF80
01FE00
007000
007000
00F800
001C00
001C00
001C00
01BC00
01F800
01F000
ENDCHAR
STARTCHAR egrave
ENCODING 232
SWIDTH 588 0
DWIDTH 23 0
BBX 21 31 1 -1
BITMAP
008000
03C000
07E000
03F000
00F000
000800
000000
000000
00FE00
07FF80
0FFFC0
1FFFE0
3F03E0
3E01F0
7C00F0
7800F0
7800F0
780078
FFFFF8
FFFFF8
FFFFF8
F80000
780000
7C0000
7C0000
3E00C0
3F01E0
1FFFF0
0FFFC0
07FF80
01FE00
ENDCHAR
STARTCHAR eacute
ENCODING 233
SWIDTH 588 0
DWIDTH 23 0
BBX 21 31 1 -1
BITMAP
000800
001F00
003F00
003E00
007800
000000
000000
000000
00FE00
07FF80
0FFFC0
1FFFE0
3F03E0
3E01F0
7C00F0
7800F0
7800F0
780078
FFFFF8
FFFFF8
FFFFF8
F80000
780000
7C0000
7C0000
3E00C0
3F01E0
1FFFF0
0FFFC0
07FF80
01FE00
ENDCHAR
STARTCHAR ecircumflex
ENCODING 234
SWIDTH 588 0
DWIDTH 23 0
BBX 21 31 1 -1
BITMAP
00F800
00FC00
01DE00
03CE00
078F00
070780
000000
000000
00FE00
07FF80
0FFFC0
1FFFE0
3F03E0
3E01F0
7C00F0
7800F0
7800F0
780078
FFFFF8
FFFFF8
FFFFF8
F80000
780000
7C0000
7C0000
3E00C0
3F01E0
1FFFF0
0FFFC0
07FF80
01FE00
ENDCHAR
STARTCHAR edieresis
ENCODING 235
SWIDTH 588 0
DWIDTH 23 0
BBX 21 31 1 -1
BITMAP
038700
078F00
07CF00
078F00
038600
000000
000000
000000
00FE00
07FF80
0FFFC0
1FFFE0
3F03E0
3E01F0
7C00F0
7800F0
7800F0
780078
FFFFF8
FFFFF8
FFFFF8
F80000
780000
7C0000
7C0000
3E00C0
3F01E0
1FFFF0
0FFFC0
07FF80
01FE00
ENDCHAR
STARTCHAR igrave
ENCODING 236
SWIDTH 284 0
DWIDTH 11 0
BBX 8 30 0 0
BITMAP
10
F8
FC
7C
3E
1F
00
00
00
1F
1F
1F
1F
1F
1F
1F
1F
1F
1F
1F
1F
1F
1F
1F
1F
1F
1F
1F
1F
1F
ENDCHAR
STARTCHAR iacute
ENCODING 237
SWIDTH 284 0
DWIDTH 11 0
BBX 8 30 3 0
BITMAP
08
1E
3F
3E
7C
F0
00
00
00
F8
F8
F8
F8
F8
F8
F8
F8
F8
F8
F8
F8
F8
F8
F8
F8
F8
F8
F8
F8
F8
ENDCHAR
STARTCHAR icircumflex
ENCODING 238
SWIDTH 284 0
DWIDTH 11 0
BBX 13 30 -1 0
BITMAP
0F80
1FC0
1DC0
3CE0
78F0
F078
0000
0000
0000
0F80
0F80
0F80
0F80
0F80
0F80
0F80
0F80
0F80
0F80
0F80
0F80
0F80
0F80
0F80
0F80
0F80
0F80
0F80
0F80
0F80
ENDCHAR
STARTCHAR idieresis
ENCODING 239
SWIDTH 284 0
DWIDTH 11 0
BBX 11 30 0 0
BITMAP
70E0
F1E0
F1E0
F1E0
60C0
0000
0000
0000
0000
1F00
1F00
1F00
1F00
1F00
1F00
1F00
1F00
1F00
1F00
1F00
1F00
1F00
1F00
1F00
1F00
1F00
1F00
1F00
1F00
1F00
ENDCHAR
STARTCHAR eth
ENCODING 240
SWIDTH 590 0
DWIDTH 23 0
BBX 21 31 1 -1
BITMAP
030000
07C000
0FE040
03F3C0
01FFE0
00FF00
03FE00
0FFF00
070F80
0007C0
0007C0
0003E0
0001E0
07F9F0
0FFEF0
1FFFF0
3F07F0
7C03F8
7801F8
7800F8
F800F8
F800F8
F800F0
7800F0
7C01F0
7C03F0
7F07E0
3FFFC0
1FFF80
0FFF00
01FC00
ENDCHAR
STARTCHAR ntilde
ENCODING 241
SWIDTH 663 0
DWIDTH 26 0
BBX 20 30 3 0
BITMAP
000380
03C380
07E700
0FFF00
0E3E00
001C00
000000
000000
007F00
F9FF80
FBFFC0
FFFFE0
FF8FF0
FE03F0
FC01F0
FC01F0
F800F0
F800F0
F800F0
F800F0
F800F0
F800F0
F800F0
F800F0
F800F0
F800F0
F800F0
F800F0
F800F0
F800F0
ENDCHAR
STARTCHAR ograve
ENCODING 242
SWIDTH 625 0
DWIDTH 24 0
BBX 22 31 1 -1
BITMAP
00C000
03E000
07E000
01F000
00F800
000000
000000
000000
00FE00
07FF80
0FFFC0
1FFFE0
3F03F0
3E01F8
7C00F8
7C007C
78007C
78007C
F8007C
F8003C
F8007C
78007C
78007C
7C0078
7C00F8
3E01F8
3F03F0
1FFFE0
0FFFC0
07FF80
00FE00
ENDCHAR
STARTCHAR oacute
ENCODING 243
SWIDTH 625 0
DWIDTH 24 0
BBX 22 31 1 -1
BITMAP
000C00
000F00
001F80
003E00
007C00
000000
000000
000000
00FE00
07FF80
0FFFC0
1FFFE0
3F03F0
3E01F8
7C00F8
7C007C
78007C
78007C
F8007C
F8003C
F8007C
78007C
78007C
7C0078
7C00F8
3E01F8
3F03F0
1FFFE0
0FFFC0
07FF80
00FE00
ENDCHAR
STARTCHAR ocircumflex
ENCODING 244
SWIDTH 625 0
DWIDTH 24 0
BBX 22 31 1 -1
BITMAP
007C00
00FC00
01FE00
01CF00
038780
078380
000000
000000
00FE00
07FF80
0FFFC0
1FFFE0
3F03F0
3E01F8
7C00F8
7C007C
78007C
78007C
F8007C
F8003C
F8007C
78007C
78007C
7C0078
7C00F8
3E01F8
3F03F0
1FFFE0
0FFFC0
07FF80
00FE00
ENDCHAR
STARTCHAR otilde
ENCODING 245
SWIDTH 625 0
DWIDTH 24 0
BBX 22 31 1 -1
BITMAP
000180
03E180
03F380
07FF80
073F80
000F00
000000
000000
00FE00
07FF80
0FFFC0
1FFFE0
3F03F0
3E01F8
7C00F8
7C007C
78007C
78007C
F8007C
F8003C
F8007C
78007C
78007C
7C0078
7C00F8
3E01F8
3F03F0
1FFFE0
0FFFC0
07FF80
00FE00
ENDCHAR
STARTCHAR odieresis
ENCODING 246
SWIDTH 625 0
DWIDTH 24 0
BBX 22 31 1 -1
BITMAP
038700
03CF80
07CF80
03C780
038700
000000
000000
000000
00FE00
07FF80
0FFFC0
1FFFE0
3F03F0
3E01F8
7C00F8
7C007C
78007C
78007C
F8007C
F8003C
F8007C
78007C
78007C
7C0078
7C00F8
3E01F8
3F03F0
1FFFE0
0FFFC0
07FF80
00FE00
ENDCHAR
STARTCHAR divide
ENCODING 247
SWIDTH 498 0
DWIDTH 19 0
BBX 17 19 1 3
BITMAP
01C000
03E000
03E000
03E000
01C000
000000
000000
000000
FFFF80
FFFF80
FFFF80
000000
000000
000000
01C000
03E000
03E000
03E000
01C000
ENDCHAR
STARTCHAR oslash
ENCODING 248
SWIDTH 625 0
DWIDTH 24 0
BBX 22 31 1 -5
BITMAP
000060
000060
0000C0
0000C0
00FF80
07FF80
0FFFE0
1FFFF0
3F07F0
3E06F8
7C0CF8
780C7C
780C7C
78183C
F8183C
F8303C
F8303C
F8603C
78607C
78C078
7CC078
3EC0F8
3F81F0
1FEFE0
0FFFC0
07FF80
06FE00
060000
0C0000
0C0000
180000
ENDCHAR
STARTCHAR ugrave
ENCODING 249
SWIDTH 653 0
DWIDTH 25 0
BBX 19 31 3 -1
BITMAP
010000
0F8000
0F8000
07C000
03E000
01F000
000000
000000
000000
F001E0
F001E0
F001E0
F001E0
F001E0
F001E0
F001E0
F001E0
F001E0
F001E0
F001E0
F001E0
F001E0
F003E0
F003E0
F807E0
FC07E0
FE1FE0
7FFDE0
7FFDE0
3FF1E0
0FC000
ENDCHAR
STARTCHAR uacute
ENCODING 250
SWIDTH 653 0
DWIDTH 25 0
BBX 19 31 3 -1
BITMAP
001000
003C00
007E00
00FC00
00F000
01E000
000000
000000
000000
F001E0
F001E0
F001E0
F001E0
F001E0
F001E0
F001E0
F001E0
F001E0
F001E0
F001E0
F001E0
F001E0
F003E0
F003E0
F807E0
FC07E0
FE1FE0
7FFDE0
7FFDE0
3FF1E0
0FC000
ENDCHAR
STARTCHAR ucircumflex
ENCODING 251
SWIDTH 653 0
DWIDTH 25 0
BBX 19 31 3 -1
BITMAP
01F000
03F800
03B800
073C00
0F1E00
1E0E00
000000
000000
000000
F001E0
F001E0
F001E0
F001E0
F001E0
F001E0
F001E0
F001E0
F001E0
F001E0
F001E0
F001E0
F001E0
F003E0
F003E0
F807E0
FC07E0
FE1FE0
7FFDE0
7FFDE0
3FF1E0
0FC000
ENDCHAR
STARTCHAR udieresis
ENCODING 252
SWIDTH 653 0
DWIDTH 25 0
BBX 19 31 3 -1
BITMAP
061C00
0F1E00
0F3E00
0F1E00
061C00
000000
000000
000000
000000
F001E0
F001E0
F001E0
F001E0
F001E0
F001E0
F001E0
F001E0
F001E0
F001E0
F001E0
F001E0
F001E0
F003E0
F003E0
F807E0
FC07E0
FE1FE0
7FFDE0
7FFDE0
3FF1E0
0FC000
ENDCHAR
STARTCHAR yacute
ENCODING 253
SWIDTH 531 0
DWIDTH 21 0
BBX 21 39 0 -9
BITMAP
000800
001E00
003F00
003E00
007C00
00F000
000000
000000
000000
F800F8
F800F0
7800F0
7C01F0
3C01E0
3E01E0
3E03C0
1E03C0
1F07C0
0F0780
0F0780
0F8F80
078F00
078F00
03DE00
03DE00
03FE00
01FC00
01FC00
01FC00
00F800
00F800
00F000
00F000
01F000
63E000
7FE000
FFC000
FF8000
3E0000
ENDCHAR
STARTCHAR thorn
ENCODING 254
SWIDTH 680 0
DWIDTH 27 0
BBX 21 37 4 -8
BITMAP
F00000
F00000
F00000
F00000
F00000
F00000
F00000
F0FE00
F3FF80
F7FFC0
FFFFE0
FE07E0
FC03F0
F801F0
F800F8
F000F8
F000F8
F00078
F00078
F00078
F000F8
F000F8
F800F8
F801F0
FC03F0
FF07F0
FFFFE0
F7FFC0
F3FF80
F0FE00
F00000
F00000
F00000
F00000
F00000
F00000
F00000
ENDCHAR
STARTCHAR ydieresis
ENCODING 255
SWIDTH 531 0
DWIDTH 21 0
BBX 21 39 0 -9
BITMAP
038E00
078F00
078F00
078F00
030600
000000
000000
000000
000000
F800F8
F800F0
7800F0
7C01F0
3C01E0
3E01E0
3E03C0
1E03C0
1F07C0
0F0780
0F0780
0F8F80
078F00
078F00
03DE00
03DE00
03FE00
01FC00
01FC00
01FC00
00F800
00F800
00F000
00F000
01F000
63E000
7FE000
FFC000
FF8000
3E0000
ENDCHAR
STARTCHAR Amacron
ENCODING 256
SWIDTH 738 0
DWIDTH 29 0
BBX 29 34 0 0
BITMAP
007FE000
007FE000
007FE000
00000000
00000000
00000000
00000000
000F8000
001F8000
001FC000
001FC000
003FE000
003DE000
007DF000
0079F000
00F8F800
00F0F800
01F07800
01E07C00
01E03C00
03E03E00
03C03E00
07C01F00
07801F00
0FFFFF80
0FFFFF80
1FFFFF80
1FFFFFC0
3E0007C0
3E0003E0
3C0003E0
7C0001F0
780001F0
F80000F8
ENDCHAR
STARTCHAR amacron
ENCODING 257
SWIDTH 586 0
DWIDTH 23 0
BBX 18 30 2 -1
BITMAP
0FFC00
0FFC00
0FFC00
000000
000000
000000
000000
03F800
1FFE00
7FFF00
7FFF80
380FC0
2007C0
0007C0
0003C0
0003C0
0FFFC0
3FFFC0
7FFFC0
FC03C0
F003C0
F003C0
F003C0
F007C0
F007C0
F81FC0
FFFFC0
7FFFC0
3FF3C0
0FC000
ENDCHAR
STARTCHAR Abreve
ENCODING 258
SWIDTH 738 0
DWIDTH 29 0
BBX 29 36 0 0
BITMAP
00707000
00707000
0078F000
003FE000
001FC000
000F8000
00000000
00000000
00000000
000F8000
001F8000
001FC000
001FC000
003FE000
003DE000
007DF000
0079F000
00F8F800
00F0F800
01F07800
01E07C00
01E03C00
03E03E00
03C03E00
07C01F00
07801F00
0FFFFF80
0FFFFF80
1FFFFF80
1FFFFFC0
3E0007C0
3E0003E0
3C0003E0
7C0001F0
780001F0
F80000F8
ENDCHAR
STARTCHAR abreve
ENCODING 259
SWIDTH 586 0
DWIDTH 23 0
BBX 18 31 2 -1
BITMAP
0E0E00
0E1E00
0F1C00
07FC00
03F800
004000
000000
000000
03F800
1FFE00
7FFF00
7FFF80
380FC0
2007C0
0007C0
0003C0
0003C0
0FFFC0
3FFFC0
7FFFC0
FC03C0
F003C0
F003C0
F003C0
F007C0
F007C0
F81FC0
FFFFC0
7FFFC0
3FF3C0
0FC000
ENDCHAR
STARTCHAR Aogonek
ENCODING 260
SWIDTH 738 0
DWIDTH 29 0
BBX 30 36 0 -9
BITMAP
000F8000
001FC000
001FC000
001FC000
003FE000
003DE000
007DF000
0079F000
00F8F800
00F0F800
01F07C00
01E07C00
01E03C00
03E03E00
03C03E00
07C01F00
07801F00
0FFFFF80
0FFFFF80
1FFFFF80
1FFFFFC0
3E0007C0
3E0003E0
3C0003E0
7C0001F0
780001F0
F80000F8
00000060
000000E0
000000C0
000000C0
000001C0
000001C8
000001FC
000000F8
000000F0
ENDCHAR
STARTCHAR aogonek
ENCODING 261
SWIDTH 590 0
DWIDTH 23 0
BBX 19 31 2 -9
BITMAP
03F800
1FFE00
7FFF00
7FFF80
380FC0
2007C0
0007C0
0003C0
0003C0
0FFFC0
3FFFC0
7FFFC0
FC03C0
F003C0
F003C0
F003C0
F007C0
F00FC0
F81FC0
FFFFC0
7FFFC0
3FF3C0
0FC380
000300
000700
000600
000600
000E40
0007E0
0007E0
000380
ENDCHAR
STARTCHAR Cacute
ENCODING 262
SWIDTH 697 0
DWIDTH 27 0
BBX 25 36 1 -1
BITMAP
0003C000
0007E000
0007C000
000F8000
001F0000
00000000
00000000
00000000
001FC000
00FFF800
03FFFE00
07FFFF00
0FF07F80
1FC00F00
1F000600
3E000000
7E000000
7C000000
7C000000
78000000
F8000000
F8000000
F8000000
F8000000
78000000
7C000000
7C000000
7E000000
3F000000
3F800600
1FC00F00
0FF87F80
07FFFF00
03FFFE00
00FFF800
001FC000
ENDCHAR
STARTCHAR cacute
ENCODING 263
SWIDTH 564 0
DWIDTH 22 0
BBX 19 31 1 -1
BITMAP
000800
001F00
003F00
003E00
007C00
000000
000000
000000
00FE00
07FF80
0FFFE0
1FFFE0
3F83E0
3E00C0
7C0000
7C0000
780000
780000
F80000
F80000
F80000
F80000
780000
7C0000
7C0000
3E00C0
3F03E0
1FFFE0
0FFFC0
07FF80
01FE00
ENDCHAR
STARTCHAR Ccircumflex
ENCODING 264
SWIDTH 697 0
DWIDTH 27 0
BBX 25 36 1 -1
BITMAP
001F0000
003F8000
007BC000
0071E000
00E0E000
00000000
00000000
00000000
001FC000
00FFF800
03FFFE00
07FFFF00
0FF07F80
1FC00F00
1F000600
3E000000
7E000000
7C000000
7C000000
78000000
F8000000
F8000000
F8000000
F8000000
78000000
7C000000
7C000000
7E000000
3F000000
3F800600
1FC00F00
0FF87F80
07FFFF00
03FFFE00
00FFF800
001FC000
ENDCHAR
STARTCHAR ccircumflex
ENCODING 265
SWIDTH 564 0
DWIDTH 22 0
BBX 19 31 1 -1
BITMAP
00F800
00FC00
01FE00
03CE00
038700
070780
000000
000000
00FE00
07FF80
0FFFE0
1FFFE0
3F83E0
3E00C0
7C0000
7C0000
780000
780000
F80000
F80000
F80000
F80000
780000
7C0000
7C0000
3E00C0
3F03E0
1FFFE0
0FFFC0
07FF80
01FE00
ENDCHAR
STARTCHAR Cdotaccent
ENCODING 266
SWIDTH 697 0
DWIDTH 27 0
BBX 25 36 1 -1
BITMAP
000E0000
001F0000
001F0000
001F0000
000E0000
00000000
00000000
00000000
001FC000
00FFF800
03FFFE00
07FFFF00
0FF07F80
1FC00F00
1F000600
3E000000
7E000000
7C000000
7C000000
78000000
F8000000
F8000000
F8000000
F8000000
78000000
7C000000
7C000000
7E000000
3F000000
3F800600
1FC00F00
0FF87F80
07FFFF00
03FFFE00
00FFF800
001FC000
ENDCHAR
STARTCHAR cdotaccent
ENCODING 267
SWIDTH 564 0
DWIDTH 22 0
BBX 19 31 1 -1
BITMAP
007800
00F800
00F800
00F800
007000
000000
000000
000000
00FE00
07FF80
0FFFE0
1FFFE0
3F83E0
3E00C0
7C0000
7C0000
780000
780000
F80000
F80000
F80000
F80000
780000
7C0000
7C0000
3E00C0
3F03E0
1FFFE0
0FFFC0
07FF80
01FE00
ENDCHAR
STARTCHAR Ccaron
ENCODING 268
SWIDTH 697 0
DWIDTH 27 0
BBX 25 37 1 -1
BITMAP
01E0F000
00F1E000
007BC000
007B8000
003F8000
001F0000
00000000
00000000
00000000
001FC000
00FFF800
03FFFE00
07FFFF00
0FF07F80
1FC00F00
1F000600
3E000000
7E000000
7C000000
7C000000
78000000
F8000000
F8000000
F8000000
F8000000
78000000
7C000000
7C000000
7E000000
3F000000
3F800600
1FC00F00
0FF87F80
07FFFF00
03FFFE00
00FFF800
001FC000
ENDCHAR
STARTCHAR ccaron
ENCODING 269
SWIDTH 564 0
DWIDTH 22 0
BBX 19 31 1 -1
BITMAP
078780
078F00
03DE00
01FE00
00FC00
00F800
000000
000000
00FE00
07FF80
0FFFE0
1FFFE0
3F83E0
3E00C0
7C0000
7C0000
780000
780000
F80000
F80000
F80000
F80000
780000
7C0000
7C0000
3E00C0
3F03E0
1FFFE0
0FFFC0
07FF80
01FE00
ENDCHAR
STARTCHAR Dcaron
ENCODING 270
SWIDTH 775 0
DWIDTH 30 0
BBX 25 36 4 0
BITMAP
0F0F0000
078F0000
079E0000
03FC0000
01F80000
00F80000
00000000
00000000
00000000
FFFE0000
FFFFC000
FFFFE000
FFFFF800
F007FC00
F000FC00
F0007E00
F0003F00
F0001F00
F0001F00
F0000F80
F0000F80
F0000F80
F0000F80
F0000F80
F0000F80
F0000F80
F0001F00
F0001F00
F0003F00
F0007E00
F000FC00
F003FC00
FFFFF800
FFFFE000
FFFF8000
FFFE0000
ENDCHAR
STARTCHAR dcaron
ENCODING 271
SWIDTH 754 0
DWIDTH 29 0
BBX 29 30 1 -1
BITMAP
00003C78
00003C78
00003C78
00003C78
00003C78
00003C70
00003C70
01FC3C70
07FF3C00
0FFFBC00
1FFFBC00
3F03FC00
3E01FC00
7C00FC00
7C007C00
78007C00
78007C00
F8003C00
F8003C00
F8003C00
F8007C00
78007C00
7C007C00
7C00FC00
3E00FC00
3F03FC00
1FFFBC00
0FFFBC00
07FF3C00
01F80000
ENDCHAR
STARTCHAR Dcroat
ENCODING 272
SWIDTH 795 0
DWIDTH 31 0
BBX 30 27 0 0
BITMAP
0FFFF000
0FFFFC00
0FFFFF00
0FFFFF80
0F803FC0
0F8007E0
0F8003F0
0F8001F0
0F8000F8
0F8000F8
0F800078
0F80007C
FFFF807C
FFFF807C
FFFF807C
0F80007C
0F800078
0F8000F8
0F8000F8
0F8001F0
0F8003F0
0F8007E0
0F801FC0
0FFFFF80
0FFFFF00
0FFFFC00
0FFFE000
ENDCHAR
STARTCHAR dcroat
ENCODING 273
SWIDTH 681 0
DWIDTH 27 0
BBX 25 30 1 -1
BITMAP
00003C00
00003C00
0003FF80
0003FF80
0003FF80
00003C00
00003C00
01FC3C00
07FF3C00
0FFFBC00
1FFFBC00
3F03FC00
3E01FC00
7C00FC00
7C007C00
78007C00
78007C00
F8003C00
F8003C00
F8003C00
F8007C00
78007C00
7C007C00
7C00FC00
3E00FC00
3F03FC00
1FFFBC00
0FFFBC00
07FF3C00
01F80000
ENDCHAR
STARTCHAR Emacron
ENCODING 274
SWIDTH 656 0
DWIDTH 26 0
BBX 20 34 4 0
BITMAP
07FE00
07FE00
07FE00
000000
000000
000000
000000
FFFFE0
FFFFE0
FFFFE0
FFFFE0
F00000
F00000
F00000
F00000
F00000
F00000
F00000
FFFFC0
FFFFC0
FFFFC0
FFFFC0
F00000
F00000
F00000
F00000
F00000
F00000
F00000
F00000
FFFFF0
FFFFF0
FFFFF0
FFFFF0
ENDCHAR
STARTCHAR emacron
ENCODING 275
SWIDTH 588 0
DWIDTH 23 0
BBX 21 30 1 -1
BITMAP
03FF00
03FF00
03FF00
000000
000000
000000
000000
00FE00
07FF80
0FFFC0
1FFFE0
3F03E0
3E01F0
7C00F0
7800F0
7800F0
780078
FFFFF8
FFFFF8
FFFFF8
F80000
780000
7C0000
7C0000
3E00C0
3F01E0
1FFFF0
0FFFC0
07FF80
01FE00
ENDCHAR
STARTCHAR Ebreve
ENCODING 276
SWIDTH 656 0
DWIDTH 26 0
BBX 20 36 4 0
BITMAP
0E0E00
0F0E00
071E00
07FC00
03FC00
01F000
000000
000000
000000
FFFFE0
FFFFE0
FFFFE0
FFFFE0
F00000
F00000
F00000
F00000
F00000
F00000
F00000
FFFFC0
FFFFC0
FFFFC0
FFFFC0
F00000
F00000
F00000
F00000
F00000
F00000
F00000
F00000
FFFFF0
FFFFF0
FFFFF0
FFFFF0
ENDCHAR
STARTCHAR ebreve
ENCODING 277
SWIDTH 588 0
DWIDTH 23 0
BBX 21 31 1 -1
BITMAP
070700
078700
03CF00
03FE00
01FC00
002000
000000
000000
00FE00
07FF80
0FFFC0
1FFFE0
3F03E0
3E01F0
7C00F0
7800F0
7800F0
780078
FFFFF8
FFFFF8
FFFFF8
F80000
780000
7C0000
7C0000
3E00C0
3F01E0
1FFFF0
0FFFC0
07FF80
01FE00
ENDCHAR
STARTCHAR Edotaccent
ENCODING 278
SWIDTH 656 0
DWIDTH 26 0
BBX 20 35 4 0
BITMAP
00F000
01F000
01F000
01F000
00E000
000000
000000
000000
FFFFE0
FFFFE0
FFFFE0
FFFFE0
F00000
F00000
F00000
F00000
F00000
F00000
F00000
FFFFC0
FFFFC0
FFFFC0
FFFFC0
F00000
F00000
F00000
F00000
F00000
F00000
F00000
F00000
FFFFF0
FFFFF0
FFFFF0
FFFFF0
ENDCHAR
STARTCHAR edotaccent
ENCODING 279
SWIDTH 588 0
DWIDTH 23 0
BBX 21 31 1 -1
BITMAP
007800
00F800
00F800
00F800
007000
000000
000000
000000
00FE00
07FF80
0FFFC0
1FFFE0
3F03E0
3E01F0
7C00F0
7800F0
7800F0
780078
FFFFF8
FFFFF8
FFFFF8
F80000
780000
7C0000
7C0000
3E00C0
3F01E0
1FFFF0
0FFFC0
07FF80
01FE00
ENDCHAR
STARTCHAR Eogonek
ENCODING 280
SWIDTH 665 0
DWIDTH 26 0
BBX 20 36 4 -9
BITMAP
FFFFE0
FFFFE0
FFFFE0
FFFFE0
F00000
F00000
F00000
F00000
F00000
F00000
F00000
FFFFC0
FFFFC0
FFFFC0
FFFFC0
F00000
F00000
F00000
F00000
F00000
F00000
F00000
F00000
FFFFF0
FFFFF0
FFFFF0
FFFFF0
000180
000300
000300
000700
000600
000620
0007F0
0007E0
0003C0
ENDCHAR
STARTCHAR eogonek
ENCODING 281
SWIDTH 588 0
DWIDTH 23 0
BBX 21 30 1 -9
BITMAP
00FE00
07FF80
0FFFC0
1FFFE0
3F03E0
3E01F0
7C00F0
7800F0
780078
F80078
FFFFF8
FFFFF8
FFFFF8
780000
780000
7C0000
7E0040
3F01E0
1FFFF0
0FFFE0
07FFC0
01FD80
000380
000300
000300
000700
000720
0007F0
0007E0
0003C0
ENDCHAR
STARTCHAR Ecaron
ENCODING 282
SWIDTH 656 0
DWIDTH 26 0
BBX 20 36 4 0
BITMAP
1E0F00
0F1E00
07BC00
03BC00
03F800
01F000
000000
000000
000000
FFFFE0
FFFFE0
FFFFE0
FFFFE0
F00000
F00000
F00000
F00000
F00000
F00000
F00000
FFFFC0
FFFFC0
FFFFC0
FFFFC0
F00000
F00000
F00000
F00000
F00000
F00000
F00000
F00000
FFFFF0
FFFFF0
FFFFF0
FFFFF0
ENDCHAR
STARTCHAR ecaron
ENCODING 283
SWIDTH 588 0
DWIDTH 23 0
BBX 21 31 1 -1
BITMAP
0F0780
078F00
03DE00
01DC00
01FC00
00F800
000000
000000
00FE00
07FF80
0FFFC0
1FFFE0
3F03E0
3E01F0
7C00F0
7800F0
7800F0
780078
FFFFF8
FFFFF8
FFFFF8
F80000
780000
7C0000
7C0000
3E00C0
3F01E0
1FFFF0
0FFFC0
07FF80
01FE00
ENDCHAR
STARTCHAR Gcircumflex
ENCODING 284
SWIDTH 749 0
DWIDTH 29 0
BBX 25 37 1 -1
BITMAP
001F8000
001FC000
0039C000
0079E000
00F0F000
00000000
00000000
00000000
00000000
001FE000
00FFFC00
03FFFF80
07FFFF80
0FF03F80
1FC00F00
1F000200
3E000000
7E000000
7C000000
7C000000
78000000
F8000000
F8000000
F8000780
F8000780
78000780
7C000780
7C000780
7E000780
3F000780
3F800780
1FC00F80
0FF03F80
07FFFF80
03FFFF00
00FFFC00
001FE000
ENDCHAR
STARTCHAR gcircumflex
ENCODING 285
SWIDTH 640 0
DWIDTH 25 0
BBX 21 38 1 -8
BITMAP
007C00
00FE00
00EE00
01CF00
03C780
0783C0
000000
000000
01F800
07FE78
1FFF78
3FFFF8
3F03F8
7C01F8
7C00F8
7800F8
7800F8
F80078
F80078
F80078
7800F8
7800F8
7800F8
7C01F8
3E03F8
3FFFF8
1FFF78
0FFE78
03F878
0000F8
0000F8
0000F8
1001F0
1C03F0
3FFFE0
3FFFC0
0FFF00
03FC00
ENDCHAR
STARTCHAR Gbreve
ENCODING 286
SWIDTH 749 0
DWIDTH 29 0
BBX 25 38 1 -1
BITMAP
00707000
0070E000
0078E000
007FE000
003FC000
000F0000
00000000
00000000
00000000
00000000
001FE000
00FFFC00
03FFFF80
07FFFF80
0FF03F80
1FC00F00
1F000200
3E000000
7E000000
7C000000
7C000000
78000000
F8000000
F8000000
F8000780
F8000780
78000780
7C000780
7C000780
7E000780
3F000780
3F800780
1FC00F80
0FF03F80
07FFFF80
03FFFF00
00FFFC00
001FE000
ENDCHAR
STARTCHAR gbreve
ENCODING 287
SWIDTH 640 0
DWIDTH 25 0
BBX 21 38 1 -8
BITMAP
038380
03C380
01E700
01FF00
00FE00
001000
000000
000000
01F800
07FE78
1FFF78
3FFFF8
3F03F8
7C01F8
7C00F8
7800F8
7800F8
F80078
F80078
F80078
7800F8
7800F8
7800F8
7C01F8
3E03F8
3FFFF8
1FFF78
0FFE78
03F878
0000F8
0000F8
0000F8
1001F0
1C03F0
3FFFE0
3FFFC0
0FFF00
03FC00
ENDCHAR
STARTCHAR Gdotaccent
ENCODING 288
SWIDTH 749 0
DWIDTH 29 0
BBX 25 37 1 -1
BITMAP
000F0000
000F8000
001F8000
000F0000
00070000
00000000
00000000
00000000
00000000
001FE000
00FFFC00
03FFFF80
07FFFF80
0FF03F80
1FC00F00
1F000200
3E000000
7E000000
7C000000
7C000000
78000000
F8000000
F8000000
F8000780
F8000780
78000780
7C000780
7C000780
7E000780
3F000780
3F800780
1FC00F80
0FF03F80
07FFFF80
03FFFF00
00FFFC00
001FE000
ENDCHAR
STARTCHAR gdotaccent
ENCODING 289
SWIDTH 640 0
DWIDTH 25 0
BBX 21 38 1 -8
BITMAP
003800
007C00
007C00
007C00
003800
000000
000000
000000
01F800
07FE78
1FFF78
3FFFF8
3F03F8
7C01F8
7C00F8
7800F8
7800F8
F80078
F80078
F80078
7800F8
7800F8
7800F8
7C01F8
3E03F8
3FFFF8
1FFF78
0FFE78
03F878
0000F8
0000F8
0000F8
1001F0
1C03F0
3FFFE0
3FFFC0
0FFF00
03FC00
ENDCHAR
STARTCHAR Gcommaaccent
ENCODING 290
SWIDTH 749 0
DWIDTH 29 0
BBX 25 38 1 -11
BITMAP
001FE000
00FFFC00
03FFFF80
07FFFF80
0FF03F80
1FC00F00
1F000200
3E000000
7E000000
7C000000
7C000000
78000000
F8000000
F8000000
F8000780
F8000780
78000780
7C000780
7C000780
7E000780
3F000780
3F800780
1FC00F80
0FF03F80
07FFFF80
03FFFF00
00FFFC00
001FE000
00000000
00000000
000F0000
000F0000
000F0000
000F0000
00070000
000E0000
000C0000
001C0000
ENDCHAR
STARTCHAR gcommaaccent
ENCODING 291
SWIDTH 640 0
DWIDTH 25 0
BBX 21 40 1 -8
BITMAP
000C00
001C00
001800
003800
007C00
007C00
007C00
003800
000000
000000
01F800
07FE78
1FFF78
3FFFF8
3F03F8
7C01F8
7C00F8
7800F8
7800F8
F80078
F80078
F80078
7800F8
7800F8
7800F8
7C01F8
3E03F8
3FFFF8
1FFF78
0FFE78
03F878
0000F8
0000F8
0000F8
1001F0
1C03F0
3FFFE0
3FFFC0
0FFF00
03FC00
ENDCHAR
STARTCHAR Hcircumflex
ENCODING 292
SWIDTH 791 0
DWIDTH 31 0
BBX 23 35 4 0
BITMAP
007C00
00FE00
01EF00
01C780
03C380
000000
000000
000000
F0001E
F0001E
F0001E
F0001E
F0001E
F0001E
F0001E
F0001E
F0001E
F0001E
F0001E
F0001E
FFFFFE
FFFFFE
FFFFFE
FFFFFE
F0001E
F0001E
F0001E
F0001E
F0001E
F0001E
F0001E
F0001E
F0001E
F0001E
F0001E
ENDCHAR
STARTCHAR hcircumflex
ENCODING 293
SWIDTH 669 0
DWIDTH 26 0
BBX 23 37 0 0
BITMAP
1F0000
3F8000
7BC000
71E000
F0E000
000000
000000
000000
1F0000
1F0000
1F0000
1F0000
1F0000
1F0000
1F0000
1F0FE0
1F3FF8
1F7FFC
1FFFFC
1FF1FE
1FC07E
1F803E
1F801E
1F001E
1F001E
1F001E
1F001E
1F001E
1F001E
1F001E
1F001E
1F001E
1F001E
1F001E
1F001E
1F001E
1F001E
ENDCHAR
STARTCHAR Hbar
ENCODING 294
SWIDTH 851 0
DWIDTH 33 0
BBX 31 27 1 0
BITMAP
0F0001E0
0F0001E0
0F0001E0
0F0001E0
FFFFFFFE
FFFFFFFE
FFFFFFFE
0F0001E0
0F0001E0
0F0001E0
0F0001E0
0F0001E0
0FFFFFE0
0FFFFFE0
0FFFFFE0
0FFFFFE0
0F0001E0
0F0001E0
0F0001E0
0F0001E0
0F0001E0
0F0001E0
0F0001E0
0F0001E0
0F0001E0
0F0001E0
0F0001E0
ENDCHAR
STARTCHAR hbar
ENCODING 295
SWIDTH 669 0
DWIDTH 26 0
BBX 23 29 0 0
BITMAP
1F0000
1F0000
1F0000
FFF800
FFF800
FFF800
1F0000
1F0FE0
1F3FF8
1F7FFC
1FFFFC
1FF1FE
1FC07E
1F803E
1F801E
1F001E
1F001E
1F001E
1F001E
1F001E
1F001E
1F001E
1F001E
1F001E
1F001E
1F001E
1F001E
1F001E
1F001E
ENDCHAR
STARTCHAR Itilde
ENCODING 296
SWIDTH 302 0
DWIDTH 12 0
BBX 12 36 0 0
BITMAP
7870
FE70
FFF0
E7F0
E3E0
0000
0000
0000
0000
0F00
0F00
0F00
0F00
0F00
0F00
0F00
0F00
0F00
0F00
0F00
0F00
0F00
0F00
0F00
0F00
0F00
0F00
0F00
0F00
0F00
0F00
0F00
0F00
0F00
0F00
0F00
ENDCHAR
STARTCHAR itilde
ENCODING 297
SWIDTH 284 0
DWIDTH 11 0
BBX 13 30 -1 0
BITMAP
0038
3C38
7E78
7FF8
E3F0
E1E0
0000
0000
0000
0F80
0F80
0F80
0F80
0F80
0F80
0F80
0F80
0F80
0F80
0F80
0F80
0F80
0F80
0F80
0F80
0F80
0F80
0F80
0F80
0F80
ENDCHAR
STARTCHAR Imacron
ENCODING 298
SWIDTH 302 0
DWIDTH 12 0
BBX 10 34 1 0
BITMAP
FFC0
FFC0
FFC0
0000
0000
0000
0000
1E00
1E00
1E00
1E00
1E00
1E00
1E00
1E00
1E00
1E00
1E00
1E00
1E00
1E00
1E00
1E00
1E00
1E00
1E00
1E00
1E00
1E00
1E00
1E00
1E00
1E00
1E00
ENDCHAR
STARTCHAR imacron
ENCODING 299
SWIDTH 284 0
DWIDTH 11 0
BBX 10 28 1 0
BITMAP
FFC0
FFC0
FFC0
0000
0000
0000
0000
3E00
3E00
3E00
3E00
3E00
3E00
3E00
3E00
3E00
3E00
3E00
3E00
3E00
3E00
3E00
3E00
3E00
3E00
3E00
3E00
3E00
ENDCHAR
STARTCHAR Ibreve
ENCODING 300
SWIDTH 302 0
DWIDTH 12 0
BBX 11 36 0 0
BITMAP
E0E0
F0E0
71E0
7FE0
3FC0
1F00
0000
0000
0000
0F00
0F00
0F00
0F00
0F00
0F00
0F00
0F00
0F00
0F00
0F00
0F00
0F00
0F00
0F00
0F00
0F00
0F00
0F00
0F00
0F00
0F00
0F00
0F00
0F00
0F00
0F00
ENDCHAR
STARTCHAR ibreve
ENCODING 301
SWIDTH 284 0
DWIDTH 11 0
BBX 11 30 0 0
BITMAP
E0E0
E0E0
71C0
7FC0
3F80
0400
0000
0000
0000
1F00
1F00
1F00
1F00
1F00
1F00
1F00
1F00
1F00
1F00
1F00
1F00
1F00
1F00
1F00
1F00
1F00
1F00
1F00
1F00
1F00
ENDCHAR
STARTCHAR Iogonek
ENCODING 302
SWIDTH 302 0
DWIDTH 12 0
BBX 7 36 3 -9
BITMAP
78
78
78
78
78
78
78
78
78
78
78
78
78
78
78
78
78
78
78
78
78
78
78
78
78
78
78
30
60
60
E0
C0
C4
EE
FC
78
ENDCHAR
STARTCHAR iogonek
ENCODING 303
SWIDTH 267 0
DWIDTH 10 0
BBX 7 38 2 -9
BITMAP
78
7C
7C
7C
38
00
00
00
7C
7C
7C
7C
7C
7C
7C
7C
7C
7C
7C
7C
7C
7C
7C
7C
7C
7C
7C
7C
7C
30
30
60
60
E0
E4
FE
7C
38
ENDCHAR
STARTCHAR Idotaccent
ENCODING 304
SWIDTH 302 0
DWIDTH 12 0
BBX 6 35 3 0
BITMAP
78
F8
FC
78
70
00
00
00
78
78
78
78
78
78
78
78
78
78
78
78
78
78
78
78
78
78
78
78
78
78
78
78
78
78
78
ENDCHAR
STARTCHAR dotlessi
ENCODING 305
SWIDTH 284 0
DWIDTH 11 0
BBX 5 21 3 0
BITMAP
F8
F8
F8
F8
F8
F8
F8
F8
F8
F8
F8
F8
F8
F8
F8
F8
F8
F8
F8
F8
F8
ENDCHAR
STARTCHAR IJ
ENCODING 306
SWIDTH 801 0
DWIDTH 31 0
BBX 24 28 4 -1
BITMAP
F03FFF
F03FFF
F03FFF
F03FFF
F0000F
F0000F
F0000F
F0000F
F0000F
F0000F
F0000F
F0000F
F0000F
F0000F
F0000F
F0000F
F0000F
F0000F
F0000F
F0000F
F0001F
F0601F
F0701F
F0FEFE
F0FFFE
F07FFC
F03FF8
0007E0
ENDCHAR
STARTCHAR ij
ENCODING 307
SWIDTH 571 0
DWIDTH 22 0
BBX 16 38 3 -9
BITMAP
781F
F81F
F81F
F81F
700E
0000
0000
0000
F81F
F81F
F81F
F81F
F81F
F81F
F81F
F81F
F81F
F81F
F81F
F81F
F81F
F81F
F81F
F81F
F81F
F81F
F81F
F81F
F81F
001F
001F
001F
001F
023E
03FE
07FC
07F8
03F0
ENDCHAR
STARTCHAR Jcircumflex
ENCODING 308
SWIDTH 499 0
DWIDTH 19 0
BBX 16 36 0 -1
BITMAP
03F0
03F8
07BC
0F1C
0E1E
0000
0000
0000
3FFF
3FFF
3FFF
3FFF
000F
000F
000F
000F
000F
000F
000F
000F
000F
000F
000F
000F
000F
000F
000F
000F
000F
601F
781F
FFFF
FFFE
7FFC
1FF8
07E0
ENDCHAR
STARTCHAR jcircumflex
ENCODING 309
SWIDTH 274 0
DWIDTH 11 0
BBX 15 39 -4 -9
BITMAP
01F0
03F8
07B8
073C
0F1E
1E0E
0000
0000
0000
01F0
01F0
01F0
01F0
01F0
01F0
01F0
01F0
01F0
01F0
01F0
01F0
01F0
01F0
01F0
01F0
01F0
01F0
01F0
01F0
01F0
01F0
01F0
01F0
01F0
43E0
7FE0
7FE0
FFC0
3F00
ENDCHAR
STARTCHAR Kcommaaccent
ENCODING 310
SWIDTH 718 0
DWIDTH 28 0
BBX 23 37 4 -10
BITMAP
F0007C
F000F8
F001F0
F003E0
F007E0
F00FC0
F01F80
F03F00
F07E00
F0FC00
F1F800
F3F000
F3F800
F7FC00
FFFC00
FF7E00
FF3F00
FE1F00
FC1F80
F80FC0
F007E0
F003E0
F003F0
F001F8
F000FC
F0007C
F0007E
000000
000000
00E000
00F000
01F000
00F000
00E000
00E000
01C000
018000
ENDCHAR
STARTCHAR kcommaaccent
ENCODING 311
SWIDTH 595 0
DWIDTH 23 0
BBX 19 39 4 -10
BITMAP
F00000
F00000
F00000
F00000
F00000
F00000
F00000
F00000
F007C0
F00F80
F01F00
F03E00
F07C00
F0F800
F1F000
F3E000
F7E000
FFF000
FFF000
FEF800
FCF800
FC7C00
F87E00
F03E00
F01F00
F01F80
F00F80
F007C0
F007E0
000000
000000
01C000
03E000
03E000
03E000
01C000
018000
038000
030000
ENDCHAR
STARTCHAR kgreenlandic
ENCODING 312
SWIDTH 590 0
DWIDTH 23 0
BBX 19 21 3 0
BITMAP
F807E0
F80FC0
F80F80
F81F00
F83E00
F87C00
F8F800
F9F000
FBF000
FFF000
FFF800
FFFC00
FE7C00
FC3E00
F83F00
F81F00
F80F80
F80F80
F807C0
F807E0
F803E0
ENDCHAR
STARTCHAR Lacute
ENCODING 313
SWIDTH 534 0
DWIDTH 21 0
BBX 16 36 4 0
BITMAP
1000
1C00
3F00
7C00
F800
F000
0000
0000
0000
F000
F000
F000
F000
F000
F000
F000
F000
F000
F000
F000
F000
F000
F000
F000
F000
F000
F000
F000
F000
F000
F000
F000
FFFF
FFFF
FFFF
FFFF
ENDCHAR
STARTCHAR lacute
ENCODING 314
SWIDTH 295 0
DWIDTH 12 0
BBX 9 38 3 0
BITMAP
0800
1E00
1F80
3E00
7C00
7800
0000
0000
0000
F800
F800
F800
F800
F800
F800
F800
F800
F800
F800
F800
F800
F800
F800
F800
F800
F800
F800
F800
F800
F800
F800
F800
F800
F800
F800
F800
F800
F800
ENDCHAR
STARTCHAR Lcommaaccent
ENCODING 315
SWIDTH 534 0
DWIDTH 21 0
BBX 16 37 4 -10
BITMAP
F000
F000
F000
F000
F000
F000
F000
F000
F000
F000
F000
F000
F000
F000
F000
F000
F000
F000
F000
F000
F000
F000
F000
FFFF
FFFF
FFFF
FFFF
0000
0000
0380
03C0
07C0
03C0
0380
0380
0300
0600
ENDCHAR
STARTCHAR lcommaaccent
ENCODING 316
SWIDTH 295 0
DWIDTH 12 0
BBX 5 39 3 -10
BITMAP
F8
F8
F8
F8
F8
F8
F8
F8
F8
F8
F8
F8
F8
F8
F8
F8
F8
F8
F8
F8
F8
F8
F8
F8
F8
F8
F8
F8
F8
00
00
70
78
F8
78
70
70
E0
C0
ENDCHAR
STARTCHAR Lcaron
ENCODING 317
SWIDTH 534 0
DWIDTH 21 0
BBX 16 27 4 0
BITMAP
F00F
F00F
F00F
F00E
F00E
F00E
F00E
F00E
F000
F000
F000
F000
F000
F000
F000
F000
F000
F000
F000
F000
F000
F000
F000
FFFF
FFFF
FFFF
FFFF
ENDCHAR
STARTCHAR lcaron
ENCODING 318
SWIDTH 367 0
DWIDTH 14 0
BBX 11 29 4 0
BITMAP
F1E0
F1E0
F1E0
F1E0
F1C0
F1C0
F1C0
F1C0
F000
F000
F000
F000
F000
F000
F000
F000
F000
F000
F000
F000
F000
F000
F000
F000
F000
F000
F000
F000
F000
ENDCHAR
STARTCHAR Ldot
ENCODING 319
SWIDTH 534 0
DWIDTH 21 0
BBX 16 27 4 0
BITMAP
F000
F000
F000
F000
F000
F000
F000
F000
F000
F01C
F03C
F03E
F03C
F01C
F000
F000
F000
F000
F000
F000
F000
F000
F000
FFFF
FFFF
FFFF
FFFF
ENDCHAR
STARTCHAR ldot
ENCODING 320
SWIDTH 355 0
DWIDTH 14 0
BBX 10 29 4 0
BITMAP
F000
F000
F000
F000
F000
F000
F000
F000
F000
F000
F000
F380
F7C0
F7C0
F7C0
F380
F000
F000
F000
F000
F000
F000
F000
F000
F000
F000
F000
F000
F000
ENDCHAR
STARTCHAR Lslash
ENCODING 321
SWIDTH 534 0
DWIDTH 21 0
BBX 20 27 0 0
BITMAP
0F0000
0F0000
0F0000
0F0000
0F0000
0F0300
0F1F00
0FFF00
0FFE00
7FF000
FF8000
FF0000
CF0000
0F0000
0F0000
0F0000
0F0000
0F0000
0F0000
0F0000
0F0000
0F0000
0F0000
0FFFF0
0FFFF0
0FFFF0
0FFFF0
ENDCHAR
STARTCHAR lslash
ENCODING 322
SWIDTH 338 0
DWIDTH 13 0
BBX 13 29 0 0
BITMAP
0F80
0F80
0F80
0F80
0F80
0F80
0F80
0F88
0FF8
0FF8
3FF8
FFC0
FF80
EF80
0F80
0F80
0F80
0F80
0F80
0F80
0F80
0F80
0F80
0F80
0F80
0F80
0F80
0F80
0F80
ENDCHAR
STARTCHAR Nacute
ENCODING 323
SWIDTH 792 0
DWIDTH 31 0
BBX 23 36 4 0
BITMAP
000400
000F00
000FC0
001F00
003E00
003C00
000000
000000
000000
F0001E
F8001E
FC001E
FE001E
FF001E
FF001E
FF801E
FFC01E
F7E01E
F3E01E
F3F01E
F1F81E
F0FC1E
F07C1E
F07E1E
F03F1E
F01F9E
F00F9E
F00FDE
F007FE
F003FE
F001FE
F001FE
F000FE
F0007E
F0003E
F0003E
ENDCHAR
STARTCHAR nacute
ENCODING 324
SWIDTH 663 0
DWIDTH 26 0
BBX 20 30 3 0
BITMAP
000800
001E00
003F00
007E00
007800
008000
000000
000000
007F00
F9FF80
FBFFC0
FFFFE0
FF8FF0
FE03F0
FC01F0
FC01F0
F800F0
F800F0
F800F0
F800F0
F800F0
F800F0
F800F0
F800F0
F800F0
F800F0
F800F0
F800F0
F800F0
F800F0
ENDCHAR
STARTCHAR Ncommaaccent
ENCODING 325
SWIDTH 792 0
DWIDTH 31 0
BBX 23 37 4 -10
BITMAP
F0001E
F8001E
FC001E
FE001E
FF001E
FF001E
FF801E
FFC01E
F7E01E
F3E01E
F3F01E
F1F81E
F0FC1E
F07C1E
F07E1E
F03F1E
F01F9E
F00F9E
F00FDE
F007FE
F003FE
F001FE
F001FE
F000FE
F0007E
F0003E
F0003E
000000
000000
003800
007C00
007C00
007C00
003800
003000
007000
006000
ENDCHAR
STARTCHAR ncommaaccent
ENCODING 326
SWIDTH 663 0
DWIDTH 26 0
BBX 20 32 3 -10
BITMAP
007F00
F9FF80
FBFFC0
FFFFE0
FF8FF0
FE03F0
FC01F0
FC01F0
F800F0
F800F0
F800F0
F800F0
F800F0
F800F0
F800F0
F800F0
F800F0
F800F0
F800F0
F800F0
F800F0
F800F0
000000
000000
007000
00F000
00F000
00F000
007000
00E000
00C000
01C000
ENDCHAR
STARTCHAR Ncaron
ENCODING 327
SWIDTH 792 0
DWIDTH 31 0
BBX 23 36 4 0
BITMAP
03C3C0
03C780
01E700
00FF00
00FE00
007C00
000000
000000
000000
F0001E
F8001E
FC001E
FE001E
FF001E
FF001E
FF801E
FFC01E
F7E01E
F3E01E
F3F01E
F1F81E
F0FC1E
F07C1E
F07E1E
F03F1E
F01F9E
F00F9E
F00FDE
F007FE
F003FE
F001FE
F001FE
F000FE
F0007E
F0003E
F0003E
ENDCHAR
STARTCHAR ncaron
ENCODING 328
SWIDTH 663 0
DWIDTH 26 0
BBX 20 30 3 0
BITMAP
0F0F00
078F00
03DE00
03FC00
01FC00
00F800
000000
000000
007F00
F9FF80
FBFFC0
FFFFE0
FF8FF0
FE03F0
FC01F0
FC01F0
F800F0
F800F0
F800F0
F800F0
F800F0
F800F0
F800F0
F800F0
F800F0
F800F0
F800F0
F800F0
F800F0
F800F0
ENDCHAR
STARTCHAR napostrophe
ENCODING 329
SWIDTH 762 0
DWIDTH 30 0
BBX 26 30 1 0
BITMAP
70000000
F8000000
F8000000
78000000
70000000
60000000
E0000000
00000000
0001F800
03E7FE00
03EFFF00
03FFFF80
03FE3F80
03F80FC0
03F007C0
03F007C0
03E007C0
03E003C0
03E003C0
03E003C0
03E003C0
03E003C0
03E003C0
03E003C0
03E003C0
03E003C0
03E003C0
03E003C0
03E003C0
03E003C0
ENDCHAR
STARTCHAR Eng
ENCODING 330
SWIDTH 792 0
DWIDTH 31 0
BBX 23 36 4 -9
BITMAP
F0001E
F8001E
FC001E
FE001E
FF001E
FF001E
FF801E
FFC01E
F7E01E
F3E01E
F3F01E
F1F81E
F0FC1E
F07C1E
F07E1E
F03F1E
F01F9E
F00F9E
F00FDE
F007FE
F003FE
F001FE
F001FE
F000FE
F0007E
F0003E
F0003E
00001E
00003E
00403E
00E07E
00FDFC
01FFFC
00FFF8
007FF0
001FC0
ENDCHAR
STARTCHAR eng
ENCODING 331
SWIDTH 663 0
DWIDTH 26 0
BBX 20 31 3 -9
BITMAP
007F00
F9FF80
FBFFC0
FFFFE0
FF8FF0
FE03F0
FC01F0
FC01F0
F800F0
F800F0
F800F0
F800F0
F800F0
F800F0
F800F0
F800F0
F800F0
F800F0
F800F0
F800F0
F800F0
F800F0
0000F0
0000F0
0000F0
0001F0
0031F0
003FE0
003FE0
007FC0
001F00
ENDCHAR
STARTCHAR Omacron
ENCODING 332
SWIDTH 810 0
DWIDTH 32 0
BBX 29 35 1 -1
BITMAP
003FF000
003FF000
003FF000
00000000
00000000
00000000
00000000
001FE000
00FFFC00
03FFFE00
07FFFF80
0FF07FC0
1FC00FC0
1F0007E0
3E0003F0
7E0001F0
7C0001F8
7C0000F8
780000F8
F80000F8
F8000078
F8000078
F80000F8
780000F8
7C0000F8
7C0000F8
7E0001F0
3F0003F0
1F8007E0
1FC00FC0
0FF03FC0
07FFFF00
03FFFE00
00FFF800
001FE000
ENDCHAR
STARTCHAR omacron
ENCODING 333
SWIDTH 625 0
DWIDTH 24 0
BBX 22 30 1 -1
BITMAP
03FF00
03FF00
03FF00
000000
000000
000000
000000
00FE00
07FF80
0FFFC0
1FFFE0
3F03F0
3E01F8
7C00F8
7C007C
78007C
78007C
F8007C
F8003C
F8007C
78007C
78007C
7C0078
7C00F8
3E01F8
3F03F0
1FFFE0
0FFFC0
07FF80
00FE00
ENDCHAR
STARTCHAR Obreve
ENCODING 334
SWIDTH 810 0
DWIDTH 32 0
BBX 29 37 1 -1
BITMAP
00707000
00707000
0078F000
003FE000
001FC000
000F8000
00000000
00000000
00000000
001FE000
00FFFC00
03FFFE00
07FFFF80
0FF07FC0
1FC00FC0
1F0007E0
3E0003F0
7E0001F0
7C0001F8
7C0000F8
780000F8
F80000F8
F8000078
F8000078
F80000F8
780000F8
7C0000F8
7C0000F8
7E0001F0
3F0003F0
1F8007E0
1FC00FC0
0FF03FC0
07FFFF00
03FFFE00
00FFF800
001FE000
ENDCHAR
STARTCHAR obreve
ENCODING 335
SWIDTH 625 0
DWIDTH 24 0
BBX 22 31 1 -1
BITMAP
038380
038700
03C700
01FF00
00FE00
000000
000000
000000
00FE00
07FF80
0FFFC0
1FFFE0
3F03F0
3E01F8
7C00F8
7C007C
78007C
78007C
F8007C
F8003C
F8007C
78007C
78007C
7C0078
7C00F8
3E01F8
3F03F0
1FFFE0
0FFFC0
07FF80
00FE00
ENDCHAR
STARTCHAR Ohungarumlaut
ENCODING 336
SWIDTH 810 0
DWIDTH 32 0
BBX 29 37 1 -1
BITMAP
00082000
001E3800
001F7C00
003E7800
003CF000
0078E000
00000000
00000000
00000000
001FE000
00FFFC00
03FFFE00
07FFFF80
0FF07FC0
1FC00FC0
1F0007E0
3E0003F0
7E0001F0
7C0001F8
7C0000F8
780000F8
F80000F8
F8000078
F8000078
F80000F8
780000F8
7C0000F8
7C0000F8
7E0001F0
3F0003F0
1F8007E0
1FC00FC0
0FF03FC0
07FFFF00
03FFFE00
00FFF800
001FE000
ENDCHAR
STARTCHAR ohungarumlaut
ENCODING 337
SWIDTH 625 0
DWIDTH 24 0
BBX 22 32 1 -1
BITMAP
000100
00E1C0
00F3E0
01E7C0
03C780
03CF00
000000
000000
000000
00FE00
07FF80
0FFFC0
1FFFE0
3F03F0
3E01F8
7C00F8
7C007C
78007C
78007C
F8007C
F8003C
F8007C
78007C
78007C
7C0078
7C00F8
3E01F8
3F03F0
1FFFE0
0FFFC0
07FF80
00FE00
ENDCHAR
STARTCHAR OE
ENCODING 338
SWIDTH 1097 0
DWIDTH 43 0
BBX 40 27 1 0
BITMAP
001FFFFFFE
00FFFFFFFE
03FFFFFFFE
07FFFFFFFE
0FF00F0000
1FC00F0000
3F000F0000
3E000F0000
7C000F0000
7C000F0000
78000F0000
F8000FFFFC
F8000FFFFC
F8000FFFFC
F8000FFFFC
78000F0000
7C000F0000
7C000F0000
7E000F0000
3E000F0000
3F000F0000
1FC00F0000
0FF00F0000
07FFFFFFFF
03FFFFFFFF
00FFFFFFFF
001FFFFFFF
ENDCHAR
STARTCHAR oe
ENCODING 339
SWIDTH 1041 0
DWIDTH 41 0
BBX 38 23 1 -1
BITMAP
00FE007E00
07FF81FFC0
0FFFC7FFE0
1FFFE7E7F0
3F83FF81F0
3E01FF00F8
7C00FE0078
7C007C007C
78007C003C
78007C003C
F8007FFFFC
F8003FFFFC
F8007C0000
78007C0000
78007C0000
7C007E0000
7C00FE0000
3E01FF0060
3F03FF80F0
1FFFEFFFF8
0FFFC7FFF0
07FF81FFC0
00FC007F00
ENDCHAR
STARTCHAR Racute
ENCODING 340
SWIDTH 723 0
DWIDTH 28 0
BBX 22 36 4 0
BITMAP
001000
003C00
003F00
007C00
00F800
00F000
000000
000000
000000
FFFE00
FFFF80
FFFFE0
FFFFF0
F003F8
F000F8
F00078
F0007C
F0007C
F0007C
F0007C
F00078
F00078
F000F8
F003F0
FFFFF0
FFFFE0
FFFF80
FFFF00
F00F80
F007C0
F007C0
F003E0
F001F0
F001F0
F000F8
F0007C
ENDCHAR
STARTCHAR racute
ENCODING 341
SWIDTH 394 0
DWIDTH 15 0
BBX 12 30 3 0
BITMAP
0080
01E0
03F0
07E0
0780
0F00
0000
0000
0070
F9F0
FBF0
FFF0
FFC0
FE00
FC00
FC00
F800
F800
F800
F800
F800
F800
F800
F800
F800
F800
F800
F800
F800
F800
ENDCHAR
STARTCHAR Rcommaaccent
ENCODING 342
SWIDTH 723 0
DWIDTH 28 0
BBX 22 37 4 -10
BITMAP
FFFE00
FFFF80
FFFFE0
FFFFF0
F003F8
F000F8
F00078
F0007C
F0007C
F0007C
F0007C
F00078
F00078
F000F8
F003F0
FFFFF0
FFFFE0
FFFF80
FFFF00
F00F80
F007C0
F007C0
F003E0
F001F0
F001F0
F000F8
F0007C
000000
000000
007000
00F000
00F000
00F000
007000
00E000
00C000
01C000
ENDCHAR
STARTCHAR rcommaaccent
ENCODING 343
SWIDTH 394 0
DWIDTH 15 0
BBX 12 32 3 -10
BITMAP
0070
F9F0
FBF0
FFF0
FFC0
FE00
FC00
FC00
F800
F800
F800
F800
F800
F800
F800
F800
F800
F800
F800
F800
F800
F800
0000
0000
7000
F800
F800
F800
7000
6000
E000
C000
ENDCHAR
STARTCHAR Rcaron
ENCODING 344
SWIDTH 723 0
DWIDTH 28 0
BBX 22 36 4 0
BITMAP
0F0F00
0F1E00
079C00
03FC00
03F800
01F000
000000
000000
000000
FFFE00
FFFF80
FFFFE0
FFFFF0
F003F8
F000F8
F00078
F0007C
F0007C
F0007C
F0007C
F00078
F00078
F000F8
F003F0
FFFFF0
FFFFE0
FFFF80
FFFF00
F00F80
F007C0
F007C0
F003E0
F001F0
F001F0
F000F8
F0007C
ENDCHAR
STARTCHAR rcaron
ENCODING 345
SWIDTH 394 0
DWIDTH 15 0
BBX 12 30 3 0
BITMAP
F0F0
78F0
39E0
3FC0
1F80
0F80
0000
0000
0070
F9F0
FBF0
FFF0
FFC0
FE00
FC00
FC00
F800
F800
F800
F800
F800
F800
F800
F800
F800
F800
F800
F800
F800
F800
ENDCHAR
STARTCHAR Sacute
ENCODING 346
SWIDTH 622 0
DWIDTH 24 0
BBX 21 37 1 -1
BITMAP
000F00
001F80
001F00
003E00
007C00
000000
000000
000000
00FF00
07FFE0
0FFFF8
1FFFF8
3FC7F0
3F00F0
3E0020
3E0000
3E0000
3F0000
3F8000
3FE000
1FFC00
0FFF80
07FFC0
00FFF0
001FF0
0007F8
0001F8
0000F8
0000F8
6000F8
7800F8
7C01F8
FFC7F8
7FFFF0
3FFFE0
0FFFC0
01FE00
ENDCHAR
STARTCHAR sacute
ENCODING 347
SWIDTH 470 0
DWIDTH 18 0
BBX 16 31 1 -1
BITMAP
0020
0078
00FC
01F0
01E0
0200
0000
0000
07F0
1FFE
3FFF
3FFE
7C0E
7800
7800
7C00
7F00
3FC0
3FF8
1FFC
07FE
00FF
003F
001F
000F
600F
701F
FFFE
FFFE
3FFC
0FE0
ENDCHAR
STARTCHAR Scircumflex
ENCODING 348
SWIDTH 622 0
DWIDTH 24 0
BBX 21 37 1 -1
BITMAP
007C00
00FE00
01EF00
03C700
038780
000000
000000
000000
00FF00
07FFE0
0FFFF8
1FFFF8
3FC7F0
3F00F0
3E0020
3E0000
3E0000
3F0000
3F8000
3FE000
1FFC00
0FFF80
07FFC0
00FFF0
001FF0
0007F8
0001F8
0000F8
0000F8
6000F8
7800F8
7C01F8
FFC7F8
7FFFF0
3FFFE0
0FFFC0
01FE00
ENDCHAR
STARTCHAR scircumflex
ENCODING 349
SWIDTH 470 0
DWIDTH 18 0
BBX 16 31 1 -1
BITMAP
03E0
07F0
0770
0E78
1E3C
3C1C
0000
0000
07F0
1FFE
3FFF
3FFE
7C0E
7800
7800
7C00
7F00
3FC0
3FF8
1FFC
07FE
00FF
003F
001F
000F
600F
701F
FFFE
FFFE
3FFC
0FE0
ENDCHAR
STARTCHAR Scedilla
ENCODING 350
SWIDTH 622 0
DWIDTH 24 0
BBX 21 37 1 -9
BITMAP
00FF00
07FFE0
0FFFF8
1FFFF8
3FC7F0
3F00F0
3E0020
3E0000
3E0000
3F0000
3F8000
3FE000
1FFC00
0FFF80
07FFC0
00FFF0
001FF0
0007F8
0001F8
0000F8
0000F8
6000F8
7800F8
7C01F8
FFC7F8
7FFFF0
3FFFE0
0FFFC0
01FE00
003800
003000
007C00
000E00
000E00
00DE00
00FC00
00F800
ENDCHAR
STARTCHAR scedilla
ENCODING 351
SWIDTH 470 0
DWIDTH 18 0
BBX 16 31 1 -9
BITMAP
07F0
1FFE
3FFF
7FFE
7C0E
7800
7800
7C00
7F00
3FE0
1FF8
0FFE
03FE
007F
001F
000F
400F
701F
FF7E
FFFE
3FFC
0FF0
01C0
0180
03E0
00F0
0070
0070
06F0
07E0
07C0
ENDCHAR
STARTCHAR Scaron
ENCODING 352
SWIDTH 622 0
DWIDTH 24 0
BBX 21 37 1 -1
BITMAP
078780
03C780
01EF00
01FE00
00FE00
007C00
000000
000000
00FF00
07FFE0
0FFFF8
1FFFF8
3FC7F0
3F00F0
3E0020
3E0000
3E0000
3F0000
3F8000
3FE000
1FFC00
0FFF80
07FFC0
00FFF0
001FF0
0007F8
0001F8
0000F8
0000F8
6000F8
7800F8
7C01F8
FFC7F8
7FFFF0
3FFFE0
0FFFC0
01FE00
ENDCHAR
STARTCHAR scaron
ENCODING 353
SWIDTH 470 0
DWIDTH 18 0
BBX 16 31 1 -1
BITMAP
3C3C
1E3C
0F78
0FF0
07E0
03E0
0000
0000
07F0
1FFE
3FFF
3FFE
7C0E
7800
7800
7C00
7F00
3FC0
3FF8
1FFC
07FE
00FF
003F
001F
000F
600F
701F
FFFE
FFFE
3FFC
0FE0
ENDCHAR
STARTCHAR uni0162
ENCODING 354
SWIDTH 579 0
DWIDTH 23 0
BBX 22 36 0 -9
BITMAP
FFFFFC
FFFFFC
FFFFFC
FFFFFC
007C00
007C00
007C00
007C00
007C00
007C00
007C00
007C00
007C00
007C00
007C00
007C00
007C00
007C00
007C00
007C00
007C00
007C00
007C00
007C00
007C00
007C00
007C00
003800
003800
003C00
005E00
000E00
000E00
00DE00
00FC00
00F800
ENDCHAR
STARTCHAR uni0163
ENCODING 355
SWIDTH 407 0
DWIDTH 16 0
BBX 14 35 1 -9
BITMAP
1F00
1F00
1F00
1F00
1F00
1F00
FFFC
FFFC
FFFC
1F00
1F00
1F00
1F00
1F00
1F00
1F00
1F00
1F00
1F00
1F00
1F00
1F08
1FF8
0FFC
07FC
03F0
00C0
01C0
01E0
0270
0030
0030
06F0
07F0
03C0
ENDCHAR
STARTCHAR Tcaron
ENCODING 356
SWIDTH 579 0
DWIDTH 23 0
BBX 22 36 0 0
BITMAP
0783C0
03C780
01EF00
01EE00
00FE00
007C00
000000
000000
000000
FFFFFC
FFFFFC
FFFFFC
FFFFFC
007C00
007C00
007C00
007C00
007C00
007C00
007C00
007C00
007C00
007C00
007C00
007C00
007C00
007C00
007C00
007C00
007C00
007C00
007C00
007C00
007C00
007C00
007C00
ENDCHAR
STARTCHAR tcaron
ENCODING 357
SWIDTH 407 0
DWIDTH 16 0
BBX 14 30 1 -1
BITMAP
003C
003C
003C
1F3C
1F38
1F38
1F38
1F00
1F00
FFFC
FFFC
FFFC
1F00
1F00
1F00
1F00
1F00
1F00
1F00
1F00
1F00
1F00
1F00
1F00
1F00
1F08
0FF8
0FFC
07FC
03F0
ENDCHAR
STARTCHAR Tbar
ENCODING 358
SWIDTH 579 0
DWIDTH 23 0
BBX 22 27 0 0
BITMAP
FFFFFC
FFFFFC
FFFFFC
FFFFFC
007C00
007C00
007C00
007C00
007C00
007C00
007C00
007C00
1FFFF0
1FFFF0
1FFFF0
007C00
007C00
007C00
007C00
007C00
007C00
007C00
007C00
007C00
007C00
007C00
007C00
ENDCHAR
STARTCHAR tbar
ENCODING 359
SWIDTH 407 0
DWIDTH 16 0
BBX 14 26 1 -1
BITMAP
1F00
1F00
1F00
1F00
1F00
1F00
FFFC
FFFC
FFFC
1F00
1F00
1F00
1F00
FFFC
FFFC
FFFC
1F00
1F00
1F00
1F00
1F00
1F08
0FF8
0FFC
07FC
03F0
ENDCHAR
STARTCHAR Utilde
ENCODING 360
SWIDTH 764 0
DWIDTH 30 0
BBX 24 37 3 -1
BITMAP
01E1C0
03F9C0
03FFC0
039FC0
038F80
000000
000000
000000
000000
F8001F
F8001F
F8001F
F8001F
F8001F
F8001F
F8001F
F8001F
F8001F
F8001F
F8001F
F8001F
F8001F
F8001F
F8001F
F8001F
F8001F
F8001F
F8001F
F8001F
7C003E
7C003E
7E007C
3FC1FC
1FFFF8
0FFFF0
07FFC0
00FF00
ENDCHAR
STARTCHAR utilde
ENCODING 361
SWIDTH 653 0
DWIDTH 25 0
BBX 19 31 3 -1
BITMAP
000700
078700
0FCE00
1FFE00
1C7C00
1C3800
000000
000000
000000
F001E0
F001E0
F001E0
F001E0
F001E0
F001E0
F001E0
F001E0
F001E0
F001E0
F001E0
F001E0
F001E0
F003E0
F003E0
F807E0
FC07E0
FE1FE0
7FFDE0
7FFDE0
3FF1E0
0FC000
ENDCHAR
STARTCHAR Umacron
ENCODING 362
SWIDTH 764 0
DWIDTH 30 0
BBX 24 35 3 -1
BITMAP
01FF80
01FF80
01FF80
000000
000000
000000
000000
F8001F
F8001F
F8001F
F8001F
F8001F
F8001F
F8001F
F8001F
F8001F
F8001F
F8001F
F8001F
F8001F
F8001F
F8001F
F8001F
F8001F
F8001F
F8001F
F8001F
7C003E
7C003E
7E007C
3FC1FC
1FFFF8
0FFFF0
07FFC0
00FF00
ENDCHAR
STARTCHAR umacron
ENCODING 363
SWIDTH 653 0
DWIDTH 25 0
BBX 19 29 3 -1
BITMAP
0FFC00
0FFC00
0FFC00
000000
000000
000000
000000
F001E0
F001E0
F001E0
F001E0
F001E0
F001E0
F001E0
F001E0
F001E0
F001E0
F001E0
F001E0
F001E0
F003E0
F003E0
F807E0
FC07E0
FE1FE0
7FFDE0
7FFDE0
3FF1E0
0FC000
ENDCHAR
STARTCHAR Ubreve
ENCODING 364
SWIDTH 764 0
DWIDTH 30 0
BBX 24 37 3 -1
BITMAP
038380
01C380
01C780
01FF80
00FF00
007C00
000000
000000
000000
F8001F
F8001F
F8001F
F8001F
F8001F
F8001F
F8001F
F8001F
F8001F
F8001F
F8001F
F8001F
F8001F
F8001F
F8001F
F8001F
F8001F
F8001F
F8001F
F8001F
7C003E
7C003E
7E007C
3FC1FC
1FFFF8
0FFFF0
07FFC0
00FF00
ENDCHAR
STARTCHAR ubreve
ENCODING 365
SWIDTH 653 0
DWIDTH 25 0
BBX 19 31 3 -1
BITMAP
0E0E00
0E0E00
0F1C00
07FC00
03F800
004000
000000
000000
000000
F001E0
F001E0
F001E0
F001E0
F001E0
F001E0
F001E0
F001E0
F001E0
F001E0
F001E0
F001E0
F001E0
F003E0
F003E0
F807E0
FC07E0
FE1FE0
7FFDE0
7FFDE0
3FF1E0
0FC000
ENDCHAR
STARTCHAR Uring
ENCODING 366
SWIDTH 764 0
DWIDTH 30 0
BBX 24 38 3 -1
BITMAP
003C00
007E00
00C700
018300
018180
018300
00C700
00FE00
003C00
000000
F8001F
F8001F
F8001F
F8001F
F8001F
F8001F
F8001F
F8001F
F8001F
F8001F
F8001F
F8001F
F8001F
F8001F
F8001F
F8001F
F8001F
F8001F
F8001F
F8001F
7C003E
7C003E
7E007C
3FC1FC
1FFFF8
0FFFF0
07FFC0
00FF00
ENDCHAR
STARTCHAR uring
ENCODING 367
SWIDTH 653 0
DWIDTH 25 0
BBX 19 32 3 -1
BITMAP
01F000
03F800
071C00
060C00
060C00
060C00
071C00
03F800
01E000
000000
F001E0
F001E0
F001E0
F001E0
F001E0
F001E0
F001E0
F001E0
F001E0
F001E0
F001E0
F001E0
F001E0
F003E0
F003E0
F807E0
FC07E0
FE1FE0
7FFDE0
7FFDE0
3FF1E0
0FC000
ENDCHAR
STARTCHAR Uhungarumlaut
ENCODING 368
SWIDTH 764 0
DWIDTH 30 0
BBX 24 37 3 -1
BITMAP
004080
0079E0
00F9E0
00F3C0
01E780
01C780
000000
000000
000000
F8001F
F8001F
F8001F
F8001F
F8001F
F8001F
F8001F
F8001F
F8001F
F8001F
F8001F
F8001F
F8001F
F8001F
F8001F
F8001F
F8001F
F8001F
F8001F
F8001F
7C003E
7C003E
7E007C
3FC1FC
1FFFF8
0FFFF0
07FFC0
00FF00
ENDCHAR
STARTCHAR uhungarumlaut
ENCODING 369
SWIDTH 653 0
DWIDTH 25 0
BBX 19 31 3 -1
BITMAP
010400
03C700
03CF80
078F00
079E00
0F3C00
000000
000000
000000
F001E0
F001E0
F001E0
F001E0
F001E0
F001E0
F001E0
F001E0
F001E0
F001E0
F001E0
F001E0
F001E0
F003E0
F003E0
F807E0
FC07E0
FE1FE0
7FFDE0
7FFDE0
3FF1E0
0FC000
ENDCHAR
STARTCHAR Uogonek
ENCODING 370
SWIDTH 765 0
DWIDTH 30 0
BBX 24 36 3 -9
BITMAP
F8001F
F8001F
F8001F
F8001F
F8001F
F8001F
F8001F
F8001F
F8001F
F8001F
F8001F
F8001F
F8001F
F8001F
F8001F
F8001F
F8001F
F8001F
F8001F
F8001E
7C003E
7C003E
7E007C
3FC1FC
1FFFF8
0FFFF0
07FFC0
00FF00
000600
000E00
000C00
000C00
001C00
001FC0
000FC0
000700
ENDCHAR
STARTCHAR uogonek
ENCODING 371
SWIDTH 647 0
DWIDTH 25 0
BBX 20 30 3 -9
BITMAP
F001E0
F001E0
F001E0
F001E0
F001E0
F001E0
F001E0
F001E0
F001E0
F001E0
F001E0
F001E0
F003E0
F003E0
F003E0
F807E0
FC0FE0
FE3FE0
7FFDE0
7FFDE0
3FF1E0
0FC0C0
000180
000180
000300
000300
000310
0003F0
0003F0
0001E0
ENDCHAR
STARTCHAR Wcircumflex
ENCODING 372
SWIDTH 1036 0
DWIDTH 40 0
BBX 41 35 0 0
BITMAP
00007E000000
00007F000000
0000F7000000
0001E3800000
0003C3C00000
000000000000
000000000000
000000000000
F8003E000F80
7C003E000F00
7C003F001F00
7C007F001F00
3C007F001E00
3E007F003E00
3E00F7803E00
1E00F7803C00
1F00F7807C00
1F01E3C07C00
0F01E3C07800
0F81E3C07800
0F81C3E0F800
0783C1E0F000
0783C1E0F000
07C381F1F000
03C780F1E000
03C780F1E000
03E780F3E000
01EF007BC000
01EF007BC000
01FF007BC000
00FE003F8000
00FE003F8000
00FE003F8000
007C003F0000
007C001F0000
ENDCHAR
STARTCHAR wcircumflex
ENCODING 373
SWIDTH 893 0
DWIDTH 35 0
BBX 35 30 0 0
BITMAP
0001F00000
0003F80000
0003B80000
00079C0000
000F1E0000
001E0F0000
0000000000
0000000000
0000000000
F801F003E0
7801F003C0
7803F803C0
7C03F807C0
3C03F80780
3C03FC0780
3E07BC0F80
1E07BC0F00
1E079E0F00
1F0F1E1F00
0F0F1E1E00
0F0E0F1E00
079E0F3E00
079E0F3C00
079C07BC00
03FC07F800
03FC07F800
03F803F800
01F803F000
01F803F000
01F001F000
ENDCHAR
STARTCHAR Ycircumflex
ENCODING 374
SWIDTH 637 0
DWIDTH 25 0
BBX 25 35 0 0
BITMAP
003E0000
007F0000
00F78000
01E38000
01C3C000
00000000
00000000
00000000
F8000F80
7C001F00
7C001E00
3E003E00
1E007C00
1F007C00
0F80F800
0F80F800
07C1F000
07C1F000
03E3E000
03F7C000
01F7C000
00FF8000
00FF8000
007F0000
007F0000
003E0000
003E0000
003E0000
003E0000
003E0000
003E0000
003E0000
003E0000
003E0000
003E0000
ENDCHAR
STARTCHAR ycircumflex
ENCODING 375
SWIDTH 531 0
DWIDTH 21 0
BBX 21 39 0 -9
BITMAP
00F800
01FC00
01DC00
039E00
078F00
0F0780
000000
000000
000000
F800F8
F800F0
7800F0
7C01F0
3C01E0
3E01E0
3E03C0
1E03C0
1F07C0
0F0780
0F0780
0F8F80
078F00
078F00
03DE00
03DE00
03FE00
01FC00
01FC00
01FC00
00F800
00F800
00F000
00F000
01F000
63E000
7FE000
FFC000
FF8000
3E0000
ENDCHAR
STARTCHAR Ydieresis
ENCODING 376
SWIDTH 637 0
DWIDTH 25 0
BBX 25 35 0 0
BITMAP
00C38000
01E3C000
01E7C000
01E3C000
00C38000
00000000
00000000
00000000
F8000F80
7C001F00
7C001E00
3E003E00
1E007C00
1F007C00
0F80F800
0F80F800
07C1F000
07C1F000
03E3E000
03F7C000
01F7C000
00FF8000
00FF8000
007F0000
007F0000
003E0000
003E0000
003E0000
003E0000
003E0000
003E0000
003E0000
003E0000
003E0000
003E0000
ENDCHAR
STARTCHAR Zacute
ENCODING 377
SWIDTH 666 0
DWIDTH 26 0
BBX 23 36 1 0
BITMAP
000400
000780
000FC0
001F80
001E00
003C00
000000
000000
000000
7FFFFE
7FFFFE
7FFFFE
7FFFFE
00007C
0000F8
0001F8
0003F0
0007E0
0007C0
000F80
001F00
003E00
007E00
00FC00
01F800
01F000
03E000
07C000
0FC000
1F8000
3F0000
7E0000
7FFFFE
FFFFFE
FFFFFE
FFFFFE
ENDCHAR
STARTCHAR zacute
ENCODING 378
SWIDTH 537 0
DWIDTH 21 0
BBX 18 30 2 0
BITMAP
002000
007C00
00FC00
00F800
01F000
03E000
000000
000000
000000
FFFF80
FFFF80
FFFF80
FFFF80
001F00
003E00
007C00
00F800
00F800
01F000
03E000
07C000
0F8000
1F0000
1F0000
3E0000
7C0000
FFFFC0
FFFFC0
FFFFC0
FFFFC0
ENDCHAR
STARTCHAR Zdotaccent
ENCODING 379
SWIDTH 666 0
DWIDTH 26 0
BBX 23 35 1 0
BITMAP
003C00
003E00
003E00
003E00
001C00
000000
000000
000000
7FFFFE
7FFFFE
7FFFFE
7FFFFE
00007C
0000F8
0001F8
0003F0
0007E0
0007C0
000F80
001F00
003E00
007E00
00FC00
01F800
01F000
03E000
07C000
0FC000
1F8000
3F0000
7E0000
7FFFFE
FFFFFE
FFFFFE
FFFFFE
ENDCHAR
STARTCHAR zdotaccent
ENCODING 380
SWIDTH 537 0
DWIDTH 21 0
BBX 18 29 2 0
BITMAP
01E000
03E000
03E000
03E000
01C000
000000
000000
000000
FFFF80
FFFF80
FFFF80
FFFF80
001F00
003E00
007C00
00F800
00F800
01F000
03E000
07C000
0F8000
1F0000
1F0000
3E0000
7C0000
FFFFC0
FFFFC0
FFFFC0
FFFFC0
ENDCHAR
STARTCHAR Zcaron
ENCODING 381
SWIDTH 666 0
DWIDTH 26 0
BBX 23 36 1 0
BITMAP
03C3C0
01C380
01E780
00FF00
007E00
007E00
000000
000000
000000
7FFFFE
7FFFFE
7FFFFE
7FFFFE
00007C
0000F8
0001F8
0003F0
0007E0
0007C0
000F80
001F00
003E00
007E00
00FC00
01F800
01F000
03E000
07C000
0FC000
1F8000
3F0000
7E0000
7FFFFE
FFFFFE
FFFFFE
FFFFFE
ENDCHAR
STARTCHAR zcaron
ENCODING 382
SWIDTH 537 0
DWIDTH 21 0
BBX 18 30 2 0
BITMAP
3C1E00
1E3C00
0F7800
077000
07F000
03E000
000000
000000
000000
FFFF80
FFFF80
FFFF80
FFFF80
001F00
003E00
007C00
00F800
00F800
01F000
03E000
07C000
0F8000
1F0000
1F0000
3E0000
7C0000
FFFFC0
FFFFC0
FFFFC0
FFFFC0
ENDCHAR
STARTCHAR uni018F
ENCODING 399
SWIDTH 780 0
DWIDTH 30 0
BBX 28 28 1 -1
BITMAP
003FC000
00FFF800
03FFFC00
07FFFF00
1FF07F80
0F801F80
07000FC0
020007E0
000003E0
000001E0
000001F0
000001F0
000001F0
FFFFFFF0
FFFFFFF0
FFFFFFF0
7FFFFFF0
780001F0
7C0001E0
7C0003E0
3E0003E0
3F0007C0
1F801F80
0FF07F80
07FFFF00
03FFFC00
00FFF800
003FC000
ENDCHAR
STARTCHAR florin
ENCODING 402
SWIDTH 372 0
DWIDTH 15 0
BBX 22 39 -5 -9
BITMAP
0001F0
0007FC
000FFC
001FF8
001F08
003E00
003E00
003C00
003C00
003C00
003C00
007C00
01FFE0
01FFE0
03FFE0
007800
007800
007800
007800
007800
00F800
00F800
00F800
00F800
00F000
00F000
00F000
00F000
00F000
01F000
01F000
01F000
01F000
01E000
43E000
7FE000
7FC000
FF8000
3E0000
ENDCHAR
STARTCHAR Ohorn
ENCODING 416
SWIDTH 810 0
DWIDTH 32 0
BBX 29 31 1 -1
BITMAP
00000780
00000780
00000F00
001FFF00
00FFFE00
03FFFE00
07FFFF80
0FF07FC0
1FC00FE0
1F0007E0
3E0003F0
7E0001F0
7C0001F8
7C0000F8
780000F8
F80000F8
F8000078
F8000078
F80000F8
780000F8
7C0000F8
7C0000F8
7E0001F0
3F0003F0
1F8007E0
1FC00FC0
0FF03FC0
07FFFF00
03FFFE00
00FFF800
001FE000
ENDCHAR
STARTCHAR ohorn
ENCODING 417
SWIDTH 625 0
DWIDTH 24 0
BBX 22 26 1 -1
BITMAP
00003C
000038
000078
00FEF8
07FFF0
0FFFE0
1FFFF0
3F03F0
3E01F8
7C00F8
7C007C
78007C
78007C
F8007C
F8003C
F8007C
78007C
78007C
7C0078
7C00F8
3E01F8
3F03F0
1FFFE0
0FFFC0
07FF80
00FE00
ENDCHAR
STARTCHAR Uhorn
ENCODING 431
SWIDTH 764 0
DWIDTH 30 0
BBX 27 32 3 -1
BITMAP
000000E0
000000E0
000001E0
000003E0
F8001FC0
F8001F80
F8001F00
F8001F00
F8001F00
F8001F00
F8001F00
F8001F00
F8001F00
F8001F00
F8001F00
F8001F00
F8001F00
F8001F00
F8001F00
F8001F00
F8001F00
F8001F00
F8001F00
F8001F00
7C003E00
7C003E00
7E007C00
3FC1FC00
1FFFF800
0FFFF000
07FFC000
00FF0000
ENDCHAR
STARTCHAR uhorn
ENCODING 432
SWIDTH 653 0
DWIDTH 25 0
BBX 24 25 3 -1
BITMAP
00000F
00000F
00001E
F001FE
F001FC
F001F8
F001E0
F001E0
F001E0
F001E0
F001E0
F001E0
F001E0
F001E0
F001E0
F001E0
F003E0
F003E0
F807E0
FC07E0
FE1FE0
7FFDE0
7FFDE0
3FF1E0
0FC000
ENDCHAR
STARTCHAR uni01C4
ENCODING 452
SWIDTH 1441 0
DWIDTH 56 0
BBX 51 36 4 0
BITMAP
00000000787800
000000003C7800
000000003CF000
000000001FE000
000000000FE000
0000000007C000
00000000000000
00000000000000
00000000000000
FFFE000FFFFFE0
FFFFC00FFFFFE0
FFFFE00FFFFFE0
FFFFF80FFFFFC0
F007FC00000FC0
F000FC00001F80
F0007E00003F00
F0003F00007E00
F0001F00007C00
F0001F0000F800
F0000F8001F000
F0000F8003F000
F0000F8007E000
F0000F800FC000
F0000F801F8000
F0000F801F0000
F0000F803E0000
F0001F007C0000
F0001F00FC0000
F0003F01F80000
F0007E03F00000
F000FC03E00000
F003FC07C00000
FFFFF80FFFFFE0
FFFFE00FFFFFE0
FFFF800FFFFFE0
FFFE000FFFFFE0
ENDCHAR
STARTCHAR uni01C5
ENCODING 453
SWIDTH 1312 0
DWIDTH 51 0
BBX 46 30 4 0
BITMAP
00000001E1E0
00000001E3C0
00000000F380
FFFE00007F80
FFFFC0003F00
FFFFF0003E00
FFFFF8000000
F007FC000000
F000FE000000
F0007E0FFFF8
F0003F0FFFF8
F0001F0FFFF8
F0000F0FFFF8
F0000F8001F0
F0000F8003E0
F0000F8007C0
F0000F8007C0
F0000F800F80
F0000F801F00
F0000F803E00
F0001F007C00
F0001F00FC00
F0003E00F800
F0007E01F000
F000FC03E000
F003F807C000
FFFFF00FFFFC
FFFFE00FFFFC
FFFF800FFFFC
FFFE000FFFFC
ENDCHAR
STARTCHAR uni01C6
ENCODING 454
SWIDTH 1219 0
DWIDTH 48 0
BBX 45 31 1 -1
BITMAP
00000003C3C0
00003C01E380
00003C01E780
00003C00FF00
00003C007E00
00003C003E00
00003C000000
00003C000000
01FC3C000000
07FF3C0FFFF8
0FFFBC0FFFF8
1FFFBC0FFFF8
3F03FC0FFFF0
3E01FC0001F0
7C00FC0003E0
7C007C0007C0
78007C000F80
78007C001F00
F8003C003E00
F8003C003E00
F8003C007C00
F8007C00F800
78007C01F000
7C007C03E000
7C00FC07C000
3E00FC07C000
3F03FC0FFFF8
1FFFBC1FFFF8
0FFFBC1FFFF8
07FF3C1FFFF8
01F800000000
ENDCHAR
STARTCHAR uni01C7
ENCODING 455
SWIDTH 1033 0
DWIDTH 40 0
BBX 33 28 4 -1
BITMAP
F0001FFF80
F0001FFF80
F0001FFF80
F0001FFF80
F000000780
F000000780
F000000780
F000000780
F000000780
F000000780
F000000780
F000000780
F000000780
F000000780
F000000780
F000000780
F000000780
F000000780
F000000780
F000000780
F000000780
F000300F80
F000380F80
FFFF7F7F80
FFFF7FFF00
FFFF3FFE00
FFFF1FFC00
000003F000
ENDCHAR
STARTCHAR uni01C8
ENCODING 456
SWIDTH 821 0
DWIDTH 32 0
BBX 25 38 4 -9
BITMAP
00000700
00000F80
F0000F80
F0000F80
F0000F00
F0000000
F0000000
F0000000
F0000F80
F0000F80
F0000F80
F0000F80
F0000F80
F0000F80
F0000F80
F0000F80
F0000F80
F0000F80
F0000F80
F0000F80
F0000F80
F0000F80
F0000F80
F0000F80
F0000F80
FFFF0F80
FFFF0F80
FFFF0F80
FFFF0F80
00000F80
00000F80
00000F00
00000F00
00011F00
0003FF00
0003FE00
0003FC00
0001F000
ENDCHAR
STARTCHAR uni01C9
ENCODING 457
SWIDTH 582 0
DWIDTH 23 0
BBX 16 38 4 -9
BITMAP
F01E
F03F
F03F
F01E
F01E
F000
F000
F000
F01E
F01E
F01E
F01E
F01E
F01E
F01E
F01E
F01E
F01E
F01E
F01E
F01E
F01E
F01E
F01E
F01E
F01E
F01E
F01E
F01E
001E
001E
001E
003E
063E
07FC
07FC
0FF8
03E0
ENDCHAR
STARTCHAR uni01CA
ENCODING 458
SWIDTH 1291 0
DWIDTH 50 0
BBX 43 28 4 -1
BITMAP
F8001E07FFE0
F8001E07FFE0
FC001E07FFE0
FE001E07FFE0
FF001E0001E0
FF001E0001E0
FF801E0001E0
FFC01E0001E0
F7E01E0001E0
F3E01E0001E0
F3F01E0001E0
F1F81E0001E0
F0FC1E0001E0
F07C1E0001E0
F07E1E0001E0
F03F1E0001E0
F01F9E0001E0
F00F9E0001E0
F00FDE0001E0
F007FE0001E0
F003FE0001E0
F001FE0C03E0
F001FE0E03E0
F000FE1FDFE0
F0007E1FFFC0
F0003E0FFF80
F0003E03FF00
00000000FC00
ENDCHAR
STARTCHAR uni01CB
ENCODING 459
SWIDTH 1079 0
DWIDTH 42 0
BBX 35 38 4 -9
BITMAP
00000001C0
00000003E0
F8001E03E0
F8001E03E0
FC001E03E0
FE001E0000
FF001E0000
FF001E0000
FF801E03E0
FFC01E03E0
F7E01E03E0
F3E01E03E0
F1F01E03E0
F1F81E03E0
F0FC1E03E0
F07C1E03E0
F03E1E03E0
F03F1E03E0
F01F9E03E0
F00F9E03E0
F00FDE03E0
F007FE03E0
F003FE03E0
F001FE03E0
F001FE03E0
F000FE03E0
F0007E03E0
F0003E03E0
F0003E03E0
00000003E0
00000003E0
00000003E0
00000003C0
00000047C0
000000FFC0
000000FF80
000000FF00
0000007C00
ENDCHAR
STARTCHAR uni01CC
ENCODING 460
SWIDTH 950 0
DWIDTH 37 0
BBX 31 39 3 -9
BITMAP
0000003E
0000003E
0000003E
0000003E
0000001C
00000000
00000000
00000000
007F0000
F9FF803E
FBFFC03E
FFFFE03E
FF8FF03E
FE03F03E
FC01F03E
FC01F03E
F800F03E
F800F03E
F800F03E
F800F03E
F800F03E
F800F03E
F800F03E
F800F03E
F800F03E
F800F03E
F800F03E
F800F03E
F800F03E
F800F03E
0000003E
0000003E
0000003C
0000003C
0000047C
00000FFC
00000FF8
00000FF0
000007C0
ENDCHAR
STARTCHAR Gcaron
ENCODING 486
SWIDTH 749 0
DWIDTH 29 0
BBX 25 37 1 -1
BITMAP
00F0F000
0078E000
0079E000
003FC000
001F8000
000F8000
00000000
00000000
00000000
001FE000
00FFFC00
03FFFF80
07FFFF80
0FF03F80
1FC00F00
1F000200
3E000000
7E000000
7C000000
7C000000
78000000
F8000000
F8000000
F8000780
F8000780
78000780
7C000780
7C000780
7E000780
3F000780
3F800780
1FC00F80
0FF03F80
07FFFF80
03FFFF00
00FFFC00
001FE000
ENDCHAR
STARTCHAR gcaron
ENCODING 487
SWIDTH 640 0
DWIDTH 25 0
BBX 21 39 1 -8
BITMAP
0783C0
03C780
01EF00
01EF00
00FE00
007C00
000000
000000
000000
01F800
07FE78
1FFF78
3FFFF8
3F03F8
7C01F8
7C00F8
7800F8
7800F8
F80078
F80078
F80078
7800F8
7800F8
7800F8
7C01F8
3E03F8
3FFFF8
1FFF78
0FFE78
03F878
0000F8
0000F8
0000F8
1001F0
1C03F0
3FFFE0
3FFFC0
0FFF00
03FC00
ENDCHAR
STARTCHAR uni01EA
ENCODING 490
SWIDTH 810 0
DWIDTH 32 0
BBX 29 36 1 -9
BITMAP
001FE000
00FFFC00
03FFFE00
07FFFF80
0FF07FC0
1FC00FE0
3F0007E0
3E0003F0
7E0001F0
7C0000F8
7C0000F8
780000F8
F80000F8
F8000078
F80000F8
F80000F8
7C0000F8
7C0000F8
7E0001F0
3E0003F0
3F0007E0
1FC00FE0
0FF03FC0
07FFFF80
03FFFE00
00FFFC00
003FE000
00060000
00060000
000C0000
000C0000
000C0000
001C8000
001FC000
000FC000
00070000
ENDCHAR
STARTCHAR uni01EB
ENCODING 491
SWIDTH 625 0
DWIDTH 24 0
BBX 22 31 1 -9
BITMAP
00FE00
07FF80
0FFFE0
1FFFF0
3F03F0
3E01F8
7C00F8
7C007C
78007C
F8007C
F8007C
F8003C
F8007C
78007C
7C007C
7C00F8
3E00F8
3F03F0
1FFFE0
0FFFC0
07FF80
01FE00
003000
006000
006000
00C000
00C000
00C400
00FC00
00FC00
007800
ENDCHAR
STARTCHAR Aringacute
ENCODING 506
SWIDTH 738 0
DWIDTH 29 0
BBX 29 44 0 0
BITMAP
0000C000
0001F800
0003F000
0003E000
00078000
00000000
00000000
000F8000
001FC000
0038E000
00306000
00306000
00306000
0038E000
001FC000
000F0000
00000000
000F8000
001F8000
001FC000
001FC000
003FE000
003DE000
007DF000
0079F000
00F8F800
00F0F800
01F07800
01E07C00
01E03C00
03E03E00
03C03E00
07C01F00
07801F00
0FFFFF80
0FFFFF80
1FFFFF80
1FFFFFC0
3E0007C0
3E0003E0
3C0003E0
7C0001F0
780001F0
F80000F8
ENDCHAR
STARTCHAR aringacute
ENCODING 507
SWIDTH 586 0
DWIDTH 23 0
BBX 18 40 2 -1
BITMAP
001800
003F00
007E00
00F800
00F000
000000
000000
01E000
03F800
071800
060C00
060C00
060C00
071800
03F800
01E000
000000
03F800
1FFE00
7FFF00
7FFF80
380FC0
2007C0
0007C0
0003C0
0003C0
0FFFC0
3FFFC0
7FFFC0
FC03C0
F003C0
F003C0
F003C0
F007C0
F007C0
F81FC0
FFFFC0
7FFFC0
3FF3C0
0FC000
ENDCHAR
STARTCHAR AEacute
ENCODING 508
SWIDTH 1051 0
DWIDTH 41 0
BBX 39 36 0 0
BITMAP
0000002000
0000007800
0000007E00
000000F800
000001F000
000001E000
0000000000
0000000000
0000000000
0000FFFFFC
0001FFFFFC
0003FFFFFC
0003FFFFFC
0007DF0000
00079F0000
000F9F0000
001F1F0000
001E1F0000
003E1F0000
003C1F0000
007C1FFFF8
00781FFFF8
00F81FFFF8
01F01FFFF8
01F01F0000
03E01F0000
03FFFF0000
07FFFF0000
0FFFFF0000
0FFFFF0000
1F001F0000
1F001F0000
3E001FFFFE
7C001FFFFE
7C001FFFFE
F8001FFFFE
ENDCHAR
STARTCHAR aeacute
ENCODING 509
SWIDTH 975 0
DWIDTH 38 0
BBX 35 31 2 -1
BITMAP
0000100000
00003C0000
00007E0000
0000F80000
0000F00000
0001000000
0000000000
0000000000
03F807F000
1FFF1FFC00
7FFFBFFE00
7FFFFE3F00
780FF80F80
2007F00780
0007E007C0
0003E003C0
0003E003C0
0003C003E0
0FFFFFFFE0
3FFFFFFFE0
7F03C00000
F803C00000
F003E00000
F003E00000
F007E00000
F007F00300
F80EFC0F00
FC3E7FFF80
7FFC3FFF00
3FF81FFE00
0FC007F000
ENDCHAR
STARTCHAR Oslashacute
ENCODING 510
SWIDTH 810 0
DWIDTH 32 0
BBX 29 38 1 -3
BITMAP
0000E000
0001F800
0003F000
0003E000
00078000
00000000
000000C0
000001C0
001FE380
00FFFF00
03FFFF00
07FFFF80
0FF07FC0
1FC01FE0
1F003FE0
3E0033F0
7E0071F0
7C00E1F8
7C00C0F8
7801C0F8
F80380F8
F8030078
F8070078
F80E00F8
780C00F8
7C1C00F8
7C3800F8
7E3001F0
3F7003F0
3FE007E0
1FE00FC0
0FF03FC0
07FFFF00
03FFFE00
07FFF800
061FE000
0E000000
1C000000
ENDCHAR
STARTCHAR oslashacute
ENCODING 511
SWIDTH 625 0
DWIDTH 24 0
BBX 22 35 1 -5
BITMAP
000400
000F80
001F80
003F00
003C00
004060
0000C0
0000C0
00FF80
07FF80
0FFFE0
1FFFF0
3F07F0
3E06F8
7C0CF8
780C7C
780C7C
78183C
F8183C
F8303C
F8303C
F8603C
78607C
78C078
7CC078
3EC0F8
3F81F0
1FEFE0
0FFFC0
07FF80
06FE00
060000
0C0000
0C0000
180000
ENDCHAR
STARTCHAR uni0200
ENCODING 512
SWIDTH 738 0
DWIDTH 29 0
BBX 29 36 0 0
BITMAP
00418000
01E78000
01E7C000
00F3C000
0079E000
0078E000
00000000
00000000
00000000
000F8000
001F8000
001FC000
001FC000
003FE000
003DE000
007DF000
0079F000
00F8F800
00F0F800
01F07800
01E07C00
01E03C00
03E03E00
03C03E00
07C01F00
07801F00
0FFFFF80
0FFFFF80
1FFFFF80
1FFFFFC0
3E0007C0
3E0003E0
3C0003E0
7C0001F0
780001F0
F80000F8
ENDCHAR
STARTCHAR uni0201
ENCODING 513
SWIDTH 586 0
DWIDTH 23 0
BBX 18 32 2 -1
BITMAP
081000
3CF000
3CF800
3E7800
1E3C00
0F1C00
000000
000000
000000
03F800
1FFE00
7FFF00
7FFF80
380FC0
2007C0
0007C0
0003C0
0003C0
0FFFC0
3FFFC0
7FFFC0
FC03C0
F003C0
F003C0
F003C0
F007C0
F007C0
F81FC0
FFFFC0
7FFFC0
3FF3C0
0FC000
ENDCHAR
STARTCHAR uni0202
ENCODING 514
SWIDTH 738 0
DWIDTH 29 0
BBX 29 35 0 0
BITMAP
000F8000
001FC000
003FE000
0078F000
00707000
00000000
00000000
00000000
000F8000
001F8000
001FC000
001FC000
003FE000
003DE000
007DF000
0079F000
00F8F800
00F0F800
01F07800
01E07C00
01E03C00
03E03E00
03C03E00
07C01F00
07801F00
0FFFFF80
0FFFFF80
1FFFFF80
1FFFFFC0
3E0007C0
3E0003E0
3C0003E0
7C0001F0
780001F0
F80000F8
ENDCHAR
STARTCHAR uni0203
ENCODING 515
SWIDTH 586 0
DWIDTH 23 0
BBX 18 31 2 -1
BITMAP
01F000
07F800
07FC00
0F1C00
0E0E00
0E0E00
000000
000000
03F800
1FFE00
7FFF00
7FFF80
380FC0
2007C0
0007C0
0003C0
0003C0
0FFFC0
3FFFC0
7FFFC0
FC03C0
F003C0
F003C0
F003C0
F007C0
F007C0
F81FC0
FFFFC0
7FFFC0
3FF3C0
0FC000
ENDCHAR
STARTCHAR uni0204
ENCODING 516
SWIDTH 656 0
DWIDTH 26 0
BBX 20 36 4 0
BITMAP
0C1000
3CF800
3E7800
1E7C00
0F3C00
071E00
000000
000000
000000
FFFFE0
FFFFE0
FFFFE0
FFFFE0
F00000
F00000
F00000
F00000
F00000
F00000
F00000
FFFFC0
FFFFC0
FFFFC0
FFFFC0
F00000
F00000
F00000
F00000
F00000
F00000
F00000
F00000
FFFFF0
FFFFF0
FFFFF0
FFFFF0
ENDCHAR
STARTCHAR uni0205
ENCODING 517
SWIDTH 588 0
DWIDTH 23 0
BBX 21 32 1 -1
BITMAP
020800
1E3800
1F7C00
0F3E00
079E00
038F00
000000
000000
000000
00FE00
07FF80
0FFFC0
1FFFE0
3F03E0
3E01F0
7C00F0
7800F0
7800F0
780078
FFFFF8
FFFFF8
FFFFF8
F80000
780000
7C0000
7C0000
3E00C0
3F01E0
1FFFF0
0FFFC0
07FF80
01FE00
ENDCHAR
STARTCHAR uni0206
ENCODING 518
SWIDTH 656 0
DWIDTH 26 0
BBX 20 35 4 0
BITMAP
01F000
03FC00
07FC00
071E00
0E0E00
000000
000000
000000
FFFFE0
FFFFE0
FFFFE0
FFFFE0
F00000
F00000
F00000
F00000
F00000
F00000
F00000
FFFFC0
FFFFC0
FFFFC0
FFFFC0
F00000
F00000
F00000
F00000
F00000
F00000
F00000
F00000
FFFFF0
FFFFF0
FFFFF0
FFFFF0
ENDCHAR
STARTCHAR uni0207
ENCODING 519
SWIDTH 588 0
DWIDTH 23 0
BBX 21 31 1 -1
BITMAP
00F800
01FE00
03FE00
038F00
070700
070700
000000
000000
00FE00
07FF80
0FFFC0
1FFFE0
3F03E0
3E01F0
7C00F0
7800F0
7800F0
780078
FFFFF8
FFFFF8
FFFFF8
F80000
780000
7C0000
7C0000
3E00C0
3F01E0
1FFFF0
0FFFC0
07FF80
01FE00
ENDCHAR
STARTCHAR uni0208
ENCODING 520
SWIDTH 302 0
DWIDTH 12 0
BBX 13 36 -2 0
BITMAP
3040
F1E0
F9E0
78F0
3CF0
1E78
0000
0000
0000
03C0
03C0
03C0
03C0
03C0
03C0
03C0
03C0
03C0
03C0
03C0
03C0
03C0
03C0
03C0
03C0
03C0
03C0
03C0
03C0
03C0
03C0
03C0
03C0
03C0
03C0
03C0
ENDCHAR
STARTCHAR uni0209
ENCODING 521
SWIDTH 284 0
DWIDTH 11 0
BBX 13 30 -2 0
BITMAP
2040
F3C0
FBE0
79F0
3CF0
1C78
0000
0000
0000
07C0
07C0
07C0
07C0
07C0
07C0
07C0
07C0
07C0
07C0
07C0
07C0
07C0
07C0
07C0
07C0
07C0
07C0
07C0
07C0
07C0
ENDCHAR
STARTCHAR uni020A
ENCODING 522
SWIDTH 302 0
DWIDTH 12 0
BBX 11 35 0 0
BITMAP
0F00
3FC0
7FE0
71E0
F0E0
0000
0000
0000
0F00
0F00
0F00
0F00
0F00
0F00
0F00
0F00
0F00
0F00
0F00
0F00
0F00
0F00
0F00
0F00
0F00
0F00
0F00
0F00
0F00
0F00
0F00
0F00
0F00
0F00
0F00
ENDCHAR
STARTCHAR uni020B
ENCODING 523
SWIDTH 284 0
DWIDTH 11 0
BBX 11 30 0 0
BITMAP
1F00
3F80
7FC0
F1E0
E0E0
E0E0
0000
0000
0000
1F00
1F00
1F00
1F00
1F00
1F00
1F00
1F00
1F00
1F00
1F00
1F00
1F00
1F00
1F00
1F00
1F00
1F00
1F00
1F00
1F00
ENDCHAR
STARTCHAR uni020C
ENCODING 524
SWIDTH 810 0
DWIDTH 32 0
BBX 29 37 1 -1
BITMAP
00408000
01E38000
01F7C000
00F3E000
0079E000
0078F000
00000000
00000000
00000000
001FE000
00FFFC00
03FFFE00
07FFFF80
0FF07FC0
1FC00FC0
1F0007E0
3E0003F0
7E0001F0
7C0001F8
7C0000F8
780000F8
F80000F8
F8000078
F8000078
F80000F8
780000F8
7C0000F8
7C0000F8
7E0001F0
3F0003F0
1F8007E0
1FC00FC0
0FF03FC0
07FFFF00
03FFFE00
00FFF800
001FE000
ENDCHAR
STARTCHAR uni020D
ENCODING 525
SWIDTH 625 0
DWIDTH 24 0
BBX 22 32 1 -1
BITMAP
020400
0F3C00
0F3E00
0F9E00
078F00
03C700
000000
000000
000000
00FE00
07FF80
0FFFC0
1FFFE0
3F03F0
3E01F8
7C00F8
7C007C
78007C
78007C
F8007C
F8003C
F8007C
78007C
78007C
7C0078
7C00F8
3E01F8
3F03F0
1FFFE0
0FFFC0
07FF80
00FE00
ENDCHAR
STARTCHAR uni020E
ENCODING 526
SWIDTH 810 0
DWIDTH 32 0
BBX 29 36 1 -1
BITMAP
000F8000
001FC000
003FE000
0078F000
00707000
00000000
00000000
00000000
001FE000
00FFFC00
03FFFE00
07FFFF80
0FF07FC0
1FC00FC0
1F0007E0
3E0003F0
7E0001F0
7C0001F8
7C0000F8
780000F8
F80000F8
F8000078
F8000078
F80000F8
780000F8
7C0000F8
7C0000F8
7E0001F0
3F0003F0
1F8007E0
1FC00FC0
0FF03FC0
07FFFF00
03FFFE00
00FFF800
001FE000
ENDCHAR
STARTCHAR uni020F
ENCODING 527
SWIDTH 625 0
DWIDTH 24 0
BBX 22 31 1 -1
BITMAP
007C00
01FE00
01FF00
03C700
038780
038380
000000
000000
00FE00
07FF80
0FFFC0
1FFFE0
3F03F0
3E01F8
7C00F8
7C007C
78007C
78007C
F8007C
F8003C
F8007C
78007C
78007C
7C0078
7C00F8
3E01F8
3F03F0
1FFFE0
0FFFC0
07FF80
00FE00
ENDCHAR
STARTCHAR uni0210
ENCODING 528
SWIDTH 723 0
DWIDTH 28 0
BBX 22 36 4 0
BITMAP
0C1000
3C7800
3E7800
1E3C00
0F3C00
071E00
000000
000000
000000
FFFE00
FFFF80
FFFFE0
FFFFF0
F003F8
F000F8
F00078
F0007C
F0007C
F0007C
F0007C
F00078
F00078
F000F8
F003F0
FFFFF0
FFFFE0
FFFF80
FFFF00
F00F80
F007C0
F007C0
F003E0
F001F0
F001F0
F000F8
F0007C
ENDCHAR
STARTCHAR uni0211
ENCODING 529
SWIDTH 394 0
DWIDTH 15 0
BBX 13 30 2 0
BITMAP
20C0
F3C0
F3E0
79E0
78F0
3C70
0000
0000
0038
7CF8
7DF8
7FF8
7FE0
7F00
7E00
7E00
7C00
7C00
7C00
7C00
7C00
7C00
7C00
7C00
7C00
7C00
7C00
7C00
7C00
7C00
ENDCHAR
STARTCHAR uni0212
ENCODING 530
SWIDTH 723 0
DWIDTH 28 0
BBX 22 35 4 0
BITMAP
00F000
03FC00
07FE00
071E00
0F0E00
000000
000000
000000
FFFE00
FFFF80
FFFFE0
FFFFF0
F003F8
F000F8
F00078
F0007C
F0007C
F0007C
F0007C
F00078
F00078
F000F8
F003F0
FFFFF0
FFFFE0
FFFF80
FFFF00
F00F80
F007C0
F007C0
F003E0
F001F0
F001F0
F000F8
F0007C
ENDCHAR
STARTCHAR uni0213
ENCODING 531
SWIDTH 394 0
DWIDTH 15 0
BBX 12 30 3 0
BITMAP
0F80
3FC0
3FE0
78E0
7070
7070
0000
0000
0070
F9F0
FBF0
FFF0
FFC0
FE00
FC00
FC00
F800
F800
F800
F800
F800
F800
F800
F800
F800
F800
F800
F800
F800
F800
ENDCHAR
STARTCHAR uni0214
ENCODING 532
SWIDTH 764 0
DWIDTH 30 0
BBX 24 37 3 -1
BITMAP
030400
0F1E00
0F9E00
078F00
03CF00
01E780
000000
000000
000000
F8001F
F8001F
F8001F
F8001F
F8001F
F8001F
F8001F
F8001F
F8001F
F8001F
F8001F
F8001F
F8001F
F8001F
F8001F
F8001F
F8001F
F8001F
F8001F
F8001F
7C003E
7C003E
7E007C
3FC1FC
1FFFF8
0FFFF0
07FFC0
00FF00
ENDCHAR
STARTCHAR uni0215
ENCODING 533
SWIDTH 653 0
DWIDTH 25 0
BBX 19 31 3 -1
BITMAP
083000
3CF000
3CF800
1E7800
0F3C00
0F1C00
000000
000000
000000
F001E0
F001E0
F001E0
F001E0
F001E0
F001E0
F001E0
F001E0
F001E0
F001E0
F001E0
F001E0
F001E0
F003E0
F003E0
F807E0
FC07E0
FE1FE0
7FFDE0
7FFDE0
3FF1E0
0FC000
ENDCHAR
STARTCHAR uni0216
ENCODING 534
SWIDTH 764 0
DWIDTH 30 0
BBX 24 36 3 -1
BITMAP
003C00
00FF00
01FF80
01C780
03C380
000000
000000
000000
F8001F
F8001F
F8001F
F8001F
F8001F
F8001F
F8001F
F8001F
F8001F
F8001F
F8001F
F8001F
F8001F
F8001F
F8001F
F8001F
F8001F
F8001F
F8001F
F8001F
7C003E
7C003E
7E007C
3FC1FC
1FFFF8
0FFFF0
07FFC0
00FF00
ENDCHAR
STARTCHAR uni0217
ENCODING 535
SWIDTH 653 0
DWIDTH 25 0
BBX 19 31 3 -1
BITMAP
01F000
03F800
07FC00
0F1E00
0E0E00
0E0E00
000000
000000
000000
F001E0
F001E0
F001E0
F001E0
F001E0
F001E0
F001E0
F001E0
F001E0
F001E0
F001E0
F001E0
F001E0
F003E0
F003E0
F807E0
FC07E0
FE1FE0
7FFDE0
7FFDE0
3FF1E0
0FC000
ENDCHAR
STARTCHAR Scommaaccent
ENCODING 536
SWIDTH 622 0
DWIDTH 24 0
BBX 21 39 1 -11
BITMAP
00FF00
07FFE0
0FFFF8
1FFFF8
3FC7F0
3F00F0
3E0020
3E0000
3E0000
3F0000
3F8000
3FE000
1FFC00
0FFF80
07FFC0
00FFF0
001FF0
0007F8
0001F8
0000F8
0000F8
6000F8
7800F8
7C01F8
FFC7F8
7FFFF0
3FFFE0
0FFFC0
01FE00
000000
000000
003800
007C00
007C00
007800
003800
007000
006000
00E000
ENDCHAR
STARTCHAR scommaaccent
ENCODING 537
SWIDTH 470 0
DWIDTH 18 0
BBX 16 33 1 -11
BITMAP
07F0
1FFE
3FFF
3FFE
7C0E
7800
7800
7C00
7F00
3FC0
3FF8
1FFC
07FE
00FF
003F
001F
000F
600F
701F
FFFE
FFFE
3FFC
0FE0
0000
0000
03C0
03C0
03C0
03C0
01C0
0380
0300
0700
ENDCHAR
STARTCHAR uni021A
ENCODING 538
SWIDTH 579 0
DWIDTH 23 0
BBX 22 37 0 -10
BITMAP
FFFFFC
FFFFFC
FFFFFC
FFFFFC
007C00
007C00
007C00
007C00
007C00
007C00
007C00
007C00
007C00
007C00
007C00
007C00
007C00
007C00
007C00
007C00
007C00
007C00
007C00
007C00
007C00
007C00
007C00
000000
000000
003800
007C00
007C00
007800
003800
007000
007000
006000
ENDCHAR
STARTCHAR uni021B
ENCODING 539
SWIDTH 407 0
DWIDTH 16 0
BBX 14 36 1 -11
BITMAP
1F00
1F00
1F00
1F00
1F00
1F00
FFFC
FFFC
FFFC
1F00
1F00
1F00
1F00
1F00
1F00
1F00
1F00
1F00
1F00
1F00
1F00
1F08
0FF8
0FFC
07FC
03F0
0000
0000
01C0
03E0
03E0
01E0
01C0
0180
0380
0300
ENDCHAR
STARTCHAR uni022A
ENCODING 554
SWIDTH 810 0
DWIDTH 32 0
BBX 29 42 1 -1
BITMAP
003FF000
003FF000
003FF000
00000000
00000000
00000000
00387000
0078F000
0078F000
0078F000
00306000
00000000
00000000
00000000
001FE000
00FFFC00
03FFFE00
07FFFF80
0FF07FC0
1FC00FC0
1F0007E0
3E0003F0
7E0001F0
7C0001F8
7C0000F8
780000F8
F80000F8
F8000078
F8000078
F80000F8
780000F8
7C0000F8
7C0000F8
7E0001F0
3F0003F0
1F8007E0
1FC00FC0
0FF03FC0
07FFFF00
03FFFE00
00FFF800
001FE000
ENDCHAR
STARTCHAR uni022B
ENCODING 555
SWIDTH 625 0
DWIDTH 24 0
BBX 22 37 1 -1
BITMAP
03FF00
03FF00
03FF00
000000
000000
000000
038700
03CF80
07CF80
03CF80
038700
000000
000000
000000
00FE00
07FF80
0FFFC0
1FFFE0
3F03F0
3E01F8
7C00F8
7C007C
78007C
78007C
F8007C
F8003C
F8007C
78007C
78007C
7C0078
7C00F8
3E01F8
3F03F0
1FFFE0
0FFFC0
07FF80
00FE00
ENDCHAR
STARTCHAR uni022C
ENCODING 556
SWIDTH 810 0
DWIDTH 32 0
BBX 29 42 1 -1
BITMAP
003FF000
003FF000
003FF000
00000000
00000000
003C0000
007E3800
007F7800
00F7F800
00E3F000
0000E000
00000000
00000000
00000000
001FE000
00FFFC00
03FFFE00
07FFFF80
0FF07FC0
1FC00FC0
1F0007E0
3E0003F0
7E0001F0
7C0001F8
7C0000F8
780000F8
F80000F8
F8000078
F8000078
F80000F8
780000F8
7C0000F8
7C0000F8
7E0001F0
3F0003F0
1F8007E0
1FC00FC0
0FF03FC0
07FFFF00
03FFFE00
00FFF800
001FE000
ENDCHAR
STARTCHAR uni022D
ENCODING 557
SWIDTH 625 0
DWIDTH 24 0
BBX 22 36 1 -1
BITMAP
03FF00
03FF00
03FF00
000000
000000
000180
03E180
03F380
07FF80
073F80
000F00
000000
000000
00FE00
07FF80
0FFFC0
1FFFE0
3F03F0
3E01F8
7C00F8
7C007C
78007C
78007C
F8007C
F8003C
F8007C
78007C
78007C
7C0078
7C00F8
3E01F8
3F03F0
1FFFE0
0FFFC0
07FF80
00FE00
ENDCHAR
STARTCHAR uni0230
ENCODING 560
SWIDTH 810 0
DWIDTH 32 0
BBX 29 41 1 -1
BITMAP
003FF000
003FF000
003FF000
00000000
00000000
00078000
000F8000
000F8000
000F8000
00070000
00000000
00000000
00000000
001FE000
00FFFC00
03FFFE00
07FFFF80
0FF07FC0
1FC00FC0
1F0007E0
3E0003F0
7E0001F0
7C0001F8
7C0000F8
780000F8
F80000F8
F8000078
F8000078
F80000F8
780000F8
7C0000F8
7C0000F8
7E0001F0
3F0003F0
1F8007E0
1FC00FC0
0FF03FC0
07FFFF00
03FFFE00
00FFF800
001FE000
ENDCHAR
STARTCHAR uni0231
ENCODING 561
SWIDTH 625 0
DWIDTH 24 0
BBX 22 36 1 -1
BITMAP
03FF00
03FF00
03FF00
000000
000000
007800
007C00
007C00
007C00
003800
000000
000000
000000
00FE00
07FF80
0FFFC0
1FFFE0
3F03F0
3E01F8
7C00F8
7C007C
78007C
78007C
F8007C
F8003C
F8007C
78007C
78007C
7C0078
7C00F8
3E01F8
3F03F0
1FFFE0
0FFFC0
07FF80
00FE00
ENDCHAR
STARTCHAR uni0232
ENCODING 562
SWIDTH 637 0
DWIDTH 25 0
BBX 25 34 0 0
BITMAP
01FF8000
01FF8000
01FF8000
00000000
00000000
00000000
00000000
F8000F80
7C001F00
7C001E00
3E003E00
1E007C00
1F007C00
0F80F800
0F80F800
07C1F000
07C1F000
03E3E000
03F7C000
01F7C000
00FF8000
00FF8000
007F0000
007F0000
003E0000
003E0000
003E0000
003E0000
003E0000
003E0000
003E0000
003E0000
003E0000
003E0000
ENDCHAR
STARTCHAR uni0233
ENCODING 563
SWIDTH 531 0
DWIDTH 21 0
BBX 21 37 0 -9
BITMAP
07FE00
07FE00
07FE00
000000
000000
000000
000000
F800F8
F800F0
7800F0
7C01F0
3C01E0
3E01E0
3E03C0
1E03C0
1F07C0
0F0780
0F0780
0F8F80
078F00
078F00
03DE00
03DE00
03FE00
01FC00
01FC00
01FC00
00F800
00F800
00F000
00F000
01F000
63E000
7FE000
FFC000
FF8000
3E0000
ENDCHAR
STARTCHAR uni0237
ENCODING 567
SWIDTH 274 0
DWIDTH 11 0
BBX 12 30 -4 -9
BITMAP
01F0
01F0
01F0
01F0
01F0
01F0
01F0
01F0
01F0
01F0
01F0
01F0
01F0
01F0
01F0
01F0
01F0
01F0
01F0
01F0
01F0
01F0
01F0
01F0
01F0
43E0
7FE0
7FE0
FFC0
3F00
ENDCHAR
STARTCHAR uni0259
ENCODING 601
SWIDTH 588 0
DWIDTH 23 0
BBX 21 23 1 -1
BITMAP
03FC00
0FFF00
1FFF80
7FFFC0
3C07E0
1803E0
0001F0
0001F0
0000F0
0000F8
FFFFF8
FFFFF8
FFFFF8
F000F0
7000F0
7800F0
7801F0
7C03E0
3E07E0
3FFFC0
1FFF80
0FFF00
03F800
ENDCHAR
STARTCHAR uni02BB
ENCODING 699
SWIDTH 0 0
DWIDTH 0 0
BBX 4 8 -4 19
BITMAP
70
70
70
F0
F0
F0
F0
10
ENDCHAR
STARTCHAR uni02BC
ENCODING 700
SWIDTH 174 0
DWIDTH 7 0
BBX 5 8 1 22
BITMAP
70
F8
F8
F8
70
70
E0
C0
ENDCHAR
STARTCHAR uni02BE
ENCODING 702
SWIDTH 350 0
DWIDTH 14 0
BBX 4 9 7 22
BITMAP
C0
E0
70
30
30
30
70
E0
C0
ENDCHAR
STARTCHAR uni02BF
ENCODING 703
SWIDTH 350 0
DWIDTH 14 0
BBX 5 9 2 23
BITMAP
18
78
60
C0
C0
C0
60
78
18
ENDCHAR
STARTCHAR circumflex
ENCODING 710
SWIDTH 350 0
DWIDTH 14 0
BBX 12 5 1 24
BITMAP
1F80
3F80
3BC0
71E0
F0F0
ENDCHAR
STARTCHAR caron
ENCODING 711
SWIDTH 350 0
DWIDTH 14 0
BBX 12 6 1 24
BITMAP
F0F0
F1E0
79E0
3FC0
3F80
1F00
ENDCHAR
STARTCHAR uni02C8
ENCODING 712
SWIDTH 123 0
DWIDTH 5 0
BBX 3 7 1 20
BITMAP
E0
E0
E0
E0
E0
E0
E0
ENDCHAR
STARTCHAR uni02C9
ENCODING 713
SWIDTH 350 0
DWIDTH 14 0
BBX 10 3 2 25
BITMAP
FFC0
FFC0
FFC0
ENDCHAR
STARTCHAR uni02CA
ENCODING 714
SWIDTH 350 0
DWIDTH 14 0
BBX 8 6 3 24
BITMAP
18
1E
3F
7C
F8
F0
ENDCHAR
STARTCHAR uni02CB
ENCODING 715
SWIDTH 350 0
DWIDTH 14 0
BBX 8 6 3 24
BITMAP
10
F8
FC
7C
3E
0F
ENDCHAR
STARTCHAR uni02CC
ENCODING 716
SWIDTH 123 0
DWIDTH 5 0
BBX 3 7 1 -8
BITMAP
E0
E0
E0
E0
E0
E0
E0
ENDCHAR
STARTCHAR breve
ENCODING 728
SWIDTH 350 0
DWIDTH 14 0
BBX 11 5 1 25
BITMAP
E0E0
70E0
71E0
7FC0
3F80
ENDCHAR
STARTCHAR dotaccent
ENCODING 729
SWIDTH 350 0
DWIDTH 14 0
BBX 5 5 4 24
BITMAP
78
F8
F8
F8
70
ENDCHAR
STARTCHAR ring
ENCODING 730
SWIDTH 350 0
DWIDTH 14 0
BBX 9 9 2 22
BITMAP
1E00
7F00
6380
C180
C180
C180
6380
7F00
1E00
ENDCHAR
STARTCHAR ogonek
ENCODING 731
SWIDTH 350 0
DWIDTH 14 0
BBX 6 8 4 -9
BITMAP
70
60
C0
C0
C0
FC
FC
70
ENDCHAR
STARTCHAR tilde
ENCODING 732
SWIDTH 350 0
DWIDTH 14 0
BBX 12 6 1 24
BITMAP
0070
7870
FE70
FFF0
E7E0
C3E0
ENDCHAR
STARTCHAR hungarumlaut
ENCODING 733
SWIDTH 350 0
DWIDTH 14 0
BBX 13 6 0 24
BITMAP
1060
1E78
3CF8
7CF0
79E0
F1C0
ENDCHAR
STARTCHAR gravecomb
ENCODING 768
SWIDTH 0 0
DWIDTH 0 0
BBX 8 6 -5 24
BITMAP
10
F8
F8
7C
3E
1F
ENDCHAR
STARTCHAR acutecomb
ENCODING 769
SWIDTH 0 0
DWIDTH 0 0
BBX 8 6 -2 24
BITMAP
08
1E
3F
7E
78
F0
ENDCHAR
STARTCHAR uni0302
ENCODING 770
SWIDTH 0 0
DWIDTH 0 0
BBX 12 5 -6 24
BITMAP
1F80
3FC0
39C0
79E0
F0F0
ENDCHAR
STARTCHAR tildecomb
ENCODING 771
SWIDTH 0 0
DWIDTH 0 0
BBX 12 6 -6 24
BITMAP
0070
7870
FE70
FFF0
E7F0
E1E0
ENDCHAR
STARTCHAR uni0304
ENCODING 772
SWIDTH 0 0
DWIDTH 0 0
BBX 10 3 -5 25
BITMAP
FFC0
FFC0
FFC0
ENDCHAR
STARTCHAR uni0306
ENCODING 774
SWIDTH 0 0
DWIDTH 0 0
BBX 10 5 -5 25
BITMAP
E1C0
E1C0
F3C0
7F80
3F00
ENDCHAR
STARTCHAR uni0307
ENCODING 775
SWIDTH 0 0
DWIDTH 0 0
BBX 6 5 -3 24
BITMAP
78
7C
FC
78
78
ENDCHAR
STARTCHAR uni0308
ENCODING 776
SWIDTH 0 0
DWIDTH 0 0
BBX 12 5 -6 25
BITMAP
70E0
F9F0
F9F0
F9F0
70E0
ENDCHAR
STARTCHAR hookabovecomb
ENCODING 777
SWIDTH 0 0
DWIDTH 0 0
BBX 8 7 -4 23
BITMAP
7C
FE
C7
47
07
06
1C
ENDCHAR
STARTCHAR uni030A
ENCODING 778
SWIDTH 0 0
DWIDTH 0 0
BBX 10 9 -5 22
BITMAP
1E00
3F00
6180
61C0
C0C0
6180
6180
3F00
1E00
ENDCHAR
STARTCHAR uni030B
ENCODING 779
SWIDTH 0 0
DWIDTH 0 0
BBX 12 6 -6 24
BITMAP
3040
3CF0
7CF0
79E0
F1C0
E3C0
ENDCHAR
STARTCHAR uni030C
ENCODING 780
SWIDTH 0 0
DWIDTH 0 0
BBX 12 6 -6 24
BITMAP
F0F0
70E0
79E0
3FC0
1F80
1F80
ENDCHAR
STARTCHAR uni030F
ENCODING 783
SWIDTH 0 0
DWIDTH 0 0
BBX 13 6 -8 24
BITMAP
1040
F1E0
F9E0
7CF0
3C78
1E78
ENDCHAR
STARTCHAR uni0311
ENCODING 785
SWIDTH 0 0
DWIDTH 0 0
BBX 10 6 -5 24
BITMAP
1E00
7F80
FFC0
F3C0
E1C0
E1C0
ENDCHAR
STARTCHAR uni0312
ENCODING 786
SWIDTH 0 0
DWIDTH 0 0
BBX 5 8 -2 23
BITMAP
38
30
70
E0
F0
F0
F0
70
ENDCHAR
STARTCHAR uni031B
ENCODING 795
SWIDTH 0 0
DWIDTH 0 0
BBX 7 7 0 17
BITMAP
0E
0E
1E
3E
FC
F8
E0
ENDCHAR
STARTCHAR dotbelowcomb
ENCODING 803
SWIDTH 0 0
DWIDTH 0 0
BBX 6 5 -3 -7
BITMAP
78
78
FC
7C
78
ENDCHAR
STARTCHAR uni0324
ENCODING 804
SWIDTH 0 0
DWIDTH 0 0
BBX 12 5 -6 -7
BITMAP
70E0
F9F0
F9F0
F9F0
70E0
ENDCHAR
STARTCHAR uni0326
ENCODING 806
SWIDTH 0 0
DWIDTH 0 0
BBX 5 8 -3 -10
BITMAP
30
78
78
78
38
70
60
E0
ENDCHAR
STARTCHAR uni0327
ENCODING 807
SWIDTH 0 0
DWIDTH 0 0
BBX 7 9 -4 -9
BITMAP
38
38
38
7C
0E
0E
DE
FC
F8
ENDCHAR
STARTCHAR uni0328
ENCODING 808
SWIDTH 0 0
DWIDTH 0 0
BBX 6 8 -3 -9
BITMAP
70
60
C0
C0
C0
FC
FC
70
ENDCHAR
STARTCHAR uni032E
ENCODING 814
SWIDTH 0 0
DWIDTH 0 0
BBX 10 6 -5 -7
BITMAP
E1C0
E1C0
F1C0
FFC0
7F80
1E00
ENDCHAR
STARTCHAR uni0331
ENCODING 817
SWIDTH 0 0
DWIDTH 0 0
BBX 10 3 -5 -6
BITMAP
FFC0
FFC0
FFC0
ENDCHAR
STARTCHAR uni0335
ENCODING 821
SWIDTH 0 0
DWIDTH 0 0
BBX 12 3 -12 16
BITMAP
FFF0
FFF0
FFF0
ENDCHAR
STARTCHAR uni0394
ENCODING 916
SWIDTH 738 0
DWIDTH 29 0
BBX 29 27 0 0
BITMAP
000F8000
001F8000
001FC000
001FC000
003FE000
003DE000
007DF000
0079F000
00F8F800
00F0F800
01F07800
01E07C00
01E03C00
03E03E00
03C03E00
07C01F00
07801F00
0F800F80
0F000F80
1F000780
1F0007C0
3E0007C0
3E0003E0
3FFFFFE0
7FFFFFF0
7FFFFFF0
FFFFFFF8
ENDCHAR
STARTCHAR uni03A9
ENCODING 937
SWIDTH 882 0
DWIDTH 34 0
BBX 34 28 0 0
BITMAP
0007F80000
001FFF0000
007FFFC000
01FFFFE000
03FC0FF000
03F001F800
07C000FC00
0F80007C00
0F80003C00
0F00003E00
1F00001E00
1F00001E00
1E00001E00
1E00001E00
1E00001E00
1E00001E00
0F00001E00
0F00001C00
0F00003C00
0780003C00
07C0007800
03C000F000
01F001F000
00F803E000
FFF807FFC0
FFF807FFC0
FFF807FFC0
FFF807FFC0
ENDCHAR
STARTCHAR uni03BC
ENCODING 956
SWIDTH 675 0
DWIDTH 26 0
BBX 19 29 4 -8
BITMAP
F001E0
F001E0
F001E0
F001E0
F001E0
F001E0
F001E0
F001E0
F001E0
F001E0
F001E0
F001E0
F003E0
F003E0
F003E0
F807E0
F80FE0
FE1FE0
FFFDE0
FFF9E0
FFF1E0
FFC000
F00000
F00000
F00000
F00000
F00000
F00000
F00000
ENDCHAR
STARTCHAR pi
ENCODING 960
SWIDTH 725 0
DWIDTH 28 0
BBX 28 21 0 0
BITMAP
0FFFFFF0
3FFFFFF0
7FFFFFF0
FC783C00
F0783C00
E0703C00
E0703C00
E0F03C00
F0F03C00
F0F03C00
40F03C00
00F03C00
00F03C00
00F03C00
00E03C00
00E03C00
01E03C00
01E03C00
01E03C00
01E03C00
01E03C00
ENDCHAR
STARTCHAR uni1E08
ENCODING 7688
SWIDTH 697 0
DWIDTH 27 0
BBX 25 45 1 -9
BITMAP
00010000
0001C000
0003F000
0007E000
000F8000
000F0000
00000000
00000000
00000000
001FC000
00FFF800
03FFFE00
07FFFF00
0FF07F80
1FC00F00
3F000600
3E000000
7C000000
7C000000
7C000000
F8000000
F8000000
F8000000
F8000000
F8000000
7C000000
7C000000
7E000000
3E000000
3F000600
1FC00F00
0FF07F80
07FFFF00
03FFFE00
00FFF800
003FE000
000E0000
000E0000
000C0000
001F0000
00038000
00038000
00378000
003F0000
003E0000
ENDCHAR
STARTCHAR uni1E09
ENCODING 7689
SWIDTH 564 0
DWIDTH 22 0
BBX 19 39 1 -9
BITMAP
000C00
000F00
001F80
003E00
007C00
000000
000000
000000
01FE00
07FF80
0FFFE0
1FFFE0
3F03E0
3E00C0
7C0000
7C0000
780000
F80000
F80000
F80000
F80000
780000
7C0000
7C0000
3E00C0
3F83E0
1FFFE0
0FFFC0
07FF80
01FE00
006000
00E000
00E000
01F800
003800
001800
037800
03F000
01E000
ENDCHAR
STARTCHAR uni1E0C
ENCODING 7692
SWIDTH 775 0
DWIDTH 30 0
BBX 25 34 4 -7
BITMAP
FFFE0000
FFFFC000
FFFFE000
FFFFF800
F007FC00
F000FC00
F0007E00
F0003F00
F0001F00
F0001F00
F0000F80
F0000F80
F0000F80
F0000F80
F0000F80
F0000F80
F0000F80
F0001F00
F0001F00
F0003F00
F0007E00
F000FC00
F003FC00
FFFFF800
FFFFE000
FFFF8000
FFFE0000
00000000
00000000
00380000
007C0000
007C0000
007C0000
00780000
ENDCHAR
STARTCHAR uni1E0D
ENCODING 7693
SWIDTH 682 0
DWIDTH 27 0
BBX 22 37 1 -8
BITMAP
00003C
00003C
00003C
00003C
00003C
00003C
00003C
01FC3C
07FF3C
0FFFBC
1FFFBC
3F03FC
3E01FC
7C00FC
7C007C
78007C
78007C
F8003C
F8003C
F8003C
F8007C
78007C
7C007C
7C00FC
3E00FC
3F03FC
1FFFBC
0FFFBC
07FF3C
01F800
000000
000000
001E00
003E00
003F00
001E00
001C00
ENDCHAR
STARTCHAR uni1E0E
ENCODING 7694
SWIDTH 775 0
DWIDTH 30 0
BBX 25 33 4 -6
BITMAP
FFFE0000
FFFFC000
FFFFE000
FFFFF800
F007FC00
F000FC00
F0007E00
F0003F00
F0001F00
F0001F00
F0000F80
F0000F80
F0000F80
F0000F80
F0000F80
F0000F80
F0000F80
F0001F00
F0001F00
F0003F00
F0007E00
F000FC00
F003FC00
FFFFF800
FFFFE000
FFFF8000
FFFE0000
00000000
00000000
00000000
03FF0000
03FF0000
03FF0000
ENDCHAR
STARTCHAR uni1E0F
ENCODING 7695
SWIDTH 682 0
DWIDTH 27 0
BBX 22 35 1 -6
BITMAP
00003C
00003C
00003C
00003C
00003C
00003C
00003C
01FC3C
07FF3C
0FFFBC
1FFFBC
3F03FC
3E01FC
7C00FC
7C007C
78007C
78007C
F8003C
F8003C
F8003C
F8007C
78007C
7C007C
7C00FC
3E00FC
3F03FC
1FFFBC
0FFFBC
07FF3C
01F800
000000
000000
00FFC0
00FFC0
00FFC0
ENDCHAR
STARTCHAR uni1E14
ENCODING 7700
SWIDTH 656 0
DWIDTH 26 0
BBX 20 42 4 0
BITMAP
070000
1F8000
0FC000
03E000
01E000
000000
000000
000000
07FE00
07FE00
07FE00
000000
000000
000000
000000
FFFFE0
FFFFE0
FFFFE0
FFFFE0
F00000
F00000
F00000
F00000
F00000
F00000
F00000
FFFFC0
FFFFC0
FFFFC0
FFFFC0
F00000
F00000
F00000
F00000
F00000
F00000
F00000
F00000
FFFFF0
FFFFF0
FFFFF0
FFFFF0
ENDCHAR
STARTCHAR uni1E15
ENCODING 7701
SWIDTH 588 0
DWIDTH 23 0
BBX 21 37 1 -1
BITMAP
038000
0FC000
07E000
01F000
00F000
000000
000000
000000
03FF00
03FF00
03FF00
000000
000000
000000
00FE00
07FF80
0FFFC0
1FFFE0
3F03E0
3E01F0
7C00F0
7800F0
7800F0
780078
FFFFF8
FFFFF8
FFFFF8
F80000
780000
7C0000
7C0000
3E00C0
3F01E0
1FFFF0
0FFFC0
07FF80
01FE00
ENDCHAR
STARTCHAR uni1E16
ENCODING 7702
SWIDTH 656 0
DWIDTH 26 0
BBX 20 42 4 0
BITMAP
001C00
003F00
007E00
007C00
00F000
000000
000000
000000
07FE00
07FE00
07FE00
000000
000000
000000
000000
FFFFE0
FFFFE0
FFFFE0
FFFFE0
F00000
F00000
F00000
F00000
F00000
F00000
F00000
FFFFC0
FFFFC0
FFFFC0
FFFFC0
F00000
F00000
F00000
F00000
F00000
F00000
F00000
F00000
FFFFF0
FFFFF0
FFFFF0
FFFFF0
ENDCHAR
STARTCHAR uni1E17
ENCODING 7703
SWIDTH 588 0
DWIDTH 23 0
BBX 21 37 1 -1
BITMAP
000E00
001F80
003F00
003E00
007800
000000
000000
000000
03FF00
03FF00
03FF00
000000
000000
000000
00FE00
07FF80
0FFFC0
1FFFE0
3F03E0
3E01F0
7C00F0
7800F0
7800F0
780078
FFFFF8
FFFFF8
FFFFF8
F80000
780000
7C0000
7C0000
3E00C0
3F01E0
1FFFF0
0FFFC0
07FF80
01FE00
ENDCHAR
STARTCHAR uni1E1C
ENCODING 7708
SWIDTH 656 0
DWIDTH 26 0
BBX 20 45 4 -9
BITMAP
0E0E00
0F0E00
071E00
07FC00
03FC00
01F000
000000
000000
000000
FFFFE0
FFFFE0
FFFFE0
FFFFE0
F00000
F00000
F00000
F00000
F00000
F00000
F00000
FFFFC0
FFFFC0
FFFFC0
FFFFC0
F00000
F00000
F00000
F00000
F00000
F00000
F00000
F00000
FFFFF0
FFFFF0
FFFFF0
FFFFF0
00E000
00C000
01C000
01F000
003000
003800
03F000
07F000
03E000
ENDCHAR
STARTCHAR uni1E1D
ENCODING 7709
SWIDTH 588 0
DWIDTH 23 0
BBX 21 39 1 -9
BITMAP
070700
078700
03CF00
03FE00
01FC00
002000
000000
000000
00FE00
07FF80
0FFFC0
1FFFE0
3F03E0
3E01F0
7C00F0
7800F0
780078
780078
FFFFF8
FFFFF8
FFFFF8
780000
780000
7C0000
7E0040
3F01E0
1FFFF0
0FFFC0
07FF80
01FE00
007000
006000
00F000
00F800
001C00
001C00
01BC00
03F800
01F000
ENDCHAR
STARTCHAR uni1E20
ENCODING 7712
SWIDTH 749 0
DWIDTH 29 0
BBX 25 35 1 -1
BITMAP
007FE000
007FE000
007FE000
00000000
00000000
00000000
00000000
001FE000
00FFFC00
03FFFF80
07FFFF80
0FF03F80
1FC00F00
1F000200
3E000000
7E000000
7C000000
7C000000
78000000
F8000000
F8000000
F8000780
F8000780
78000780
7C000780
7C000780
7E000780
3F000780
3F800780
1FC00F80
0FF03F80
07FFFF80
03FFFF00
00FFFC00
001FE000
ENDCHAR
STARTCHAR uni1E21
ENCODING 7713
SWIDTH 640 0
DWIDTH 25 0
BBX 21 36 1 -8
BITMAP
03FF00
03FF00
03FF00
000000
000000
000000
01F800
07FE78
1FFF78
3FFFF8
3F03F8
7C01F8
7C00F8
7800F8
7800F8
F80078
F80078
F80078
7800F8
7800F8
7800F8
7C01F8
3E03F8
3FFFF8
1FFF78
0FFE78
03F878
0000F8
0000F8
0000F8
1001F0
1C03F0
3FFFE0
3FFFC0
0FFF00
03FC00
ENDCHAR
STARTCHAR uni1E24
ENCODING 7716
SWIDTH 791 0
DWIDTH 31 0
BBX 23 34 4 -7
BITMAP
F0001E
F0001E
F0001E
F0001E
F0001E
F0001E
F0001E
F0001E
F0001E
F0001E
F0001E
F0001E
FFFFFE
FFFFFE
FFFFFE
FFFFFE
F0001E
F0001E
F0001E
F0001E
F0001E
F0001E
F0001E
F0001E
F0001E
F0001E
F0001E
000000
000000
003800
007C00
007C00
007C00
007800
ENDCHAR
STARTCHAR uni1E25
ENCODING 7717
SWIDTH 669 0
DWIDTH 26 0
BBX 19 36 4 -7
BITMAP
F00000
F00000
F00000
F00000
F00000
F00000
F00000
F0FE00
F3FF80
F7FFC0
FFFFC0
FF1FE0
FC07E0
F803E0
F801E0
F001E0
F001E0
F001E0
F001E0
F001E0
F001E0
F001E0
F001E0
F001E0
F001E0
F001E0
F001E0
F001E0
F001E0
000000
000000
00E000
01F000
01F000
01F000
00E000
ENDCHAR
STARTCHAR uni1E2A
ENCODING 7722
SWIDTH 791 0
DWIDTH 31 0
BBX 23 34 4 -7
BITMAP
F0001E
F0001E
F0001E
F0001E
F0001E
F0001E
F0001E
F0001E
F0001E
F0001E
F0001E
F0001E
FFFFFE
FFFFFE
FFFFFE
FFFFFE
F0001E
F0001E
F0001E
F0001E
F0001E
F0001E
F0001E
F0001E
F0001E
F0001E
F0001E
000000
000000
038380
03C780
01FF00
01FE00
007C00
ENDCHAR
STARTCHAR uni1E2B
ENCODING 7723
SWIDTH 669 0
DWIDTH 26 0
BBX 19 36 4 -7
BITMAP
F00000
F00000
F00000
F00000
F00000
F00000
F00000
F0FE00
F3FF80
F7FFC0
FFFFC0
FF1FE0
FC07E0
F803E0
F801E0
F001E0
F001E0
F001E0
F001E0
F001E0
F001E0
F001E0
F001E0
F001E0
F001E0
F001E0
F001E0
F001E0
F001E0
000000
000000
0E0E00
0F1E00
07FC00
03F800
01F000
ENDCHAR
STARTCHAR uni1E2E
ENCODING 7726
SWIDTH 302 0
DWIDTH 12 0
BBX 12 43 0 0
BITMAP
0180
01E0
03F0
07E0
0780
0F00
0000
0000
70E0
F9F0
F9F0
F9E0
70E0
0000
0000
0000
0F00
0F00
0F00
0F00
0F00
0F00
0F00
0F00
0F00
0F00
0F00
0F00
0F00
0F00
0F00
0F00
0F00
0F00
0F00
0F00
0F00
0F00
0F00
0F00
0F00
0F00
0F00
ENDCHAR
STARTCHAR uni1E2F
ENCODING 7727
SWIDTH 284 0
DWIDTH 11 0
BBX 12 38 0 0
BITMAP
0180
03E0
03F0
07C0
0F80
0F00
0000
0000
70C0
F1E0
F1E0
F1E0
60C0
0000
0000
0000
0000
1F00
1F00
1F00
1F00
1F00
1F00
1F00
1F00
1F00
1F00
1F00
1F00
1F00
1F00
1F00
1F00
1F00
1F00
1F00
1F00
1F00
ENDCHAR
STARTCHAR uni1E36
ENCODING 7734
SWIDTH 534 0
DWIDTH 21 0
BBX 16 34 4 -7
BITMAP
F000
F000
F000
F000
F000
F000
F000
F000
F000
F000
F000
F000
F000
F000
F000
F000
F000
F000
F000
F000
F000
F000
F000
FFFF
FFFF
FFFF
FFFF
0000
0000
0380
07C0
07C0
07C0
03C0
ENDCHAR
STARTCHAR uni1E37
ENCODING 7735
SWIDTH 295 0
DWIDTH 12 0
BBX 5 36 3 -7
BITMAP
F8
F8
F8
F8
F8
F8
F8
F8
F8
F8
F8
F8
F8
F8
F8
F8
F8
F8
F8
F8
F8
F8
F8
F8
F8
F8
F8
F8
F8
00
00
70
F8
F8
F8
78
ENDCHAR
STARTCHAR uni1E3A
ENCODING 7738
SWIDTH 534 0
DWIDTH 21 0
BBX 16 33 4 -6
BITMAP
F000
F000
F000
F000
F000
F000
F000
F000
F000
F000
F000
F000
F000
F000
F000
F000
F000
F000
F000
F000
F000
F000
F000
FFFF
FFFF
FFFF
FFFF
0000
0000
0000
1FF8
1FF8
1FF8
ENDCHAR
STARTCHAR uni1E3B
ENCODING 7739
SWIDTH 295 0
DWIDTH 12 0
BBX 10 35 1 -6
BITMAP
3E00
3E00
3E00
3E00
3E00
3E00
3E00
3E00
3E00
3E00
3E00
3E00
3E00
3E00
3E00
3E00
3E00
3E00
3E00
3E00
3E00
3E00
3E00
3E00
3E00
3E00
3E00
3E00
3E00
0000
0000
0000
FFC0
FFC0
FFC0
ENDCHAR
STARTCHAR uni1E42
ENCODING 7746
SWIDTH 925 0
DWIDTH 36 0
BBX 28 34 4 -7
BITMAP
F80001F0
FC0003F0
FC0003F0
FE0007F0
FE0007F0
FF000FF0
FF000FF0
FF801FF0
F7801EF0
F7C03EF0
F3C03CF0
F3E07CF0
F1E078F0
F1F0F8F0
F0F0F0F0
F0F9F0F0
F079E0F0
F07FE0F0
F03FC0F0
F03FC0F0
F01F80F0
F01F80F0
F00F00F0
F00F00F0
F00000F0
F00000F0
F00000F0
00000000
00000000
00070000
000F0000
001F8000
000F8000
000F0000
ENDCHAR
STARTCHAR uni1E43
ENCODING 7747
SWIDTH 1043 0
DWIDTH 41 0
BBX 35 29 3 -7
BITMAP
007E00FC00
F9FF83FF00
FBFFC7FF80
FFFFEFFFC0
FF8FEF1FC0
FE03FC07E0
FC01F803E0
FC01F803E0
F801F003E0
F801F003E0
F801F003E0
F801F003E0
F801F003E0
F801F003E0
F801F003E0
F801F003E0
F801F003E0
F801F003E0
F801F003E0
F801F003E0
F801F003E0
F801F003E0
0000000000
0000000000
0000E00000
0001F00000
0001F00000
0001F00000
0000F00000
ENDCHAR
STARTCHAR uni1E44
ENCODING 7748
SWIDTH 792 0
DWIDTH 31 0
BBX 23 35 4 0
BITMAP
003C00
007C00
007C00
007C00
003800
000000
000000
000000
F0001E
F8001E
FC001E
FE001E
FF001E
FF001E
FF801E
FFC01E
F7E01E
F3E01E
F3F01E
F1F81E
F0FC1E
F07C1E
F07E1E
F03F1E
F01F9E
F00F9E
F00FDE
F007FE
F003FE
F001FE
F001FE
F000FE
F0007E
F0003E
F0003E
ENDCHAR
STARTCHAR uni1E45
ENCODING 7749
SWIDTH 663 0
DWIDTH 26 0
BBX 20 30 3 0
BITMAP
007000
00F800
00F800
00F800
007000
000000
000000
000000
007F00
F9FF80
FBFFC0
FFFFE0
FF8FF0
FE03F0
FC01F0
FC01F0
F800F0
F800F0
F800F0
F800F0
F800F0
F800F0
F800F0
F800F0
F800F0
F800F0
F800F0
F800F0
F800F0
F800F0
ENDCHAR
STARTCHAR uni1E46
ENCODING 7750
SWIDTH 792 0
DWIDTH 31 0
BBX 23 34 4 -7
BITMAP
F0001E
F8001E
FC001E
FE001E
FF001E
FF001E
FF801E
FFC01E
F7E01E
F3E01E
F3F01E
F1F81E
F0FC1E
F07C1E
F07E1E
F03F1E
F01F9E
F00F9E
F00FDE
F007FE
F003FE
F001FE
F001FE
F000FE
F0007E
F0003E
F0003E
000000
000000
003800
007C00
007C00
007C00
007800
ENDCHAR
STARTCHAR uni1E47
ENCODING 7751
SWIDTH 663 0
DWIDTH 26 0
BBX 20 29 3 -7
BITMAP
007F00
F9FF80
FBFFC0
FFFFE0
FF8FF0
FE03F0
FC01F0
FC01F0
F800F0
F800F0
F800F0
F800F0
F800F0
F800F0
F800F0
F800F0
F800F0
F800F0
F800F0
F800F0
F800F0
F800F0
000000
000000
007000
00F000
00F800
00F800
00F000
ENDCHAR
STARTCHAR uni1E48
ENCODING 7752
SWIDTH 792 0
DWIDTH 31 0
BBX 23 33 4 -6
BITMAP
F0001E
F8001E
FC001E
FE001E
FF001E
FF001E
FF801E
FFC01E
F7E01E
F3E01E
F3F01E
F1F81E
F0FC1E
F07C1E
F07E1E
F03F1E
F01F9E
F00F9E
F00FDE
F007FE
F003FE
F001FE
F001FE
F000FE
F0007E
F0003E
F0003E
000000
000000
000000
03FF00
03FF00
03FF00
ENDCHAR
STARTCHAR uni1E49
ENCODING 7753
SWIDTH 663 0
DWIDTH 26 0
BBX 20 28 3 -6
BITMAP
007F00
F9FF80
FBFFC0
FFFFE0
FF8FF0
FE03F0
FC01F0
FC01F0
F800F0
F800F0
F800F0
F800F0
F800F0
F800F0
F800F0
F800F0
F800F0
F800F0
F800F0
F800F0
F800F0
F800F0
000000
000000
000000
07FE00
07FE00
07FE00
ENDCHAR
STARTCHAR uni1E4C
ENCODING 7756
SWIDTH 810 0
DWIDTH 32 0
BBX 29 44 1 -1
BITMAP
00008000
0001F000
0001F800
0003E000
0007C000
00078000
00000000
003C0000
007E3800
007F7800
00F7F800
00E3F000
0000E000
00000000
00000000
00000000
001FE000
00FFFC00
03FFFE00
07FFFF80
0FF07FC0
1FC00FC0
1F0007E0
3E0003F0
7E0001F0
7C0001F8
7C0000F8
780000F8
F80000F8
F8000078
F8000078
F80000F8
780000F8
7C0000F8
7C0000F8
7E0001F0
3F0003F0
1F8007E0
1FC00FC0
0FF03FC0
07FFFF00
03FFFE00
00FFF800
001FE000
ENDCHAR
STARTCHAR uni1E4D
ENCODING 7757
SWIDTH 625 0
DWIDTH 24 0
BBX 22 38 1 -1
BITMAP
000400
000F00
000F80
001F00
003E00
007C00
000000
000180
03E180
03F380
07FF80
073F80
000F00
000000
000000
00FE00
07FF80
0FFFC0
1FFFE0
3F03F0
3E01F8
7C00F8
7C007C
78007C
78007C
F8007C
F8003C
F8007C
78007C
78007C
7C0078
7C00F8
3E01F8
3F03F0
1FFFE0
0FFFC0
07FF80
00FE00
ENDCHAR
STARTCHAR uni1E4E
ENCODING 7758
SWIDTH 810 0
DWIDTH 32 0
BBX 29 44 1 -1
BITMAP
00386000
0078F000
007CF000
0078F000
00386000
00000000
00000000
003C0000
007E3800
007F7800
00F7F800
00E3F000
0000E000
00000000
00000000
00000000
001FE000
00FFFC00
03FFFE00
07FFFF80
0FF07FC0
1FC00FC0
1F0007E0
3E0003F0
7E0001F0
7C0001F8
7C0000F8
780000F8
F80000F8
F8000078
F8000078
F80000F8
780000F8
7C0000F8
7C0000F8
7E0001F0
3F0003F0
1F8007E0
1FC00FC0
0FF03FC0
07FFFF00
03FFFE00
00FFF800
001FE000
ENDCHAR
STARTCHAR uni1E4F
ENCODING 7759
SWIDTH 625 0
DWIDTH 24 0
BBX 22 37 1 -1
BITMAP
038700
03CF80
07CF80
03CF80
038700
000000
000180
03C180
03F380
07FF80
073F80
000F00
000000
000000
00FE00
07FF80
0FFFC0
1FFFE0
3F03F0
3E01F8
7C00F8
7C007C
78007C
78007C
F8007C
F8003C
F8007C
78007C
78007C
7C0078
7C00F8
3E01F8
3F03F0
1FFFE0
0FFFC0
07FF80
00FE00
ENDCHAR
STARTCHAR uni1E50
ENCODING 7760
SWIDTH 810 0
DWIDTH 32 0
BBX 29 43 1 -1
BITMAP
00380000
00FC0000
007E0000
001F0000
000F0000
00000000
00000000
00000000
003FF000
003FF000
003FF000
00000000
00000000
00000000
00000000
001FE000
00FFFC00
03FFFE00
07FFFF80
0FF07FC0
1FC00FC0
1F0007E0
3E0003F0
7E0001F0
7C0001F8
7C0000F8
780000F8
F80000F8
F8000078
F8000078
F80000F8
780000F8
7C0000F8
7C0000F8
7E0001F0
3F0003F0
1F8007E0
1FC00FC0
0FF03FC0
07FFFF00
03FFFE00
00FFF800
001FE000
ENDCHAR
STARTCHAR uni1E51
ENCODING 7761
SWIDTH 625 0
DWIDTH 24 0
BBX 22 37 1 -1
BITMAP
01C000
07E000
03E000
01F000
00F800
000000
000000
000000
03FF00
03FF00
03FF00
000000
000000
000000
00FE00
07FF80
0FFFC0
1FFFE0
3F03F0
3E01F8
7C00F8
7C007C
78007C
78007C
F8007C
F8003C
F8007C
78007C
78007C
7C0078
7C00F8
3E01F8
3F03F0
1FFFE0
0FFFC0
07FF80
00FE00
ENDCHAR
STARTCHAR uni1E52
ENCODING 7762
SWIDTH 810 0
DWIDTH 32 0
BBX 29 44 1 -1
BITMAP
00008000
0000E000
0001F800
0003F000
0003E000
00078000
00000000
00000000
00000000
003FF000
003FF000
003FF000
00000000
00000000
00000000
00000000
001FE000
00FFFC00
03FFFE00
07FFFF80
0FF07FC0
1FC00FC0
1F0007E0
3E0003F0
7E0001F0
7C0001F8
7C0000F8
780000F8
F80000F8
F8000078
F8000078
F80000F8
780000F8
7C0000F8
7C0000F8
7E0001F0
3F0003F0
1F8007E0
1FC00FC0
0FF03FC0
07FFFF00
03FFFE00
00FFF800
001FE000
ENDCHAR
STARTCHAR uni1E53
ENCODING 7763
SWIDTH 625 0
DWIDTH 24 0
BBX 22 37 1 -1
BITMAP
000E00
000FC0
001F00
003E00
003C00
004000
000000
000000
03FF00
03FF00
03FF00
000000
000000
000000
00FE00
07FF80
0FFFC0
1FFFE0
3F03F0
3E01F8
7C00F8
7C007C
78007C
78007C
F8007C
F8003C
F8007C
78007C
78007C
7C0078
7C00F8
3E01F8
3F03F0
1FFFE0
0FFFC0
07FF80
00FE00
ENDCHAR
STARTCHAR uni1E5A
ENCODING 7770
SWIDTH 723 0
DWIDTH 28 0
BBX 22 34 4 -7
BITMAP
FFFE00
FFFF80
FFFFE0
FFFFF0
F003F8
F000F8
F00078
F0007C
F0007C
F0007C
F0007C
F00078
F00078
F000F8
F003F0
FFFFF0
FFFFE0
FFFF80
FFFF00
F00F80
F007C0
F007C0
F003E0
F001F0
F001F0
F000F8
F0007C
000000
000000
007000
00F000
01F800
00F800
00F000
ENDCHAR
STARTCHAR uni1E5B
ENCODING 7771
SWIDTH 394 0
DWIDTH 15 0
BBX 12 29 3 -7
BITMAP
0070
F9F0
FBF0
FFF0
FFC0
FE00
FC00
FC00
F800
F800
F800
F800
F800
F800
F800
F800
F800
F800
F800
F800
F800
F800
0000
0000
7000
F800
F800
F800
7000
ENDCHAR
STARTCHAR uni1E5E
ENCODING 7774
SWIDTH 723 0
DWIDTH 28 0
BBX 22 33 4 -6
BITMAP
FFFE00
FFFF80
FFFFE0
FFFFF0
F003F8
F000F8
F00078
F0007C
F0007C
F0007C
F0007C
F00078
F00078
F000F8
F003F0
FFFFF0
FFFFE0
FFFF80
FFFF00
F00F80
F007C0
F007C0
F003E0
F001F0
F001F0
F000F8
F0007C
000000
000000
000000
07FE00
07FE00
07FE00
ENDCHAR
STARTCHAR uni1E5F
ENCODING 7775
SWIDTH 394 0
DWIDTH 15 0
BBX 15 28 0 -6
BITMAP
000E
1F3E
1F7E
1FFE
1FF8
1FC0
1F80
1F80
1F00
1F00
1F00
1F00
1F00
1F00
1F00
1F00
1F00
1F00
1F00
1F00
1F00
1F00
0000
0000
0000
FFC0
FFC0
FFC0
ENDCHAR
STARTCHAR uni1E60
ENCODING 7776
SWIDTH 622 0
DWIDTH 24 0
BBX 21 37 1 -1
BITMAP
003800
007C00
007C00
007C00
003800
000000
000000
000000
00FF00
07FFE0
0FFFF8
1FFFF8
3FC7F0
3F00F0
3E0020
3E0000
3E0000
3F0000
3F8000
3FE000
1FFC00
0FFF80
07FFC0
00FFF0
001FF0
0007F8
0001F8
0000F8
0000F8
6000F8
7800F8
7C01F8
FFC7F8
7FFFF0
3FFFE0
0FFFC0
01FE00
ENDCHAR
STARTCHAR uni1E61
ENCODING 7777
SWIDTH 470 0
DWIDTH 18 0
BBX 16 31 1 -1
BITMAP
03C0
03E0
03E0
03E0
01C0
0000
0000
0000
07F0
1FFE
3FFF
3FFE
7C0E
7800
7800
7C00
7F00
3FC0
3FF8
1FFC
07FE
00FF
003F
001F
000F
600F
701F
FFFE
FFFE
3FFC
0FE0
ENDCHAR
STARTCHAR uni1E62
ENCODING 7778
SWIDTH 622 0
DWIDTH 24 0
BBX 21 36 1 -8
BITMAP
00FF00
07FFE0
0FFFF8
1FFFF8
3FC7F0
3F00F0
3E0020
3E0000
3E0000
3F0000
3F8000
3FE000
1FFC00
0FFF80
07FFC0
00FFF0
001FF0
0007F8
0001F8
0000F8
0000F8
6000F8
7800F8
7C01F8
FFC7F8
7FFFF0
3FFFE0
0FFFC0
01FE00
000000
000000
007800
007C00
007C00
007C00
003800
ENDCHAR
STARTCHAR uni1E63
ENCODING 7779
SWIDTH 470 0
DWIDTH 18 0
BBX 16 30 1 -8
BITMAP
07F0
1FFE
3FFF
3FFE
7C0E
7800
7800
7C00
7F00
3FC0
3FF8
1FFC
07FE
00FF
003F
001F
000F
600F
701F
FFFE
FFFE
3FFC
0FE0
0000
0000
03C0
03E0
07E0
03C0
01C0
ENDCHAR
STARTCHAR uni1E64
ENCODING 7780
SWIDTH 622 0
DWIDTH 24 0
BBX 21 44 1 -1
BITMAP
003800
007C00
007C00
007C00
003800
000000
000000
000600
000FC0
001F80
001E00
003C00
000000
000000
000000
00FF00
07FFE0
0FFFF8
1FFFF8
3FC7F0
3F00F0
3E0020
3E0000
3E0000
3F0000
3F8000
3FE000
1FFC00
0FFF80
07FFC0
00FFF0
001FF0
0007F8
0001F8
0000F8
0000F8
6000F8
7800F8
7C01F8
FFC7F8
7FFFF0
3FFFE0
0FFFC0
01FE00
ENDCHAR
STARTCHAR uni1E65
ENCODING 7781
SWIDTH 470 0
DWIDTH 18 0
BBX 16 38 1 -1
BITMAP
01C0
03E0
03E0
03E0
03C0
0000
0000
0020
007C
00FC
00F8
01E0
0000
0000
0000
07F0
1FFE
3FFF
3FFE
7C0E
7800
7800
7C00
7F00
3FC0
3FF8
1FFC
07FE
00FF
003F
001F
000F
600F
701F
FFFE
FFFE
3FFC
0FE0
ENDCHAR
STARTCHAR uni1E66
ENCODING 7782
SWIDTH 622 0
DWIDTH 24 0
BBX 21 44 1 -1
BITMAP
003800
007C00
007C00
007C00
003800
000000
0783C0
03C780
01EF00
01EE00
00FE00
007C00
000000
000000
000000
00FF00
07FFE0
0FFFF8
1FFFF8
3FC7F0
3F00F0
3E0020
3E0000
3E0000
3F0000
3F8000
3FE000
1FFC00
0FFF80
07FFC0
00FFF0
001FF0
0007F8
0001F8
0000F8
0000F8
6000F8
7800F8
7C01F8
FFC7F8
7FFFF0
3FFFE0
0FFFC0
01FE00
ENDCHAR
STARTCHAR uni1E67
ENCODING 7783
SWIDTH 470 0
DWIDTH 18 0
BBX 16 38 1 -1
BITMAP
03C0
03E0
03E0
03E0
01C0
0000
3C1E
1E3C
0F78
0F70
07F0
03E0
0000
0000
0000
07F0
1FFE
3FFF
3FFE
7C0E
7800
7800
7C00
7F00
3FC0
3FF8
1FFC
07FE
00FF
003F
001F
000F
600F
701F
FFFE
FFFE
3FFC
0FE0
ENDCHAR
STARTCHAR uni1E68
ENCODING 7784
SWIDTH 622 0
DWIDTH 24 0
BBX 21 44 1 -8
BITMAP
003800
007C00
007C00
007C00
003800
000000
000000
000000
00FF00
07FFE0
0FFFF8
1FFFF8
3FC7F0
3F00F0
3E0020
3E0000
3E0000
3F0000
3F8000
3FE000
1FFC00
0FFF80
07FFC0
00FFF0
001FF0
0007F8
0001F8
0000F8
0000F8
6000F8
7800F8
7C01F8
FFC7F8
7FFFF0
3FFFE0
0FFFC0
01FE00
000000
000000
007800
007C00
007C00
007C00
003800
ENDCHAR
STARTCHAR uni1E69
ENCODING 7785
SWIDTH 470 0
DWIDTH 18 0
BBX 16 38 1 -8
BITMAP
03C0
03E0
03E0
03E0
01C0
0000
0000
0000
07F0
1FFE
3FFF
3FFE
7C0E
7800
7800
7C00
7F00
3FC0
3FF8
1FFC
07FE
00FF
003F
001F
000F
600F
701F
FFFE
FFFE
3FFC
0FE0
0000
0000
03C0
03E0
07E0
03C0
01C0
ENDCHAR
STARTCHAR uni1E6C
ENCODING 7788
SWIDTH 579 0
DWIDTH 23 0
BBX 22 34 0 -7
BITMAP
FFFFFC
FFFFFC
FFFFFC
FFFFFC
007C00
007C00
007C00
007C00
007C00
007C00
007C00
007C00
007C00
007C00
007C00
007C00
007C00
007C00
007C00
007C00
007C00
007C00
007C00
007C00
007C00
007C00
007C00
000000
000000
003800
007C00
007C00
007C00
007800
ENDCHAR
STARTCHAR uni1E6D
ENCODING 7789
SWIDTH 407 0
DWIDTH 16 0
BBX 14 33 1 -8
BITMAP
1F00
1F00
1F00
1F00
1F00
1F00
FFFC
FFFC
FFFC
1F00
1F00
1F00
1F00
1F00
1F00
1F00
1F00
1F00
1F00
1F00
1F00
1F08
0FF8
0FFC
07FC
03F0
0000
0000
01E0
03E0
03E0
03E0
01C0
ENDCHAR
STARTCHAR uni1E6E
ENCODING 7790
SWIDTH 579 0
DWIDTH 23 0
BBX 22 33 0 -6
BITMAP
FFFFFC
FFFFFC
FFFFFC
FFFFFC
007C00
007C00
007C00
007C00
007C00
007C00
007C00
007C00
007C00
007C00
007C00
007C00
007C00
007C00
007C00
007C00
007C00
007C00
007C00
007C00
007C00
007C00
007C00
000000
000000
000000
03FF00
03FF00
03FF00
ENDCHAR
STARTCHAR uni1E6F
ENCODING 7791
SWIDTH 407 0
DWIDTH 16 0
BBX 14 31 1 -6
BITMAP
1F00
1F00
1F00
1F00
1F00
1F00
FFFC
FFFC
FFFC
1F00
1F00
1F00
1F00
1F00
1F00
1F00
1F00
1F00
1F00
1F00
1F00
1F08
0FF8
0FFC
07FC
03F0
0000
0000
0FFC
0FFC
0FFC
ENDCHAR
STARTCHAR uni1E78
ENCODING 7800
SWIDTH 764 0
DWIDTH 30 0
BBX 24 44 3 -1
BITMAP
000780
000FC0
000F80
001F00
003C00
000000
000000
01E1C0
03F9C0
03FFC0
039FC0
038F80
000000
000000
000000
000000
F8001F
F8001F
F8001F
F8001F
F8001F
F8001F
F8001F
F8001F
F8001F
F8001F
F8001F
F8001F
F8001F
F8001F
F8001F
F8001F
F8001F
F8001F
F8001F
F8001F
7C003E
7C003E
7E007C
3FC1FC
1FFFF8
0FFFF0
07FFC0
00FF00
ENDCHAR
STARTCHAR uni1E79
ENCODING 7801
SWIDTH 653 0
DWIDTH 25 0
BBX 19 38 3 -1
BITMAP
001000
003C00
003F00
007C00
00F800
00F000
000000
000700
078700
0FCE00
1FFE00
1C7C00
1C3800
000000
000000
000000
F001E0
F001E0
F001E0
F001E0
F001E0
F001E0
F001E0
F001E0
F001E0
F001E0
F001E0
F001E0
F001E0
F003E0
F003E0
F807E0
FC07E0
FE1FE0
7FFDE0
7FFDE0
3FF1E0
0FC000
ENDCHAR
STARTCHAR uni1E7A
ENCODING 7802
SWIDTH 764 0
DWIDTH 30 0
BBX 24 43 3 -1
BITMAP
01C380
03E7C0
03E7C0
03E7C0
01C380
000000
000000
000000
01FF80
01FF80
01FF80
000000
000000
000000
000000
F8001F
F8001F
F8001F
F8001F
F8001F
F8001F
F8001F
F8001F
F8001F
F8001F
F8001F
F8001F
F8001F
F8001F
F8001F
F8001F
F8001F
F8001F
F8001F
F8001F
7C003E
7C003E
7E007C
3FC1FC
1FFFF8
0FFFF0
07FFC0
00FF00
ENDCHAR
STARTCHAR uni1E7B
ENCODING 7803
SWIDTH 653 0
DWIDTH 25 0
BBX 19 37 3 -1
BITMAP
0E1C00
0F1E00
0F3E00
0F1E00
061C00
000000
000000
000000
0FFC00
0FFC00
0FFC00
000000
000000
000000
000000
F001E0
F001E0
F001E0
F001E0
F001E0
F001E0
F001E0
F001E0
F001E0
F001E0
F001E0
F001E0
F001E0
F003E0
F003E0
F807E0
FC07E0
FE1FE0
7FFDE0
7FFDE0
3FF1E0
0FC000
ENDCHAR
STARTCHAR Wgrave
ENCODING 7808
SWIDTH 1036 0
DWIDTH 40 0
BBX 41 36 0 0
BITMAP
000020000000
0001E0000000
0003F0000000
0000F8000000
00007C000000
00003C000000
000000000000
000000000000
000000000000
F8003E000F80
7C003E000F00
7C003F001F00
7C007F001F00
3C007F001E00
3E007F003E00
3E00F7803E00
1E00F7803C00
1F00F7807C00
1F01E3C07C00
0F01E3C07800
0F81E3C07800
0F81C3E0F800
0783C1E0F000
0783C1E0F000
07C381F1F000
03C780F1E000
03C780F1E000
03E780F3E000
01EF007BC000
01EF007BC000
01FF007BC000
00FE003F8000
00FE003F8000
00FE003F8000
007C003F0000
007C001F0000
ENDCHAR
STARTCHAR wgrave
ENCODING 7809
SWIDTH 893 0
DWIDTH 35 0
BBX 35 30 0 0
BITMAP
0001000000
000F800000
000FC00000
0007C00000
0003E00000
0001F00000
0000000000
0000000000
0000000000
F801F003E0
7801F003C0
7803F803C0
7C03F807C0
3C03F80780
3C03FC0780
3E07BC0F80
1E07BC0F00
1E079E0F00
1F0F1E1F00
0F0F1E1E00
0F0E0F1E00
079E0F3E00
079E0F3C00
079C07BC00
03FC07F800
03FC07F800
03F803F800
01F803F000
01F803F000
01F001F000
ENDCHAR
STARTCHAR Wacute
ENCODING 7810
SWIDTH 1036 0
DWIDTH 40 0
BBX 41 35 0 0
BITMAP
000007800000
00000FC00000
00001F800000
00001E000000
00003C000000
000000000000
000000000000
000000000000
F8003E000F80
7C003E000F00
7C003F001F00
7C007F001F00
3C007F001E00
3E007F003E00
3E00F7803E00
1E00F7803C00
1F00F7807C00
1F01E3C07C00
0F01E3C07800
0F81E3C07800
0F81C3E0F800
0783C1E0F000
0783C1E0F000
07C381F1F000
03C780F1E000
03C780F1E000
03E780F3E000
01EF007BC000
01EF007BC000
01FF007BC000
00FE003F8000
00FE003F8000
00FE003F8000
007C003F0000
007C001F0000
ENDCHAR
STARTCHAR wacute
ENCODING 7811
SWIDTH 893 0
DWIDTH 35 0
BBX 35 30 0 0
BITMAP
0000100000
00003E0000
00007E0000
00007C0000
0000F80000
0001E00000
0000000000
0000000000
0000000000
F801F003E0
7801F003C0
7803F803C0
7C03F807C0
3C03F80780
3C03FC0780
3E07BC0F80
1E07BC0F00
1E079E0F00
1F0F1E1F00
0F0F1E1E00
0F0E0F1E00
079E0F3E00
079E0F3C00
079C07BC00
03FC07F800
03FC07F800
03F803F800
01F803F000
01F803F000
01F001F000
ENDCHAR
STARTCHAR Wdieresis
ENCODING 7812
SWIDTH 1036 0
DWIDTH 40 0
BBX 41 35 0 0
BITMAP
0001C3800000
0001E7C00000
0003E7C00000
0001E3C00000
0001C3800000
000000000000
000000000000
000000000000
F8003E000F80
7C003E000F00
7C003F001F00
7C007F001F00
3C007F001E00
3E007F003E00
3E00F7803E00
1E00F7803C00
1F00F7807C00
1F01E3C07C00
0F01E3C07800
0F81E3C07800
0F81C3E0F800
0783C1E0F000
0783C1E0F000
07C381F1F000
03C780F1E000
03C780F1E000
03E780F3E000
01EF007BC000
01EF007BC000
01FF007BC000
00FE003F8000
00FE003F8000
00FE003F8000
007C003F0000
007C001F0000
ENDCHAR
STARTCHAR wdieresis
ENCODING 7813
SWIDTH 893 0
DWIDTH 35 0
BBX 35 30 0 0
BITMAP
00070E0000
000F1E0000
000F9E0000
000F1E0000
00060C0000
0000000000
0000000000
0000000000
0000000000
F801F003E0
7801F003C0
7803F803C0
7C03F807C0
3C03F80780
3C03FC0780
3E07BC0F80
1E07BC0F00
1E079E0F00
1F0F1E1F00
0F0F1E1E00
0F0E0F1E00
079E0F3E00
079E0F3C00
079C07BC00
03FC07F800
03FC07F800
03F803F800
01F803F000
01F803F000
01F001F000
ENDCHAR
STARTCHAR uni1E8E
ENCODING 7822
SWIDTH 637 0
DWIDTH 25 0
BBX 25 35 0 0
BITMAP
003C0000
003E0000
003E0000
003E0000
001C0000
00000000
00000000
00000000
F8000F80
7C001F00
7C001E00
3E003E00
1E007C00
1F007C00
0F80F800
0F80F800
07C1F000
07C1F000
03E3E000
03F7C000
01F7C000
00FF8000
00FF8000
007F0000
007F0000
003E0000
003E0000
003E0000
003E0000
003E0000
003E0000
003E0000
003E0000
003E0000
003E0000
ENDCHAR
STARTCHAR uni1E8F
ENCODING 7823
SWIDTH 531 0
DWIDTH 21 0
BBX 21 38 0 -9
BITMAP
007000
00F800
00F800
00F800
007000
000000
000000
000000
F800F8
F800F0
7800F0
7C01F0
3C01E0
3E01E0
3E03C0
1E03C0
1F07C0
0F0780
0F0780
0F8F80
078F00
078F00
03DE00
03DE00
03FE00
01FC00
01FC00
01FC00
00F800
00F800
00F000
00F000
01F000
63E000
7FE000
FFC000
FF8000
3E0000
ENDCHAR
STARTCHAR uni1E92
ENCODING 7826
SWIDTH 666 0
DWIDTH 26 0
BBX 23 34 1 -7
BITMAP
7FFFFE
7FFFFE
7FFFFE
7FFFFE
00007C
0000F8
0001F8
0003F0
0007E0
0007C0
000F80
001F00
003E00
007E00
00FC00
01F800
01F000
03E000
07C000
0FC000
1F8000
3F0000
7E0000
7FFFFE
FFFFFE
FFFFFE
FFFFFE
000000
000000
003C00
003C00
007E00
007C00
003C00
ENDCHAR
STARTCHAR uni1E93
ENCODING 7827
SWIDTH 537 0
DWIDTH 21 0
BBX 18 28 2 -7
BITMAP
FFFF80
FFFF80
FFFF80
FFFF80
001F00
003E00
007C00
00F800
00F800
01F000
03E000
07C000
0F8000
1F0000
1F0000
3E0000
7C0000
FFFFC0
FFFFC0
FFFFC0
FFFFC0
000000
000000
01C000
03E000
03E000
03E000
01E000
ENDCHAR
STARTCHAR uni1E97
ENCODING 7831
SWIDTH 407 0
DWIDTH 16 0
BBX 14 34 1 -1
BITMAP
E1C0
F1E0
F3E0
F1E0
E1C0
0000
0000
0000
1F00
1F00
1F00
1F00
1F00
1F00
FFFC
FFFC
FFFC
1F00
1F00
1F00
1F00
1F00
1F00
1F00
1F00
1F00
1F00
1F00
1F00
1F08
0FF8
0FFC
07FC
03F0
ENDCHAR
STARTCHAR uni1E9E
ENCODING 7838
SWIDTH 678 0
DWIDTH 26 0
BBX 22 27 3 0
BITMAP
01FE00
07FFC0
0FFFF0
1FFFF0
3F83F0
7E00F0
7C01F0
7803F0
F803E0
F807C0
F80F80
F81F00
F81FC0
F81FF0
F81FF8
F801F8
F8007C
F8007C
F8003C
F8003C
F8007C
F8007C
F801FC
F83FF8
F83FF0
F83FE0
F83F00
ENDCHAR
STARTCHAR uni1EA0
ENCODING 7840
SWIDTH 738 0
DWIDTH 29 0
BBX 29 34 0 -7
BITMAP
000F8000
001F8000
001FC000
001FC000
003FE000
003DE000
007DF000
0079F000
00F8F800
00F0F800
01F07800
01E07C00
01E03C00
03E03E00
03C03E00
07C01F00
07801F00
0FFFFF80
0FFFFF80
1FFFFF80
1FFFFFC0
3E0007C0
3E0003E0
3C0003E0
7C0001F0
780001F0
F80000F8
00000000
00000000
00070000
000F8000
000F8000
000F8000
000F0000
ENDCHAR
STARTCHAR uni1EA1
ENCODING 7841
SWIDTH 586 0
DWIDTH 23 0
BBX 18 30 2 -8
BITMAP
03F800
1FFE00
7FFF00
7FFF80
380FC0
2007C0
0007C0
0003C0
0003C0
0FFFC0
3FFFC0
7FFFC0
FC03C0
F003C0
F003C0
F003C0
F007C0
F007C0
F81FC0
FFFFC0
7FFFC0
3FF3C0
0FC000
000000
000000
01E000
01F000
03F000
01E000
00E000
ENDCHAR
STARTCHAR uni1EA2
ENCODING 7842
SWIDTH 738 0
DWIDTH 29 0
BBX 29 36 0 0
BITMAP
000F8000
001FC000
0038C000
0000C000
0000C000
0001C000
00038000
00000000
00000000
000F8000
001F8000
001FC000
001FC000
003FE000
003DE000
007DF000
0079F000
00F8F800
00F0F800
01F07800
01E07C00
01E03C00
03E03E00
03C03E00
07C01F00
07801F00
0FFFFF80
0FFFFF80
1FFFFF80
1FFFFFC0
3E0007C0
3E0003E0
3C0003E0
7C0001F0
780001F0
F80000F8
ENDCHAR
STARTCHAR uni1EA3
ENCODING 7843
SWIDTH 586 0
DWIDTH 23 0
BBX 18 32 2 -1
BITMAP
01F000
03F800
073800
001800
001800
003800
007000
000000
000000
03F800
1FFE00
7FFF00
7FFF80
380FC0
2007C0
0007C0
0003C0
0003C0
0FFFC0
3FFFC0
7FFFC0
FC03C0
F003C0
F003C0
F003C0
F007C0
F007C0
F81FC0
FFFFC0
7FFFC0
3FF3C0
0FC000
ENDCHAR
STARTCHAR uni1EA4
ENCODING 7844
SWIDTH 738 0
DWIDTH 29 0
BBX 29 39 0 0
BITMAP
00000380
000007C0
00000780
00000F00
000F9E00
001FC000
003DE000
0078E000
0070F000
00000000
00000000
00000000
000F8000
001F8000
001FC000
001FC000
003FE000
003DE000
007DF000
0079F000
00F8F800
00F0F800
01F07800
01E07C00
01E03C00
03E03E00
03C03E00
07C01F00
07801F00
0FFFFF80
0FFFFF80
1FFFFF80
1FFFFFC0
3E0007C0
3E0003E0
3C0003E0
7C0001F0
780001F0
F80000F8
ENDCHAR
STARTCHAR uni1EA5
ENCODING 7845
SWIDTH 586 0
DWIDTH 23 0
BBX 21 35 2 -1
BITMAP
000060
0000F8
0000F8
0001E0
01F3C0
03F800
07B800
073C00
0F1E00
000000
000000
000000
03F800
1FFE00
7FFF00
7FFF80
380FC0
2007C0
0007C0
0003C0
0003C0
0FFFC0
3FFFC0
7FFFC0
FC03C0
F003C0
F003C0
F007C0
F007C0
F80FC0
FFFFC0
FFFFC0
7FFFC0
3FF3C0
0FC000
ENDCHAR
STARTCHAR uni1EA6
ENCODING 7846
SWIDTH 738 0
DWIDTH 29 0
BBX 29 40 0 0
BITMAP
00001000
00007000
0000F800
00007C00
00003C00
000F8E00
001FC000
003DE000
0078E000
0070F000
00000000
00000000
00000000
000F8000
001F8000
001FC000
001FC000
003FE000
003DE000
007DF000
0079F000
00F8F800
00F0F800
01F07800
01E07C00
01E03C00
03E03E00
03C03E00
07C01F00
07801F00
0FFFFF80
0FFFFF80
1FFFFF80
1FFFFFC0
3E0007C0
3E0003E0
3C0003E0
7C0001F0
780001F0
F80000F8
ENDCHAR
STARTCHAR uni1EA7
ENCODING 7847
SWIDTH 586 0
DWIDTH 23 0
BBX 18 35 2 -1
BITMAP
000600
001F00
000F00
000780
01F3C0
03F800
07B800
073C00
0F1E00
000000
000000
000000
03F800
1FFE00
7FFF00
7FFF80
380FC0
2007C0
0007C0
0003C0
0003C0
0FFFC0
3FFFC0
7FFFC0
FC03C0
F003C0
F003C0
F007C0
F007C0
F80FC0
FFFFC0
FFFFC0
7FFFC0
3FF3C0
0FC000
ENDCHAR
STARTCHAR uni1EA8
ENCODING 7848
SWIDTH 738 0
DWIDTH 29 0
BBX 29 41 0 0
BITMAP
00007C00
0000FE00
0001C600
00000600
00000600
00000E00
000F9C00
001FC000
003DE000
0078E000
0070F000
00000000
00000000
00000000
000F8000
001F8000
001FC000
001FC000
003FE000
003DE000
007DF000
0079F000
00F8F800
00F0F800
01F07800
01E07C00
01E03C00
03E03E00
03C03E00
07C01F00
07801F00
0FFFFF80
0FFFFF80
1FFFFF80
1FFFFFC0
3E0007C0
3E0003E0
3C0003E0
7C0001F0
780001F0
F80000F8
ENDCHAR
STARTCHAR uni1EA9
ENCODING 7849
SWIDTH 586 0
DWIDTH 23 0
BBX 18 37 2 -1
BITMAP
000F00
001FC0
0039C0
0010C0
0000C0
0001C0
01F380
03F900
07B800
073C00
0F1E00
000000
000000
000000
03F800
1FFE00
7FFF00
7FFF80
380FC0
2007C0
0007C0
0003C0
0003C0
0FFFC0
3FFFC0
7FFFC0
FC03C0
F003C0
F003C0
F007C0
F007C0
F80FC0
FFFFC0
FFFFC0
7FFFC0
3FF3C0
0FC000
ENDCHAR
STARTCHAR uni1EAA
ENCODING 7850
SWIDTH 738 0
DWIDTH 29 0
BBX 29 41 0 0
BITMAP
00383000
007E7000
00FFF000
00E3F000
00E1E000
00000000
000F8000
001FC000
003DE000
0078E000
0070F000
00000000
00000000
00000000
000F8000
001F8000
001FC000
001FC000
003FE000
003DE000
007DF000
0079F000
00F8F800
00F0F800
01F07800
01E07C00
01E03C00
03E03E00
03C03E00
07C01F00
07801F00
0FFFFF80
0FFFFF80
1FFFFF80
1FFFFFC0
3E0007C0
3E0003E0
3C0003E0
7C0001F0
780001F0
F80000F8
ENDCHAR
STARTCHAR uni1EAB
ENCODING 7851
SWIDTH 586 0
DWIDTH 23 0
BBX 18 37 2 -1
BITMAP
070600
0FCE00
1FFE00
1CFE00
1C3C00
000000
01F000
03F800
07B800
073C00
0F1E00
000000
000000
000000
03F800
1FFE00
7FFF00
7FFF80
380FC0
2007C0
0007C0
0003C0
0003C0
0FFFC0
3FFFC0
7FFFC0
FC03C0
F003C0
F003C0
F003C0
F007C0
F007C0
F81FC0
FFFFC0
7FFFC0
3FF3C0
0FC000
ENDCHAR
STARTCHAR uni1EAC
ENCODING 7852
SWIDTH 738 0
DWIDTH 29 0
BBX 29 42 0 -7
BITMAP
000F8000
001FC000
003DE000
0078E000
0070F000
00000000
00000000
00000000
000F8000
001F8000
001FC000
001FC000
003FE000
003DE000
007DF000
0079F000
00F8F800
00F0F800
01F07800
01E07C00
01E03C00
03E03E00
03C03E00
07C01F00
07801F00
0FFFFF80
0FFFFF80
1FFFFF80
1FFFFFC0
3E0007C0
3E0003E0
3C0003E0
7C0001F0
780001F0
F80000F8
00000000
00000000
00070000
000F8000
000F8000
000F8000
000F0000
ENDCHAR
STARTCHAR uni1EAD
ENCODING 7853
SWIDTH 586 0
DWIDTH 23 0
BBX 18 38 2 -8
BITMAP
01F000
03F800
07B800
073C00
0F1E00
000000
000000
000000
03F800
1FFE00
7FFF00
7FFF80
380FC0
2007C0
0007C0
0003C0
0003C0
0FFFC0
3FFFC0
7FFFC0
FC03C0
F003C0
F003C0
F003C0
F007C0
F007C0
F81FC0
FFFFC0
7FFFC0
3FF3C0
0FC000
000000
000000
01E000
01F000
03F000
01E000
00E000
ENDCHAR
STARTCHAR uni1EAE
ENCODING 7854
SWIDTH 738 0
DWIDTH 29 0
BBX 29 42 0 0
BITMAP
0000E000
0001F800
0001F000
0003E000
0007C000
00000000
00000000
00707000
0078F000
003FE000
003FC000
000F8000
00000000
00000000
00000000
000F8000
001F8000
001FC000
001FC000
003FE000
003DE000
007DF000
0079F000
00F8F800
00F0F800
01F07800
01E07C00
01E03C00
03E03E00
03C03E00
07C01F00
07801F00
0FFFFF80
0FFFFF80
1FFFFF80
1FFFFFC0
3E0007C0
3E0003E0
3C0003E0
7C0001F0
780001F0
F80000F8
ENDCHAR
STARTCHAR uni1EAF
ENCODING 7855
SWIDTH 586 0
DWIDTH 23 0
BBX 18 38 2 -1
BITMAP
001800
001E00
003F00
007C00
00F800
00F000
000000
0E0E00
0E1E00
0FFC00
07FC00
03F000
000000
000000
000000
03F800
1FFE00
7FFF00
7FFF80
380FC0
2007C0
0007C0
0003C0
0003C0
0FFFC0
3FFFC0
7FFFC0
FC03C0
F003C0
F003C0
F003C0
F007C0
F007C0
F81FC0
FFFFC0
7FFFC0
3FF3C0
0FC000
ENDCHAR
STARTCHAR uni1EB0
ENCODING 7856
SWIDTH 738 0
DWIDTH 29 0
BBX 29 42 0 0
BITMAP
00380000
01F80000
007C0000
003E0000
001F0000
00000000
00000000
00707000
0078F000
003FE000
003FC000
000F8000
00000000
00000000
00000000
000F8000
001F8000
001FC000
001FC000
003FE000
003DE000
007DF000
0079F000
00F8F800
00F0F800
01F07800
01E07C00
01E03C00
03E03E00
03C03E00
07C01F00
07801F00
0FFFFF80
0FFFFF80
1FFFFF80
1FFFFFC0
3E0007C0
3E0003E0
3C0003E0
7C0001F0
780001F0
F80000F8
ENDCHAR
STARTCHAR uni1EB1
ENCODING 7857
SWIDTH 586 0
DWIDTH 23 0
BBX 18 38 2 -1
BITMAP
020000
1F0000
1F8000
0F8000
07C000
01E000
000000
0E0E00
0E1E00
0FBC00
07FC00
03F000
000000
000000
000000
03F800
1FFE00
7FFF00
7FFF80
380FC0
2007C0
0007C0
0003C0
0003C0
0FFFC0
3FFFC0
7FFFC0
FC03C0
F003C0
F003C0
F003C0
F007C0
F007C0
F81FC0
FFFFC0
7FFFC0
3FF3C0
0FC000
ENDCHAR
STARTCHAR uni1EB2
ENCODING 7858
SWIDTH 738 0
DWIDTH 29 0
BBX 29 43 0 0
BITMAP
000F8000
001FC000
0018E000
0008E000
0000C000
0001C000
00038000
00000000
00707000
0078F000
003FE000
003FC000
000F8000
00000000
00000000
00000000
000F8000
001F8000
001FC000
001FC000
003FE000
003DE000
007DF000
0079F000
00F8F800
00F0F800
01F07800
01E07C00
01E03C00
03E03E00
03C03E00
07C01F00
07801F00
0FFFFF80
0FFFFF80
1FFFFF80
1FFFFFC0
3E0007C0
3E0003E0
3C0003E0
7C0001F0
780001F0
F80000F8
ENDCHAR
STARTCHAR uni1EB3
ENCODING 7859
SWIDTH 586 0
DWIDTH 23 0
BBX 18 39 2 -1
BITMAP
01F000
03F800
03B800
031C00
001800
001800
007000
000000
0E0E00
0E1E00
0FFC00
07FC00
03F000
000000
000000
000000
03F800
1FFE00
7FFF00
7FFF80
380FC0
2007C0
0007C0
0003C0
0003C0
0FFFC0
3FFFC0
7FFFC0
FC03C0
F003C0
F003C0
F003C0
F007C0
F007C0
F81FC0
FFFFC0
7FFFC0
3FF3C0
0FC000
ENDCHAR
STARTCHAR uni1EB4
ENCODING 7860
SWIDTH 738 0
DWIDTH 29 0
BBX 29 41 0 0
BITMAP
003C3800
007E7800
00FFF000
00E3F000
00E1E000
00000000
00707000
0078F000
003FE000
003FC000
000F8000
00000000
00000000
00000000
000F8000
001F8000
001FC000
001FC000
003FE000
003DE000
007DF000
0079F000
00F8F800
00F0F800
01F07800
01E07C00
01E03C00
03E03E00
03C03E00
07C01F00
07801F00
0FFFFF80
0FFFFF80
1FFFFF80
1FFFFFC0
3E0007C0
3E0003E0
3C0003E0
7C0001F0
780001F0
F80000F8
ENDCHAR
STARTCHAR uni1EB5
ENCODING 7861
SWIDTH 586 0
DWIDTH 23 0
BBX 18 37 2 -1
BITMAP
078700
0FCE00
1FFE00
1C7E00
1C3C00
000000
0E0E00
0E1E00
0FBC00
07FC00
03F000
000000
000000
000000
03F800
1FFE00
7FFF00
7FFF80
380FC0
2007C0
0007C0
0003C0
0003C0
0FFFC0
3FFFC0
7FFFC0
FC03C0
F003C0
F003C0
F003C0
F007C0
F007C0
F81FC0
FFFFC0
7FFFC0
3FF3C0
0FC000
ENDCHAR
STARTCHAR uni1EB6
ENCODING 7862
SWIDTH 738 0
DWIDTH 29 0
BBX 29 42 0 -7
BITMAP
00707000
0078F000
003FE000
003FC000
000F8000
00000000
00000000
00000000
000F8000
001F8000
001FC000
001FC000
003FE000
003DE000
007DF000
0079F000
00F8F800
00F0F800
01F07800
01E07C00
01E03C00
03E03E00
03C03E00
07C01F00
07801F00
0FFFFF80
0FFFFF80
1FFFFF80
1FFFFFC0
3E0007C0
3E0003E0
3C0003E0
7C0001F0
780001F0
F80000F8
00000000
00000000
00070000
000F8000
000F8000
000F8000
000F0000
ENDCHAR
STARTCHAR uni1EB7
ENCODING 7863
SWIDTH 586 0
DWIDTH 23 0
BBX 18 37 2 -8
BITMAP
0E0E00
0E1E00
0FFC00
07FC00
03F000
000000
000000
03F800
1FFE00
7FFF00
7FFF80
380FC0
2007C0
0007C0
0003C0
0003C0
0FFFC0
3FFFC0
7FFFC0
FC03C0
F003C0
F003C0
F003C0
F007C0
F007C0
F81FC0
FFFFC0
7FFFC0
3FF3C0
0FC000
000000
000000
01E000
01F000
03F000
01E000
00E000
ENDCHAR
STARTCHAR uni1EB8
ENCODING 7864
SWIDTH 656 0
DWIDTH 26 0
BBX 20 34 4 -7
BITMAP
FFFFE0
FFFFE0
FFFFE0
FFFFE0
F00000
F00000
F00000
F00000
F00000
F00000
F00000
FFFFC0
FFFFC0
FFFFC0
FFFFC0
F00000
F00000
F00000
F00000
F00000
F00000
F00000
F00000
FFFFF0
FFFFF0
FFFFF0
FFFFF0
000000
000000
00E000
01F000
01F000
01F000
00E000
ENDCHAR
STARTCHAR uni1EB9
ENCODING 7865
SWIDTH 588 0
DWIDTH 23 0
BBX 21 30 1 -8
BITMAP
00FE00
07FF80
0FFFC0
1FFFE0
3F03E0
3E01F0
7C00F0
7800F0
7800F0
780078
FFFFF8
FFFFF8
FFFFF8
F80000
780000
7C0000
7C0000
3E00C0
3F01E0
1FFFF0
0FFFC0
07FF80
01FE00
000000
000000
007800
00F800
00F800
00F800
007000
ENDCHAR
STARTCHAR uni1EBA
ENCODING 7866
SWIDTH 656 0
DWIDTH 26 0
BBX 20 36 4 0
BITMAP
01F000
03F800
031800
011C00
001800
003800
007000
000000
000000
FFFFE0
FFFFE0
FFFFE0
FFFFE0
F00000
F00000
F00000
F00000
F00000
F00000
F00000
FFFFC0
FFFFC0
FFFFC0
FFFFC0
F00000
F00000
F00000
F00000
F00000
F00000
F00000
F00000
FFFFF0
FFFFF0
FFFFF0
FFFFF0
ENDCHAR
STARTCHAR uni1EBB
ENCODING 7867
SWIDTH 588 0
DWIDTH 23 0
BBX 21 32 1 -1
BITMAP
00F800
01FC00
018C00
008C00
000C00
001C00
003800
000000
000000
00FE00
07FF80
0FFFC0
1FFFE0
3F03E0
3E01F0
7C00F0
7800F0
7800F0
780078
FFFFF8
FFFFF8
FFFFF8
F80000
780000
7C0000
7C0000
3E00C0
3F01E0
1FFFF0
0FFFC0
07FF80
01FE00
ENDCHAR
STARTCHAR uni1EBC
ENCODING 7868
SWIDTH 656 0
DWIDTH 26 0
BBX 20 36 4 0
BITMAP
078700
0FC700
0FFF00
0E7E00
1C3E00
000000
000000
000000
000000
FFFFE0
FFFFE0
FFFFE0
FFFFE0
F00000
F00000
F00000
F00000
F00000
F00000
F00000
FFFFC0
FFFFC0
FFFFC0
FFFFC0
F00000
F00000
F00000
F00000
F00000
F00000
F00000
F00000
FFFFF0
FFFFF0
FFFFF0
FFFFF0
ENDCHAR
STARTCHAR uni1EBD
ENCODING 7869
SWIDTH 588 0
DWIDTH 23 0
BBX 21 31 1 -1
BITMAP
000380
03C380
07E380
07FF00
0F3F00
001E00
000000
000000
00FE00
07FF80
0FFFC0
1FFFE0
3F03E0
3E01F0
7C00F0
7800F0
7800F0
780078
FFFFF8
FFFFF8
FFFFF8
F80000
780000
7C0000
7C0000
3E00C0
3F01E0
1FFFF0
0FFFC0
07FF80
01FE00
ENDCHAR
STARTCHAR uni1EBE
ENCODING 7870
SWIDTH 656 0
DWIDTH 26 0
BBX 22 39 4 0
BITMAP
000070
00007C
0000F0
0001E0
01F3C0
03F800
07BC00
071E00
0F0E00
000000
000000
000000
FFFFE0
FFFFE0
FFFFE0
FFFFE0
F00000
F00000
F00000
F00000
F00000
F00000
F00000
FFFFC0
FFFFC0
FFFFC0
FFFFC0
F00000
F00000
F00000
F00000
F00000
F00000
F00000
F00000
FFFFF0
FFFFF0
FFFFF0
FFFFF0
ENDCHAR
STARTCHAR uni1EBF
ENCODING 7871
SWIDTH 588 0
DWIDTH 23 0
BBX 23 35 1 -1
BITMAP
000018
00003E
00007C
0000F8
00F8E0
01FD00
01DE00
03CE00
078F00
000000
000000
000000
00FE00
07FF80
0FFFC0
1FFFE0
3F03E0
3E01F0
7C00F0
7800F0
7800F0
780078
FFFFF8
FFFFF8
FFFFF8
F80000
780000
7C0000
7C0000
3E00C0
3F01E0
1FFFF0
0FFFC0
07FF80
01FE00
ENDCHAR
STARTCHAR uni1EC0
ENCODING 7872
SWIDTH 656 0
DWIDTH 26 0
BBX 20 40 4 0
BITMAP
000200
000F00
001F00
000F80
0003C0
01F1E0
03F800
07BC00
071E00
0F0E00
000000
000000
000000
FFFFE0
FFFFE0
FFFFE0
FFFFE0
F00000
F00000
F00000
F00000
F00000
F00000
F00000
FFFFC0
FFFFC0
FFFFC0
FFFFC0
F00000
F00000
F00000
F00000
F00000
F00000
F00000
F00000
FFFFF0
FFFFF0
FFFFF0
FFFFF0
ENDCHAR
STARTCHAR uni1EC1
ENCODING 7873
SWIDTH 588 0
DWIDTH 23 0
BBX 21 35 1 -1
BITMAP
000300
000F80
0007C0
0003E0
00F9E0
01FC00
01DE00
03CE00
078F00
000000
000000
000000
00FE00
07FF80
0FFFC0
1FFFE0
3F03E0
3E01F0
7C00F0
7800F0
7800F0
780078
FFFFF8
FFFFF8
FFFFF8
F80000
780000
7C0000
7C0000
3E00C0
3F01E0
1FFFF0
0FFFC0
07FF80
01FE00
ENDCHAR
STARTCHAR uni1EC2
ENCODING 7874
SWIDTH 656 0
DWIDTH 26 0
BBX 20 41 4 0
BITMAP
000F80
001FC0
0018C0
0008E0
0000C0
0001C0
01F380
03F800
07BC00
071E00
0F0E00
000000
000000
000000
FFFFE0
FFFFE0
FFFFE0
FFFFE0
F00000
F00000
F00000
F00000
F00000
F00000
F00000
FFFFC0
FFFFC0
FFFFC0
FFFFC0
F00000
F00000
F00000
F00000
F00000
F00000
F00000
F00000
FFFFF0
FFFFF0
FFFFF0
FFFFF0
ENDCHAR
STARTCHAR uni1EC3
ENCODING 7875
SWIDTH 588 0
DWIDTH 23 0
BBX 21 37 1 -1
BITMAP
0003C0
000FE0
000E60
000C70
000060
000060
00F8E0
01FDC0
01DE00
03CE00
078F00
000000
000000
000000
00FE00
07FF80
0FFFC0
1FFFE0
3F03E0
3E01F0
7C00F0
7800F0
7800F0
780078
FFFFF8
FFFFF8
FFFFF8
F80000
780000
7C0000
7C0000
3E00C0
3F01E0
1FFFF0
0FFFC0
07FF80
01FE00
ENDCHAR
STARTCHAR uni1EC4
ENCODING 7876
SWIDTH 656 0
DWIDTH 26 0
BBX 20 41 4 0
BITMAP
078700
0FC700
0FFE00
1C7E00
1C3C00
000000
01F000
03F800
07BC00
071E00
0F0E00
000000
000000
000000
FFFFE0
FFFFE0
FFFFE0
FFFFE0
F00000
F00000
F00000
F00000
F00000
F00000
F00000
FFFFC0
FFFFC0
FFFFC0
FFFFC0
F00000
F00000
F00000
F00000
F00000
F00000
F00000
F00000
FFFFF0
FFFFF0
FFFFF0
FFFFF0
ENDCHAR
STARTCHAR uni1EC5
ENCODING 7877
SWIDTH 588 0
DWIDTH 23 0
BBX 21 37 1 -1
BITMAP
03C380
07E380
07FF00
0F3F00
0E1E00
000000
00F800
01FC00
01DE00
03CE00
078F00
000000
000000
000000
00FE00
07FF80
0FFFC0
1FFFE0
3F03E0
3E01F0
7C00F0
7800F0
7800F0
780078
FFFFF8
FFFFF8
FFFFF8
F80000
780000
7C0000
7C0000
3E00C0
3F01E0
1FFFF0
0FFFC0
07FF80
01FE00
ENDCHAR
STARTCHAR uni1EC6
ENCODING 7878
SWIDTH 656 0
DWIDTH 26 0
BBX 20 42 4 -7
BITMAP
01F000
03F800
07BC00
071E00
0F0E00
000000
000000
000000
FFFFE0
FFFFE0
FFFFE0
FFFFE0
F00000
F00000
F00000
F00000
F00000
F00000
F00000
FFFFC0
FFFFC0
FFFFC0
FFFFC0
F00000
F00000
F00000
F00000
F00000
F00000
F00000
F00000
FFFFF0
FFFFF0
FFFFF0
FFFFF0
000000
000000
00E000
01F000
01F000
01F000
00E000
ENDCHAR
STARTCHAR uni1EC7
ENCODING 7879
SWIDTH 588 0
DWIDTH 23 0
BBX 21 38 1 -8
BITMAP
00F800
01FC00
01DE00
03CE00
078F00
000000
000000
000000
00FE00
07FF80
0FFFC0
1FFFE0
3F03E0
3E01F0
7C00F0
7800F0
7800F0
780078
FFFFF8
FFFFF8
FFFFF8
F80000
780000
7C0000
7C0000
3E00C0
3F01E0
1FFFF0
0FFFC0
07FF80
01FE00
000000
000000
007800
00F800
00F800
00F800
007000
ENDCHAR
STARTCHAR uni1EC8
ENCODING 7880
SWIDTH 302 0
DWIDTH 12 0
BBX 8 36 2 0
BITMAP
7C
FE
C7
47
07
0E
1C
00
00
3C
3C
3C
3C
3C
3C
3C
3C
3C
3C
3C
3C
3C
3C
3C
3C
3C
3C
3C
3C
3C
3C
3C
3C
3C
3C
3C
ENDCHAR
STARTCHAR uni1EC9
ENCODING 7881
SWIDTH 284 0
DWIDTH 11 0
BBX 8 30 1 0
BITMAP
3E
7F
E3
03
03
07
0E
00
00
3E
3E
3E
3E
3E
3E
3E
3E
3E
3E
3E
3E
3E
3E
3E
3E
3E
3E
3E
3E
3E
ENDCHAR
STARTCHAR uni1ECA
ENCODING 7882
SWIDTH 302 0
DWIDTH 12 0
BBX 6 34 3 -7
BITMAP
78
78
78
78
78
78
78
78
78
78
78
78
78
78
78
78
78
78
78
78
78
78
78
78
78
78
78
00
00
70
78
FC
F8
78
ENDCHAR
STARTCHAR uni1ECB
ENCODING 7883
SWIDTH 284 0
DWIDTH 11 0
BBX 5 36 3 -7
BITMAP
70
F8
F8
F8
70
00
00
00
F8
F8
F8
F8
F8
F8
F8
F8
F8
F8
F8
F8
F8
F8
F8
F8
F8
F8
F8
F8
F8
00
00
70
F8
F8
F8
70
ENDCHAR
STARTCHAR uni1ECC
ENCODING 7884
SWIDTH 810 0
DWIDTH 32 0
BBX 29 35 1 -8
BITMAP
001FE000
00FFFC00
03FFFE00
07FFFF80
0FF07FC0
1FC00FC0
1F0007E0
3E0003F0
7E0001F0
7C0001F8
7C0000F8
780000F8
F80000F8
F8000078
F8000078
F80000F8
780000F8
7C0000F8
7C0000F8
7E0001F0
3F0003F0
1F8007E0
1FC00FC0
0FF03FC0
07FFFF00
03FFFE00
00FFF800
001FE000
00000000
00000000
00078000
000F8000
000F8000
000F8000
00070000
ENDCHAR
STARTCHAR uni1ECD
ENCODING 7885
SWIDTH 625 0
DWIDTH 24 0
BBX 22 30 1 -8
BITMAP
00FE00
07FF80
0FFFC0
1FFFE0
3F03F0
3E01F8
7C00F8
7C007C
78007C
78007C
F8007C
F8003C
F8007C
78007C
78007C
7C0078
7C00F8
3E01F8
3F03F0
1FFFE0
0FFFC0
07FF80
00FE00
000000
000000
007800
007C00
007C00
007C00
003800
ENDCHAR
STARTCHAR uni1ECE
ENCODING 7886
SWIDTH 810 0
DWIDTH 32 0
BBX 29 37 1 -1
BITMAP
000F8000
001FC000
0018C000
0008C000
0000C000
0001C000
00038000
00000000
00000000
001FE000
00FFFC00
03FFFE00
07FFFF80
0FF07FC0
1FC00FC0
1F0007E0
3E0003F0
7E0001F0
7C0001F8
7C0000F8
780000F8
F80000F8
F8000078
F8000078
F80000F8
780000F8
7C0000F8
7C0000F8
7E0001F0
3F0003F0
1F8007E0
1FC00FC0
0FF03FC0
07FFFF00
03FFFE00
00FFF800
001FE000
ENDCHAR
STARTCHAR uni1ECF
ENCODING 7887
SWIDTH 625 0
DWIDTH 24 0
BBX 22 32 1 -1
BITMAP
007C00
00FE00
01CE00
008600
000600
000C00
001C00
000000
000000
00FE00
07FF80
0FFFC0
1FFFE0
3F03F0
3E01F8
7C00F8
7C007C
78007C
78007C
F8007C
F8003C
F8007C
78007C
78007C
7C0078
7C00F8
3E01F8
3F03F0
1FFFE0
0FFFC0
07FF80
00FE00
ENDCHAR
STARTCHAR uni1ED0
ENCODING 7888
SWIDTH 810 0
DWIDTH 32 0
BBX 29 40 1 -1
BITMAP
00000380
000003E0
00000780
00000F00
000F9E00
001FC000
003DE000
0038F000
00787000
00000000
00000000
00000000
001FE000
00FFFC00
03FFFE00
07FFFF80
0FF07FC0
1FC00FC0
1F0007E0
3E0003F0
7E0001F0
7C0001F8
7C0000F8
780000F8
F80000F8
F8000078
F8000078
F80000F8
780000F8
7C0000F8
7C0000F8
7E0001F0
3F0003F0
1F8007E0
1FC00FC0
0FF03FC0
07FFFF00
03FFFE00
00FFF800
001FE000
ENDCHAR
STARTCHAR uni1ED1
ENCODING 7889
SWIDTH 625 0
DWIDTH 24 0
BBX 23 35 1 -1
BITMAP
000018
00003E
00003C
000078
007CF0
00FC00
01EE00
03CF00
038780
000000
000000
000000
00FE00
07FF80
0FFFC0
1FFFE0
3F03F0
3E01F8
7C00F8
7C007C
78007C
78007C
F8007C
F8003C
F8007C
78007C
78007C
7C0078
7C00F8
3E01F8
3F03F0
1FFFE0
0FFFC0
07FF80
00FE00
ENDCHAR
STARTCHAR uni1ED2
ENCODING 7890
SWIDTH 810 0
DWIDTH 32 0
BBX 29 41 1 -1
BITMAP
00001000
00007000
0000F800
00007C00
00001E00
000F8E00
001FC000
003DE000
0038F000
00787000
00000000
00000000
00000000
001FE000
00FFFC00
03FFFE00
07FFFF80
0FF07FC0
1FC00FC0
1F0007E0
3E0003F0
7E0001F0
7C0001F8
7C0000F8
780000F8
F80000F8
F8000078
F8000078
F80000F8
780000F8
7C0000F8
7C0000F8
7E0001F0
3F0003F0
1F8007E0
1FC00FC0
0FF03FC0
07FFFF00
03FFFE00
00FFF800
001FE000
ENDCHAR
STARTCHAR uni1ED3
ENCODING 7891
SWIDTH 625 0
DWIDTH 24 0
BBX 22 35 1 -1
BITMAP
000180
0007C0
0007C0
0001E0
007CF0
00FC00
01EE00
03CF00
038780
000000
000000
000000
00FE00
07FF80
0FFFC0
1FFFE0
3F03F0
3E01F8
7C00F8
7C007C
78007C
78007C
F8007C
F8003C
F8007C
78007C
78007C
7C0078
7C00F8
3E01F8
3F03F0
1FFFE0
0FFFC0
07FF80
00FE00
ENDCHAR
STARTCHAR uni1ED4
ENCODING 7892
SWIDTH 810 0
DWIDTH 32 0
BBX 29 42 1 -1
BITMAP
00007C00
0000FE00
0000C600
00004600
00000600
00000E00
000F9C00
001FC000
003DE000
0038F000
00787000
00000000
00000000
00000000
001FE000
00FFFC00
03FFFE00
07FFFF80
0FF07FC0
1FC00FC0
1F0007E0
3E0003F0
7E0001F0
7C0001F8
7C0000F8
780000F8
F80000F8
F8000078
F8000078
F80000F8
780000F8
7C0000F8
7C0000F8
7E0001F0
3F0003F0
1F8007E0
1FC00FC0
0FF03FC0
07FFFF00
03FFFE00
00FFF800
001FE000
ENDCHAR
STARTCHAR uni1ED5
ENCODING 7893
SWIDTH 625 0
DWIDTH 24 0
BBX 22 37 1 -1
BITMAP
0003C0
0007F0
000E70
000430
000030
000070
007CE0
00FC40
01EE00
03CF00
038780
000000
000000
000000
00FE00
07FF80
0FFFC0
1FFFE0
3F03F0
3E01F8
7C00F8
7C007C
78007C
78007C
F8007C
F8003C
F8007C
78007C
78007C
7C0078
7C00F8
3E01F8
3F03F0
1FFFE0
0FFFC0
07FF80
00FE00
ENDCHAR
STARTCHAR uni1ED6
ENCODING 7894
SWIDTH 810 0
DWIDTH 32 0
BBX 29 42 1 -1
BITMAP
003C3800
007E7800
00FFF000
00E3F000
00E1E000
00000000
000F8000
001FC000
003DE000
0038F000
00787000
00000000
00000000
00000000
001FE000
00FFFC00
03FFFE00
07FFFF80
0FF07FC0
1FC00FC0
1F0007E0
3E0003F0
7E0001F0
7C0001F8
7C0000F8
780000F8
F80000F8
F8000078
F8000078
F80000F8
780000F8
7C0000F8
7C0000F8
7E0001F0
3F0003F0
1F8007E0
1FC00FC0
0FF03FC0
07FFFF00
03FFFE00
00FFF800
001FE000
ENDCHAR
STARTCHAR uni1ED7
ENCODING 7895
SWIDTH 625 0
DWIDTH 24 0
BBX 22 37 1 -1
BITMAP
01C380
03F380
07FF80
073F80
070F00
000000
007C00
00FC00
01EE00
03CF00
038780
000000
000000
000000
00FE00
07FF80
0FFFC0
1FFFE0
3F03F0
3E01F8
7C00F8
7C007C
78007C
78007C
F8007C
F8003C
F8007C
78007C
78007C
7C0078
7C00F8
3E01F8
3F03F0
1FFFE0
0FFFC0
07FF80
00FE00
ENDCHAR
STARTCHAR uni1ED8
ENCODING 7896
SWIDTH 810 0
DWIDTH 32 0
BBX 29 43 1 -8
BITMAP
000F8000
001FC000
003DE000
0038F000
00787000
00000000
00000000
00000000
001FE000
00FFFC00
03FFFE00
07FFFF80
0FF07FC0
1FC00FC0
1F0007E0
3E0003F0
7E0001F0
7C0001F8
7C0000F8
780000F8
F80000F8
F8000078
F8000078
F80000F8
780000F8
7C0000F8
7C0000F8
7E0001F0
3F0003F0
1F8007E0
1FC00FC0
0FF03FC0
07FFFF00
03FFFE00
00FFF800
001FE000
00000000
00000000
00078000
000F8000
000F8000
000F8000
00070000
ENDCHAR
STARTCHAR uni1ED9
ENCODING 7897
SWIDTH 625 0
DWIDTH 24 0
BBX 22 38 1 -8
BITMAP
007C00
00FC00
01EE00
01CF00
038780
000000
000000
000000
00FE00
07FF80
0FFFC0
1FFFE0
3F03F0
3E01F8
7C00F8
7C007C
78007C
78007C
F8007C
F8003C
F8007C
78007C
78007C
7C0078
7C00F8
3E01F8
3F03F0
1FFFE0
0FFFC0
07FF80
00FE00
000000
000000
007800
007C00
007C00
007C00
003800
ENDCHAR
STARTCHAR uni1EDA
ENCODING 7898
SWIDTH 810 0
DWIDTH 32 0
BBX 29 37 1 -1
BITMAP
00008000
0000E000
0001F800
0003F000
0003C000
00078000
00000780
00000780
00000F00
001FFF00
00FFFE00
03FFFE00
07FFFF80
0FF07FC0
1FC00FE0
1F0007E0
3E0003F0
7E0001F0
7C0001F8
7C0000F8
780000F8
F80000F8
F8000078
F8000078
F80000F8
780000F8
7C0000F8
7C0000F8
7E0001F0
3F0003F0
1F8007E0
1FC00FC0
0FF03FC0
07FFFF00
03FFFE00
00FFF800
001FE000
ENDCHAR
STARTCHAR uni1EDB
ENCODING 7899
SWIDTH 625 0
DWIDTH 24 0
BBX 22 31 1 -1
BITMAP
000400
000F80
001F80
003F00
003C00
00403C
000038
000078
00FEF8
07FFF0
0FFFE0
1FFFF0
3F03F0
3E01F8
7C00F8
7C007C
78007C
78007C
F8007C
F8003C
F8007C
78007C
78007C
7C0078
7C00F8
3E01F8
3F03F0
1FFFE0
0FFFC0
07FF80
00FE00
ENDCHAR
STARTCHAR uni1EDC
ENCODING 7900
SWIDTH 810 0
DWIDTH 32 0
BBX 29 37 1 -1
BITMAP
00080000
003C0000
00FC0000
003E0000
001F0000
000F0000
00000780
00000780
00000F00
001FFF00
00FFFE00
03FFFE00
07FFFF80
0FF07FC0
1FC00FE0
1F0007E0
3E0003F0
7E0001F0
7C0001F8
7C0000F8
780000F8
F80000F8
F8000078
F8000078
F80000F8
780000F8
7C0000F8
7C0000F8
7E0001F0
3F0003F0
1F8007E0
1FC00FC0
0FF03FC0
07FFFF00
03FFFE00
00FFF800
001FE000
ENDCHAR
STARTCHAR uni1EDD
ENCODING 7901
SWIDTH 625 0
DWIDTH 24 0
BBX 22 31 1 -1
BITMAP
00C000
03C000
07E000
01F000
00F800
00003C
000038
000078
00FEF8
07FFF0
0FFFE0
1FFFF0
3F03F0
3E01F8
7C00F8
7C007C
78007C
78007C
F8007C
F8003C
F8007C
78007C
78007C
7C0078
7C00F8
3E01F8
3F03F0
1FFFE0
0FFFC0
07FF80
00FE00
ENDCHAR
STARTCHAR uni1EDE
ENCODING 7902
SWIDTH 810 0
DWIDTH 32 0
BBX 29 37 1 -1
BITMAP
000F8000
001FC000
0018C000
0008C000
0000C000
0001C000
00038780
00000780
00000F00
001FFF00
00FFFE00
03FFFE00
07FFFF80
0FF07FC0
1FC00FE0
1F0007E0
3E0003F0
7E0001F0
7C0001F8
7C0000F8
780000F8
F80000F8
F8000078
F8000078
F80000F8
780000F8
7C0000F8
7C0000F8
7E0001F0
3F0003F0
1F8007E0
1FC00FC0
0FF03FC0
07FFFF00
03FFFE00
00FFF800
001FE000
ENDCHAR
STARTCHAR uni1EDF
ENCODING 7903
SWIDTH 625 0
DWIDTH 24 0
BBX 22 32 1 -1
BITMAP
007C00
00FE00
01CE00
008600
000600
000C00
001C3C
000038
000078
00FEF8
07FFF0
0FFFE0
1FFFF0
3F03F0
3E01F8
7C00F8
7C007C
78007C
78007C
F8007C
F8003C
F8007C
78007C
78007C
7C0078
7C00F8
3E01F8
3F03F0
1FFFE0
0FFFC0
07FF80
00FE00
ENDCHAR
STARTCHAR uni1EE0
ENCODING 7904
SWIDTH 810 0
DWIDTH 32 0
BBX 29 37 1 -1
BITMAP
003C0000
007E3800
007F7800
00F7F800
00E3F000
0000E000
00000780
00000780
00000F00
001FFF00
00FFFE00
03FFFE00
07FFFF80
0FF07FC0
1FC00FE0
1F0007E0
3E0003F0
7E0001F0
7C0001F8
7C0000F8
780000F8
F80000F8
F8000078
F8000078
F80000F8
780000F8
7C0000F8
7C0000F8
7E0001F0
3F0003F0
1F8007E0
1FC00FC0
0FF03FC0
07FFFF00
03FFFE00
00FFF800
001FE000
ENDCHAR
STARTCHAR uni1EE1
ENCODING 7905
SWIDTH 625 0
DWIDTH 24 0
BBX 22 31 1 -1
BITMAP
000180
03E180
03F380
07FF80
073F00
000E00
00003C
000038
00FEF8
07FFF0
0FFFE0
1FFFF0
3F03F0
3E01F8
7C00F8
7C007C
78007C
78007C
F8007C
F8003C
F8007C
78007C
78007C
7C0078
7C00F8
3E01F8
3F03F0
1FFFE0
0FFFC0
07FF80
00FE00
ENDCHAR
STARTCHAR uni1EE2
ENCODING 7906
SWIDTH 810 0
DWIDTH 32 0
BBX 29 38 1 -8
BITMAP
00000780
00000780
00000F00
001FFF00
00FFFE00
03FFFE00
07FFFF80
0FF07FC0
1FC00FE0
1F0007E0
3E0003F0
7E0001F0
7C0001F8
7C0000F8
780000F8
F80000F8
F8000078
F8000078
F80000F8
780000F8
7C0000F8
7C0000F8
7E0001F0
3F0003F0
1F8007E0
1FC00FC0
0FF03FC0
07FFFF00
03FFFE00
00FFF800
001FE000
00000000
00000000
00078000
000F8000
000F8000
000F8000
00070000
ENDCHAR
STARTCHAR uni1EE3
ENCODING 7907
SWIDTH 625 0
DWIDTH 24 0
BBX 22 33 1 -8
BITMAP
00003C
000038
000078
00FEF8
07FFF0
0FFFE0
1FFFF0
3F03F0
3E01F8
7C00F8
7C007C
78007C
78007C
F8007C
F8003C
F8007C
78007C
78007C
7C0078
7C00F8
3E01F8
3F03F0
1FFFE0
0FFFC0
07FF80
00FE00
000000
000000
007800
007C00
007C00
007C00
003800
ENDCHAR
STARTCHAR uni1EE4
ENCODING 7908
SWIDTH 764 0
DWIDTH 30 0
BBX 24 35 3 -8
BITMAP
F8001F
F8001F
F8001F
F8001F
F8001F
F8001F
F8001F
F8001F
F8001F
F8001F
F8001F
F8001F
F8001F
F8001F
F8001F
F8001F
F8001F
F8001F
F8001F
F8001F
7C003E
7C003E
7E007C
3FC1FC
1FFFF8
0FFFF0
07FFC0
00FF00
000000
000000
003C00
003C00
007E00
003C00
003C00
ENDCHAR
STARTCHAR uni1EE5
ENCODING 7909
SWIDTH 653 0
DWIDTH 25 0
BBX 19 29 3 -8
BITMAP
F001E0
F001E0
F001E0
F001E0
F001E0
F001E0
F001E0
F001E0
F001E0
F001E0
F001E0
F001E0
F001E0
F003E0
F003E0
F807E0
FC07E0
FE1FE0
7FFDE0
7FFDE0
3FF1E0
0FC000
000000
000000
00F000
00F800
01F800
00F000
00F000
ENDCHAR
STARTCHAR uni1EE6
ENCODING 7910
SWIDTH 764 0
DWIDTH 30 0
BBX 24 37 3 -1
BITMAP
007C00
00FE00
00C700
004700
000700
000E00
001C00
000000
000000
F8001F
F8001F
F8001F
F8001F
F8001F
F8001F
F8001F
F8001F
F8001F
F8001F
F8001F
F8001F
F8001F
F8001F
F8001F
F8001F
F8001F
F8001F
F8001F
F8001F
7C003E
7C003E
7E007C
3FC1FC
1FFFF8
0FFFF0
07FFC0
00FF00
ENDCHAR
STARTCHAR uni1EE7
ENCODING 7911
SWIDTH 653 0
DWIDTH 25 0
BBX 19 31 3 -1
BITMAP
01F000
03F800
071800
001800
001800
003800
007000
000000
000000
F001E0
F001E0
F001E0
F001E0
F001E0
F001E0
F001E0
F001E0
F001E0
F001E0
F001E0
F001E0
F001E0
F003E0
F003E0
F807E0
FC07E0
FE1FE0
7FFDE0
7FFDE0
3FF1E0
0FC000
ENDCHAR
STARTCHAR uni1EE8
ENCODING 7912
SWIDTH 764 0
DWIDTH 30 0
BBX 27 36 3 -1
BITMAP
00078000
000FC000
001F8000
001F0000
003C00E0
000000E0
000001E0
000003E0
F8001FC0
F8001F80
F8001F00
F8001F00
F8001F00
F8001F00
F8001F00
F8001F00
F8001F00
F8001F00
F8001F00
F8001F00
F8001F00
F8001F00
F8001F00
F8001F00
F8001F00
F8001F00
F8001F00
F8001F00
7C003E00
7C003E00
7E007C00
3FC1FC00
1FFFF800
0FFFF000
07FFC000
00FF0000
ENDCHAR
STARTCHAR uni1EE9
ENCODING 7913
SWIDTH 653 0
DWIDTH 25 0
BBX 24 31 3 -1
BITMAP
001800
003E00
003F00
007C00
00F800
00F000
00000F
00000F
00001E
F001FE
F001FC
F001F8
F001E0
F001E0
F001E0
F001E0
F001E0
F001E0
F001E0
F001E0
F001E0
F001E0
F003E0
F003E0
F807E0
FC07E0
FE1FE0
7FFDE0
7FFDE0
3FF1E0
0FC000
ENDCHAR
STARTCHAR uni1EEA
ENCODING 7914
SWIDTH 764 0
DWIDTH 30 0
BBX 27 37 3 -1
BITMAP
00400000
01E00000
03F00000
01F00000
00F80000
003C00E0
000000E0
000001E0
000003E0
F8001FC0
F8001F80
F8001F00
F8001F00
F8001F00
F8001F00
F8001F00
F8001F00
F8001F00
F8001F00
F8001F00
F8001F00
F8001F00
F8001F00
F8001F00
F8001F00
F8001F00
F8001F00
F8001F00
F8001F00
7C003E00
7C003E00
7E007C00
3FC1FC00
1FFFF800
0FFFF000
07FFC000
00FF0000
ENDCHAR
STARTCHAR uni1EEB
ENCODING 7915
SWIDTH 653 0
DWIDTH 25 0
BBX 24 31 3 -1
BITMAP
010000
0F8000
0F8000
07C000
03E000
01F000
00000F
00000F
00001E
F001FE
F001FC
F001F8
F001E0
F001E0
F001E0
F001E0
F001E0
F001E0
F001E0
F001E0
F001E0
F001E0
F003E0
F003E0
F807E0
FC07E0
FE1FE0
7FFDE0
7FFDE0
3FF1E0
0FC000
ENDCHAR
STARTCHAR uni1EEC
ENCODING 7916
SWIDTH 764 0
DWIDTH 30 0
BBX 27 37 3 -1
BITMAP
007C0000
00FE0000
00C70000
00470000
00070000
000E0000
001C00E0
000001E0
000001E0
F8001FC0
F8001F80
F8001F00
F8001F00
F8001F00
F8001F00
F8001F00
F8001F00
F8001F00
F8001F00
F8001F00
F8001F00
F8001F00
F8001F00
F8001F00
F8001F00
F8001F00
F8001F00
F8001F00
F8001F00
7C003E00
7C003E00
7E007C00
3FC1FC00
1FFFF800
0FFFF000
07FFC000
00FF0000
ENDCHAR
STARTCHAR uni1EED
ENCODING 7917
SWIDTH 653 0
DWIDTH 25 0
BBX 24 31 3 -1
BITMAP
01F000
03F800
031800
011800
001800
003800
00700F
00000F
00001E
F001FE
F001FC
F001F8
F001E0
F001E0
F001E0
F001E0
F001E0
F001E0
F001E0
F001E0
F001E0
F001E0
F003E0
F003E0
F807E0
FC07E0
FE1FE0
7FFDE0
7FFDE0
3FF1E0
0FC000
ENDCHAR
STARTCHAR uni1EEE
ENCODING 7918
SWIDTH 764 0
DWIDTH 30 0
BBX 27 37 3 -1
BITMAP
01E1C000
03F9C000
03FFC000
039FC000
038F8000
000000E0
000000E0
000001E0
000003E0
F8001FC0
F8001F80
F8001F00
F8001F00
F8001F00
F8001F00
F8001F00
F8001F00
F8001F00
F8001F00
F8001F00
F8001F00
F8001F00
F8001F00
F8001F00
F8001F00
F8001F00
F8001F00
F8001F00
F8001F00
7C003E00
7C003E00
7E007C00
3FC1FC00
1FFFF800
0FFFF000
07FFC000
00FF0000
ENDCHAR
STARTCHAR uni1EEF
ENCODING 7919
SWIDTH 653 0
DWIDTH 25 0
BBX 24 31 3 -1
BITMAP
000700
078700
0FC700
0FFE00
1E7E00
1C3C00
000000
00000F
00001E
F001FE
F001FC
F001F8
F001E0
F001E0
F001E0
F001E0
F001E0
F001E0
F001E0
F001E0
F001E0
F001E0
F003E0
F003E0
F807E0
FC07E0
FE1FE0
7FFDE0
7FFDE0
3FF1E0
0FC000
ENDCHAR
STARTCHAR uni1EF0
ENCODING 7920
SWIDTH 764 0
DWIDTH 30 0
BBX 27 39 3 -8
BITMAP
000000E0
000000E0
000001E0
000003E0
F8001FC0
F8001F80
F8001F00
F8001F00
F8001F00
F8001F00
F8001F00
F8001F00
F8001F00
F8001F00
F8001F00
F8001F00
F8001F00
F8001F00
F8001F00
F8001F00
F8001F00
F8001F00
F8001F00
F8001F00
7C003E00
7C003E00
7E007C00
3FC1FC00
1FFFF800
0FFFF000
07FFC000
00FF0000
00000000
00000000
003C0000
003C0000
007E0000
003C0000
003C0000
ENDCHAR
STARTCHAR uni1EF1
ENCODING 7921
SWIDTH 653 0
DWIDTH 25 0
BBX 24 32 3 -8
BITMAP
00000F
00000F
00001E
F001FE
F001FC
F001F8
F001E0
F001E0
F001E0
F001E0
F001E0
F001E0
F001E0
F001E0
F001E0
F001E0
F003E0
F003E0
F807E0
FC07E0
FE1FE0
7FFDE0
7FFDE0
3FF1E0
0FC000
000000
000000
00F000
00F800
01F800
00F000
00F000
ENDCHAR
STARTCHAR Ygrave
ENCODING 7922
SWIDTH 637 0
DWIDTH 25 0
BBX 25 36 0 0
BITMAP
00200000
00F00000
03F00000
00F80000
007C0000
003C0000
00000000
00000000
00000000
F8000F80
7C001F00
7C001E00
3E003E00
1E007C00
1F007C00
0F80F800
0F80F800
07C1F000
07C1F000
03E3E000
03F7C000
01F7C000
00FF8000
00FF8000
007F0000
007F0000
003E0000
003E0000
003E0000
003E0000
003E0000
003E0000
003E0000
003E0000
003E0000
003E0000
ENDCHAR
STARTCHAR ygrave
ENCODING 7923
SWIDTH 531 0
DWIDTH 21 0
BBX 21 39 0 -9
BITMAP
008000
07C000
07C000
03E000
01F000
00F800
000000
000000
000000
F800F8
F800F0
7800F0
7C01F0
3C01E0
3E01E0
3E03C0
1E03C0
1F07C0
0F0780
0F0780
0F8F80
078F00
078F00
03DE00
03DE00
03FE00
01FC00
01FC00
01FC00
00F800
00F800
00F000
00F000
01F000
63E000
7FE000
FFC000
FF8000
3E0000
ENDCHAR
STARTCHAR uni1EF4
ENCODING 7924
SWIDTH 637 0
DWIDTH 25 0
BBX 25 34 0 -7
BITMAP
F8000F80
7C001F00
7C001E00
3E003E00
1E007C00
1F007C00
0F80F800
0F80F800
07C1F000
07C1F000
03E3E000
03F7C000
01F7C000
00FF8000
00FF8000
007F0000
007F0000
003E0000
003E0000
003E0000
003E0000
003E0000
003E0000
003E0000
003E0000
003E0000
003E0000
00000000
00000000
001C0000
003E0000
003E0000
003E0000
001C0000
ENDCHAR
STARTCHAR uni1EF5
ENCODING 7925
SWIDTH 531 0
DWIDTH 21 0
BBX 21 30 0 -9
BITMAP
F800F8
F800F0
7800F0
7C01F0
3C01E0
3E01E0
3E03C0
1E03C0
1F07C0
0F0780
0F0780
0F8F80
078F00
078F00
03DE00
03DE00
03FE00
01FC00
01FC00
01FC00
00F800
00F800
00F000
00F000
01F1C0
63E3E0
7FE3E0
FFC3E0
FF83C0
3E0000
ENDCHAR
STARTCHAR uni1EF6
ENCODING 7926
SWIDTH 637 0
DWIDTH 25 0
BBX 25 36 0 0
BITMAP
003E0000
007F0000
00E30000
00030000
00030000
00070000
000E0000
00000000
00000000
F8000F80
7C001F00
7C001E00
3E003E00
1E007C00
1F007C00
0F80F800
0F80F800
07C1F000
07C1F000
03E3E000
03F7C000
01F7C000
00FF8000
00FF8000
007F0000
007F0000
003E0000
003E0000
003E0000
003E0000
003E0000
003E0000
003E0000
003E0000
003E0000
003E0000
ENDCHAR
STARTCHAR uni1EF7
ENCODING 7927
SWIDTH 531 0
DWIDTH 21 0
BBX 21 39 0 -9
BITMAP
00F800
01FC00
038C00
000C00
000C00
001C00
003800
000000
000000
F800F8
F800F0
7800F0
7C01F0
3C01E0
3E01E0
3E03C0
1E03C0
1F07C0
0F0780
0F0780
0F8F80
078F00
078F00
03DE00
03DE00
03FE00
01FC00
01FC00
01FC00
00F800
00F800
00F000
00F000
01F000
63E000
7FE000
FFC000
FF8000
3E0000
ENDCHAR
STARTCHAR uni1EF8
ENCODING 7928
SWIDTH 637 0
DWIDTH 25 0
BBX 25 36 0 0
BITMAP
00F0E000
01F9E000
03FFC000
03CFC000
03878000
00000000
00000000
00000000
00000000
F8000F80
7C001F00
7C001E00
3E003E00
1E007C00
1F007C00
0F80F800
0F80F800
07C1F000
07C1F000
03E3E000
03F7C000
01F7C000
00FF8000
00FF8000
007F0000
007F0000
003E0000
003E0000
003E0000
003E0000
003E0000
003E0000
003E0000
003E0000
003E0000
003E0000
ENDCHAR
STARTCHAR uni1EF9
ENCODING 7929
SWIDTH 531 0
DWIDTH 21 0
BBX 21 39 0 -9
BITMAP
000380
03C380
07E780
0FFF00
0E3F00
0E1E00
000000
000000
000000
F800F8
F800F0
7800F0
7C01F0
3C01E0
3E01E0
3E03C0
1E03C0
1F07C0
0F0780
0F0780
0F8F80
078F00
078F00
03DE00
03DE00
03FE00
01FC00
01FC00
01FC00
00F800
00F800
00F000
00F000
01F000
63E000
7FE000
FFC000
FF8000
3E0000
ENDCHAR
STARTCHAR uni2007
ENCODING 8199
SWIDTH 617 0
DWIDTH 24 0
BBX 1 1 0 0
BITMAP
00
ENDCHAR
STARTCHAR uni2008
ENCODING 8200
SWIDTH 218 0
DWIDTH 9 0
BBX 1 1 0 0
BITMAP
00
ENDCHAR
STARTCHAR uni2009
ENCODING 8201
SWIDTH 200 0
DWIDTH 8 0
BBX 1 1 0 0
BITMAP
00
ENDCHAR
STARTCHAR uni200A
ENCODING 8202
SWIDTH 100 0
DWIDTH 4 0
BBX 1 1 0 0
BITMAP
00
ENDCHAR
STARTCHAR uni200B
ENCODING 8203
SWIDTH 0 0
DWIDTH 0 0
BBX 1 1 0 0
BITMAP
00
ENDCHAR
STARTCHAR uni2010
ENCODING 8208
SWIDTH 368 0
DWIDTH 14 0
BBX 10 3 2 10
BITMAP
FFC0
FFC0
FFC0
ENDCHAR
STARTCHAR figuredash
ENCODING 8210
SWIDTH 617 0
DWIDTH 24 0
BBX 24 3 0 10
BITMAP
FFFFFF
FFFFFF
FFFFFF
ENDCHAR
STARTCHAR endash
ENCODING 8211
SWIDTH 405 0
DWIDTH 16 0
BBX 16 3 0 10
BITMAP
FFFF
FFFF
FFFF
ENDCHAR
STARTCHAR emdash
ENCODING 8212
SWIDTH 691 0
DWIDTH 27 0
BBX 27 3 0 10
BITMAP
FFFFFFE0
FFFFFFE0
FFFFFFE0
ENDCHAR
STARTCHAR uni2015
ENCODING 8213
SWIDTH 691 0
DWIDTH 27 0
BBX 27 3 0 10
BITMAP
FFFFFFE0
FFFFFFE0
FFFFFFE0
ENDCHAR
STARTCHAR quoteleft
ENCODING 8216
SWIDTH 214 0
DWIDTH 8 0
BBX 5 8 1 20
BITMAP
18
38
38
70
78
F8
78
70
ENDCHAR
STARTCHAR quoteright
ENCODING 8217
SWIDTH 214 0
DWIDTH 8 0
BBX 5 8 2 19
BITMAP
70
F0
F8
F0
70
E0
E0
C0
ENDCHAR
STARTCHAR quotesinglbase
ENCODING 8218
SWIDTH 214 0
DWIDTH 8 0
BBX 5 8 2 -3
BITMAP
70
F0
F8
F0
70
E0
E0
C0
ENDCHAR
STARTCHAR quotedblleft
ENCODING 8220
SWIDTH 363 0
DWIDTH 14 0
BBX 11 8 1 20
BITMAP
1860
38E0
39C0
71C0
7BE0
FBE0
7BE0
71C0
ENDCHAR
STARTCHAR quotedblright
ENCODING 8221
SWIDTH 363 0
DWIDTH 14 0
BBX 10 8 2 19
BITMAP
71C0
F3C0
FBC0
F3C0
71C0
E380
E300
C700
ENDCHAR
STARTCHAR quotedblbase
ENCODING 8222
SWIDTH 363 0
DWIDTH 14 0
BBX 10 8 2 -3
BITMAP
7180
F3C0
FBC0
F3C0
71C0
E380
E380
C700
ENDCHAR
STARTCHAR dagger
ENCODING 8224
SWIDTH 536 0
DWIDTH 21 0
BBX 19 34 1 -7
BITMAP
01F000
01F000
01F000
01F000
01F000
01F000
01F000
01F000
FFFFE0
FFFFE0
FFFFE0
FFFFE0
01F000
01F000
01F000
01F000
01F000
01F000
01F000
01F000
01F000
01F000
01F000
01F000
01F000
01F000
01F000
01F000
01F000
01F000
01F000
01F000
01F000
01F000
ENDCHAR
STARTCHAR daggerdbl
ENCODING 8225
SWIDTH 536 0
DWIDTH 21 0
BBX 19 34 1 -7
BITMAP
01F000
01F000
01F000
01F000
01F000
01F000
01F000
01F000
FFFFE0
FFFFE0
FFFFE0
FFFFE0
01F000
01F000
01F000
01F000
01F000
01F000
01F000
01F000
01F000
FFFFE0
FFFFE0
FFFFE0
FFFFE0
01F000
01F000
01F000
01F000
01F000
01F000
01F000
01F000
01F000
ENDCHAR
STARTCHAR bullet
ENCODING 8226
SWIDTH 281 0
DWIDTH 11 0
BBX 7 8 2 6
BITMAP
38
7C
FE
FE
FE
FE
7C
38
ENDCHAR
STARTCHAR ellipsis
ENCODING 8230
SWIDTH 608 0
DWIDTH 24 0
BBX 20 5 2 -1
BITMAP
7060E0
F0F1F0
F0F1F0
F0F1F0
70E0E0
ENDCHAR
STARTCHAR perthousand
ENCODING 8240
SWIDTH 1421 0
DWIDTH 55 0
BBX 53 27 1 0
BITMAP
07E0007C000000
1FF800F8000000
3EFC00F0000000
381C01E0000000
701C03E0000000
700E03C0000000
700E0780000000
700E0F00000000
F00E1F00000000
700E1E00000000
700E3C00000000
701C787E001F80
783CF8FF807FC0
3FF8F1FFC0FFE0
1FF1E3C1E0E0F0
07C3C380E1C070
0007C700E1C038
00078700E1C038
000F0700E1C038
001F0700E3C038
003E0700E1C038
003C0700E1C038
00780380E1C070
00F803C1E1E070
00F001FFC0FBE0
01E001FF807FE0
03C0007F003F80
ENDCHAR
STARTCHAR minute
ENCODING 8242
SWIDTH 208 0
DWIDTH 8 0
BBX 4 9 2 18
BITMAP
F0
F0
F0
F0
F0
E0
E0
E0
E0
ENDCHAR
STARTCHAR second
ENCODING 8243
SWIDTH 373 0
DWIDTH 15 0
BBX 11 9 2 18
BITMAP
F1E0
F1E0
F3C0
F3C0
F3C0
E3C0
E3C0
E380
E380
ENDCHAR
STARTCHAR guilsinglleft
ENCODING 8249
SWIDTH 276 0
DWIDTH 11 0
BBX 8 14 1 3
BITMAP
0F
1E
1E
3C
78
78
F0
F0
78
3C
3C
1E
0F
0F
ENDCHAR
STARTCHAR guilsinglright
ENCODING 8250
SWIDTH 288 0
DWIDTH 11 0
BBX 8 14 3 3
BITMAP
F0
78
78
3C
1E
1E
0F
0F
1E
3C
3C
78
70
F0
ENDCHAR
STARTCHAR fraction
ENCODING 8260
SWIDTH 80 0
DWIDTH 3 0
BBX 23 27 -10 0
BITMAP
00001E
00003C
00007C
000078
0000F0
0001E0
0003E0
0003C0
000780
000F80
001F00
001E00
003C00
007C00
00F800
00F000
01E000
03E000
03C000
078000
0F0000
1F0000
1E0000
3C0000
780000
F80000
F00000
ENDCHAR
STARTCHAR uni2070
ENCODING 8304
SWIDTH 447 0
DWIDTH 17 0
BBX 15 16 1 14
BITMAP
07E0
1FF0
3FF8
383C
701C
700E
700E
700E
F00E
700E
700E
701C
783C
3FF8
1FF0
07C0
ENDCHAR
STARTCHAR uni2074
ENCODING 8308
SWIDTH 394 0
DWIDTH 15 0
BBX 14 16 1 14
BITMAP
0700
0700
0E00
0E00
1C00
3C00
38E0
78E0
70E0
E0E0
FFFC
FFFC
00E0
00E0
00E0
00E0
ENDCHAR
STARTCHAR uni2075
ENCODING 8309
SWIDTH 377 0
DWIDTH 15 0
BBX 12 17 1 14
BITMAP
7FF0
7FF0
7FF0
7000
7000
7000
7000
7FC0
7FE0
00F0
0070
0070
0070
60F0
FFF0
FFE0
1F80
ENDCHAR
STARTCHAR uni2076
ENCODING 8310
SWIDTH 401 0
DWIDTH 16 0
BBX 13 16 1 14
BITMAP
07F0
0FF8
3FF0
3800
7000
7000
77E0
7FF0
F878
7038
7038
7038
7838
3FF8
1FF0
07C0
ENDCHAR
STARTCHAR uni2077
ENCODING 8311
SWIDTH 374 0
DWIDTH 15 0
BBX 13 16 1 14
BITMAP
FFF8
FFF8
FFF8
E070
E0F0
00E0
01E0
01C0
03C0
0380
0780
0700
0F00
0E00
1E00
1C00
ENDCHAR
STARTCHAR uni2078
ENCODING 8312
SWIDTH 407 0
DWIDTH 16 0
BBX 14 16 1 14
BITMAP
0FC0
3FF0
7870
7038
7038
3870
1FE0
1FE0
3CF8
7038
E038
F03C
7038
7CF8
3FF0
0FC0
ENDCHAR
STARTCHAR uni2079
ENCODING 8313
SWIDTH 401 0
DWIDTH 16 0
BBX 13 17 1 14
BITMAP
0700
3FC0
7FE0
70F0
F078
E078
E078
F078
70F8
7FF8
3FB8
0038
0070
00F0
7FE0
7FC0
3F00
ENDCHAR
STARTCHAR uni2080
ENCODING 8320
SWIDTH 447 0
DWIDTH 17 0
BBX 15 17 1 -5
BITMAP
07E0
1FF0
3FF8
383C
701C
701E
700E
700E
F00E
700E
700E
700E
701C
383C
3FF8
1FF0
07C0
ENDCHAR
STARTCHAR uni2081
ENCODING 8321
SWIDTH 262 0
DWIDTH 10 0
BBX 6 16 1 -4
BITMAP
FC
FC
FC
1C
1C
1C
1C
1C
1C
1C
1C
1C
1C
1C
1C
1C
ENDCHAR
STARTCHAR uni2082
ENCODING 8322
SWIDTH 383 0
DWIDTH 15 0
BBX 13 16 1 -4
BITMAP
0F80
7FE0
FFF0
60F0
40F0
00F0
00E0
01C0
03C0
0780
0E00
1C00
3800
7FF8
FFF8
FFF8
ENDCHAR
STARTCHAR uni2083
ENCODING 8323
SWIDTH 355 0
DWIDTH 14 0
BBX 11 17 1 -5
BITMAP
FFE0
FFE0
01C0
0380
0700
0E00
1C00
1F80
1FC0
01E0
00E0
00E0
00E0
C0E0
FFE0
FFC0
3F00
ENDCHAR
STARTCHAR uni2084
ENCODING 8324
SWIDTH 394 0
DWIDTH 15 0
BBX 14 16 1 -4
BITMAP
0700
0700
0E00
0E00
1C00
3C00
38E0
78E0
70E0
E0E0
FFFC
FFFC
00E0
00E0
00E0
00E0
ENDCHAR
STARTCHAR uni2085
ENCODING 8325
SWIDTH 377 0
DWIDTH 15 0
BBX 12 17 1 -5
BITMAP
7FF0
7FF0
7FF0
7000
7000
7000
7F80
7FE0
7BF0
00F0
0070
0070
4070
60F0
FFE0
FFE0
1F80
ENDCHAR
STARTCHAR uni2086
ENCODING 8326
SWIDTH 401 0
DWIDTH 16 0
BBX 13 17 1 -5
BITMAP
07E0
0FF8
3FF0
3800
7000
7000
77E0
7FF0
F878
7838
7038
7038
7038
3838
3FF8
1FF0
07C0
ENDCHAR
STARTCHAR uni2087
ENCODING 8327
SWIDTH 374 0
DWIDTH 15 0
BBX 13 16 1 -4
BITMAP
FFF8
FFF8
FFF8
E070
E0F0
00E0
01E0
01C0
03C0
0380
0780
0700
0F00
0E00
1E00
1C00
ENDCHAR
STARTCHAR uni2088
ENCODING 8328
SWIDTH 407 0
DWIDTH 16 0
BBX 13 17 1 -5
BITMAP
0FC0
3FF0
3870
7038
7038
7030
3CF0
1FE0
3FF0
7878
7038
E038
F038
7038
7CF8
3FF0
0FC0
ENDCHAR
STARTCHAR uni2089
ENCODING 8329
SWIDTH 401 0
DWIDTH 16 0
BBX 13 17 1 -5
BITMAP
0F80
3FE0
7FF0
7070
E078
E038
E078
70F8
7FF8
3FB8
0038
0038
0070
20F0
7FE0
7FC0
0E00
ENDCHAR
STARTCHAR colonmonetary
ENCODING 8353
SWIDTH 697 0
DWIDTH 27 0
BBX 25 38 1 -6
BITMAP
001C7000
001CF000
003CF000
003CF000
003CE000
003FE000
00FFF800
03FFFE00
07FFFF00
0FF07F80
1FC00F00
3F000600
3E000000
7E000000
7C000000
7C000000
78000000
F8000000
F8000000
F8000000
F8000000
78000000
7C000000
7C000000
7E000000
3F000000
3F800600
1FC01F00
0FF87F80
07FFFF00
03FFFE00
00FFF800
007FE000
0079C000
0071C000
0071C000
0071C000
0073C000
ENDCHAR
STARTCHAR franc
ENCODING 8355
SWIDTH 573 0
DWIDTH 22 0
BBX 21 27 1 0
BITMAP
3FFFF8
3FFFF8
3FFFF8
3FFFF8
3E0000
3E0000
3E0000
3E0000
3E0000
3E0000
3E0000
3E0000
3FFFF0
3FFFF0
3FFFF0
3FFFF0
3E0000
3E0000
3E0000
3E0000
FFFF00
FFFF00
3E0000
3E0000
3E0000
3E0000
3E0000
ENDCHAR
STARTCHAR lira
ENCODING 8356
SWIDTH 547 0
DWIDTH 21 0
BBX 20 28 1 0
BITMAP
007E00
01FF80
03FFE0
07FFF0
0FC3E0
0F80E0
0F8040
0F0000
0F0000
0F0000
FFFE00
FFFE00
FFFE00
0F0000
0F0000
0F0000
FFFE00
FFFE00
FFFE00
0F0000
0F0000
0F0000
0F0000
0F0000
FFFFE0
FFFFE0
FFFFE0
FFFFE0
ENDCHAR
STARTCHAR uni20A6
ENCODING 8358
SWIDTH 757 0
DWIDTH 30 0
BBX 28 27 1 0
BITMAP
1F000F80
1F000F80
1F800F80
1F800F80
1FC00F80
1FE00F80
1FE00F80
1EF00F80
1EF80F80
FFFFFFF0
FFFFFFF0
FFFFFFF0
1E1E0F80
1E0F0F80
1E0F8F80
FFFFFFF0
FFFFFFF0
FFFFFFF0
1E01EF80
1E00FF80
1E00FF80
1E007F80
1E007F80
1E003F80
1E001F80
1E001F80
1E000F80
ENDCHAR
STARTCHAR peseta
ENCODING 8359
SWIDTH 1520 0
DWIDTH 59 0
BBX 54 28 4 -1
BITMAP
FFFC0000000000
FFFF0000000000
FFFFC07C000000
FFFFE07C000000
F007E07C000000
F001F07C001FC0
F000F3FFE07FF8
F000F3FFE0FFFC
F000F3FFE1FFF8
F000F07C01F038
F000F07C01E000
F001F07C01E000
F001F07C01F000
F003E07C01F800
F00FE07C01FE00
FFFFC07C00FFC0
FFFF807C007FF0
FFFF007C001FF8
FFF8007C0007F8
F000007C0000FC
F000007C00007C
F000007C00003C
F000007C01003C
F000007E21C07C
F000003FF3FDF8
F000003FF3FFF8
F000001FF0FFF0
00000007C03F80
ENDCHAR
STARTCHAR uni20A9
ENCODING 8361
SWIDTH 986 0
DWIDTH 38 0
BBX 38 27 0 0
BITMAP
7C007C007C
7C007C007C
7C00FC0078
3C00FE00F8
3E00FE00F8
3E00FE00F0
3E01EF00F0
1E01EF01F0
FFFFFFFFFC
FFFFFFFFFC
FFFFFFFFFC
0F038783E0
0F838783C0
0F8783C3C0
078783C3C0
FFFFFFFFFC
FFFFFFFFFC
FFFFFFFFFC
03CE01E780
03CE01EF00
03FE00EF00
01FE00FF00
01FC00FE00
01FC00FE00
00FC007E00
00FC007E00
00F8007C00
ENDCHAR
STARTCHAR dong
ENCODING 8363
SWIDTH 681 0
DWIDTH 27 0
BBX 25 35 1 -6
BITMAP
00003C00
00003C00
0003FF80
0003FF80
0003FF80
00003C00
00003C00
01FC3C00
07FF3C00
0FFFBC00
1FFFBC00
3F03FC00
3E01FC00
7C00FC00
7C007C00
78007C00
78007C00
F8003C00
F8003C00
F8003C00
F8007C00
78007C00
7C007C00
7C00FC00
3E00FC00
3F03FC00
1FFFBC00
0FFFBC00
07FF3C00
01F80000
00000000
00000000
1FFFF000
1FFFF000
1FFFF000
ENDCHAR
STARTCHAR Euro
ENCODING 8364
SWIDTH 791 0
DWIDTH 31 0
BBX 29 28 1 -1
BITMAP
0001FC00
000FFF80
003FFFE0
007FFFF0
00FF07F8
01F801F0
03F00060
03E00000
07C00000
07C00000
FFFFF000
FFFFF000
0F800000
0F800000
0F800000
0F800000
FFFFF000
FFFFF000
07FFF000
07C00000
03E00000
03F00060
01FC01F0
00FF8FF8
007FFFF0
003FFFC0
000FFF00
0003FC00
ENDCHAR
STARTCHAR uni20AD
ENCODING 8365
SWIDTH 657 0
DWIDTH 26 0
BBX 24 27 1 0
BITMAP
3E003E
3E007C
3E00F8
3E01F0
3E03E0
3E07E0
3E0FC0
3E1F80
3E3F00
3E7E00
3E7C00
3EF800
FFFFFC
FFFFFC
FFFFFC
3EF800
3E7C00
3E3E00
3E1F00
3E0F80
3E07C0
3E03E0
3E01F0
3E00F8
3E00FC
3E007E
3E003F
ENDCHAR
STARTCHAR uni20B1
ENCODING 8369
SWIDTH 741 0
DWIDTH 29 0
BBX 27 27 1 0
BITMAP
1FFFC000
1FFFF000
1FFFFC00
1FFFFE00
1E007F00
FFFFFFE0
FFFFFFE0
FFFFFFE0
1E000F00
FFFFFFE0
FFFFFFE0
FFFFFFE0
1E001F00
1E003E00
1E00FE00
1FFFFC00
1FFFF800
1FFFF000
1FFFC000
1E000000
1E000000
1E000000
1E000000
1E000000
1E000000
1E000000
1E000000
ENDCHAR
STARTCHAR uni20B2
ENCODING 8370
SWIDTH 723 0
DWIDTH 28 0
BBX 25 37 1 -5
BITMAP
00070000
00070000
00070000
00070000
00070000
003FF000
00FFFE00
03FFFF80
07FFFF80
0FF03F00
1FC00700
3F000200
3E000000
7C000000
7C000000
78000000
F8000000
F8000000
F8000780
F8000780
78000780
7C000780
7C000780
7E000780
3E000780
3F000780
1FC00780
0FF03F80
07FFFF80
03FFFF00
00FFFC00
003FE000
00070000
00070000
00070000
00070000
00070000
ENDCHAR
STARTCHAR uni20B5
ENCODING 8373
SWIDTH 697 0
DWIDTH 27 0
BBX 25 38 1 -6
BITMAP
00070000
00070000
00070000
00070000
00070000
003FE000
00FFF800
03FFFE00
07FFFF00
0FF03F80
1F800F00
3F000600
3E000000
7C000000
7C000000
78000000
F8000000
F8000000
F8000000
F8000000
F8000000
7C000000
7C000000
7E000000
3E000000
3F000600
1FC00F00
0FF07F80
07FFFF00
03FFFE00
00FFF800
003FC000
00070000
00070000
00070000
00070000
00070000
00070000
ENDCHAR
STARTCHAR uni20B9
ENCODING 8377
SWIDTH 581 0
DWIDTH 23 0
BBX 21 27 1 0
BITMAP
FFFFF8
FFFFF8
FFFFF8
FFFFF8
003F80
000F80
0007C0
FFFFF8
FFFFF8
FFFFF8
FFFFF8
0007C0
0007C0
000F80
003F80
FFFF00
FFFE00
FFFC00
FFFC00
003E00
001F00
001F80
000F80
0007C0
0003E0
0003F0
0001F0
ENDCHAR
STARTCHAR uni20BA
ENCODING 8378
SWIDTH 682 0
DWIDTH 27 0
BBX 25 27 1 0
BITMAP
1F000000
1F001C00
1F01FC00
1F0FFC00
1FFFE000
3FFE0000
FFF00C00
FF007C00
FF07FC00
1F3FF800
1FFF8000
7FF80000
FF800000
FF000F80
FF000F80
1F000F00
1F001F00
1F001F00
1F003F00
1F003E00
1F007E00
1F00FC00
1F07F800
1FFFF000
1FFFE000
1FFF8000
1FFC0000
ENDCHAR
STARTCHAR uni20BC
ENCODING 8380
SWIDTH 742 0
DWIDTH 29 0
BBX 27 27 1 0
BITMAP
001F0000
001F0000
001F0000
007FC000
01FFF000
07FFFC00
0FFFFE00
1FFFFF00
3F9F3F80
3E1F1F80
7E1F0FC0
7C1F07C0
7C1F07C0
F81F03E0
F81F03E0
F81F03E0
F81F03E0
F81F03E0
F81F03E0
F81F03E0
F81F03E0
F81F03E0
F81F03E0
F81F03E0
F81F03E0
F81F03E0
F81F03E0
ENDCHAR
STARTCHAR uni20BD
ENCODING 8381
SWIDTH 673 0
DWIDTH 26 0
BBX 24 27 1 0
BITMAP
1FFFC0
1FFFF0
1FFFFC
1FFFFE
1E00FE
1E003F
1E001F
1E000F
1E000F
1E000F
1E000F
1E001F
1E001F
1E007E
1FFFFE
1FFFFC
1FFFF0
1FFFC0
1E0000
1E0000
1E0000
FFFF80
FFFF80
1E0000
1E0000
1E0000
1E0000
ENDCHAR
STARTCHAR uni2113
ENCODING 8467
SWIDTH 467 0
DWIDTH 18 0
BBX 16 29 1 -1
BITMAP
007C
00FE
01FE
03C7
0387
0387
0787
0707
070E
070E
0F1C
0F1C
0F38
0E78
0E70
0EE0
0FC0
1F80
1F00
1E00
7C00
FC00
FC00
1C06
1E0E
1FFE
1FFC
0FF0
07C0
ENDCHAR
STARTCHAR uni2116
ENCODING 8470
SWIDTH 1199 0
DWIDTH 47 0
BBX 40 28 4 0
BITMAP
00000003F0
F8001E07FC
F8001E0FFE
FC001E1E0E
FE001E1C0F
FF001E1C07
FF001E3C07
FF801E1C07
FFC01E1C0F
F7E01E1E1E
F3E01E0FFC
F1F01E07F8
F1F81E0000
F0FC1E0000
F07E1E0000
F03E1E0FFC
F03F1E0FFC
F01F9E0FFC
F00FDE0000
F00FDE0000
F007FE0000
F003FE0000
F001FE0000
F001FE0000
F000FE0000
F0007E0000
F0003E0000
F0003E0000
ENDCHAR
STARTCHAR trademark
ENCODING 8482
SWIDTH 886 0
DWIDTH 35 0
BBX 33 16 0 11
BITMAP
FFF9E00F80
FFF9E00F80
FFF9F00F80
0701F01F80
0701F81F80
0701F83B80
0701DC3B80
0701DC7380
0701CE7380
0701CEE380
0701C7E380
0701C7C380
0701C3C380
0701C38380
0701C38380
0701C00380
ENDCHAR
STARTCHAR uni2126
ENCODING 8486
SWIDTH 882 0
DWIDTH 34 0
BBX 34 28 0 0
BITMAP
0007F80000
001FFF0000
007FFFC000
01FFFFE000
03FC0FF000
03F001F800
07C000FC00
0F80007C00
0F80003C00
0F00003E00
1F00001E00
1F00001E00
1E00001E00
1E00001E00
1E00001E00
1E00001E00
0F00001E00
0F00001C00
0F00003C00
0780003C00
07C0007800
03C000F000
01F001F000
00F803E000
FFF807FFC0
FFF807FFC0
FFF807FFC0
FFF807FFC0
ENDCHAR
STARTCHAR estimated
ENCODING 8494
SWIDTH 809 0
DWIDTH 32 0
BBX 26 23 3 1
BITMAP
007F8000
03806000
06001800
18000C00
18000600
30000700
70000780
70000780
F0000780
F00007C0
F00007C0
FFFFFFC0
F0000000
F0000000
F0000000
F0000000
70000000
30000000
38000000
18000E00
06001800
03806000
007F8000
ENDCHAR
STARTCHAR oneeighth
ENCODING 8539
SWIDTH 834 0
DWIDTH 33 0
BBX 30 27 1 0
BITMAP
FC000780
FC000F00
FC001E00
1C003E00
1C003C00
1C007800
1C00F000
1C01F000
1C01E000
1C03C000
1C07C000
1C0F8FE0
1C0F1FF0
1C1E3C38
1C3E3838
1C7C3818
00783838
00F01EF0
01F00FE0
01E01FF8
03C0383C
0780701C
0F80701C
0F00781C
1E003E7C
3C003FF8
7C000FE0
ENDCHAR
STARTCHAR threeeighths
ENCODING 8540
SWIDTH 896 0
DWIDTH 35 0
BBX 33 27 1 0
BITMAP
FFE001E000
FFE003C000
03C007C000
0780078000
0F000F0000
1E001E0000
1F803E0000
1FC03C0000
01E0780000
00E0F00000
00E1F00000
00E1E1F800
C0E3C7FE00
FFE7C70F00
FFCF8E0700
3F0F0E0700
001E070E00
003E03FC00
003C03FC00
0078079F00
00F00E0700
01F00E0780
01E01E0780
03C00E0700
07C00F9F00
0F8007FE00
0F0001F800
ENDCHAR
STARTCHAR fiveeighths
ENCODING 8541
SWIDTH 914 0
DWIDTH 36 0
BBX 33 27 1 0
BITMAP
7FF000F000
7FF001E000
7FF003E000
700003C000
7000078000
7F800F0000
7FE01F0000
7BF01E0000
00F03C0000
0070780000
0070F8FC00
4070F3FE00
F0F1E78F00
FFE3C70700
3FC7C70300
0007870300
000F038700
001E01FE00
003E01FE00
003C07DF00
0078070380
00F00E0380
01F00E0380
01E00F0380
03C007CF80
07C003FF00
0F8001FC00
ENDCHAR
STARTCHAR seveneighths
ENCODING 8542
SWIDTH 881 0
DWIDTH 34 0
BBX 32 27 1 0
BITMAP
FFF803E0
FFF803C0
FFF80780
E0700F80
E0F00F00
00E01E00
01E03C00
01C07C00
03C07800
0380F000
0781E000
0703E3F8
0F03C7FC
0E078E1E
1E0F0E0E
1C1F0C0E
001E0E0E
003C07BC
007803F8
00F807FC
00F00E0E
01E01C07
03C01C07
07C01C07
07801FBE
0F000FFE
1E0003F8
ENDCHAR
STARTCHAR partialdiff
ENCODING 8706
SWIDTH 612 0
DWIDTH 24 0
BBX 21 29 1 -1
BITMAP
03F800
1FFE00
7FFF80
3FFFC0
3C0FC0
1003E0
0001F0
0001F0
0000F0
0000F8
01C0F8
07FC78
1FFE78
3FFF78
3E0778
7C03F8
7801F8
7800F8
F800F8
F800F8
F800F0
7800F0
7801F0
7C03E0
3F07E0
3FFFC0
1FFF80
0FFF00
01F800
ENDCHAR
STARTCHAR emptyset
ENCODING 8709
SWIDTH 478 0
DWIDTH 19 0
BBX 18 18 0 4
BITMAP
01F0C0
07FDC0
0FFF80
1F1F00
3C0F80
381F80
383B80
7071C0
70E1C0
71C1C0
7B83C0
3F0380
3E0780
1E0F00
3FFE00
7FFC00
E3F800
400000
ENDCHAR
STARTCHAR uni2206
ENCODING 8710
SWIDTH 680 0
DWIDTH 27 0
BBX 27 27 0 0
BITMAP
001F0000
003F0000
003F8000
007F8000
007FC000
00FFC000
00F3E000
00F3E000
01F1F000
01E1F000
03E0F000
03C0F800
07C07800
07807C00
0F807C00
0F003E00
1F003E00
1F001F00
3E001F00
3E000F80
3C000F80
7C000780
780007C0
FFFFFFC0
FFFFFFE0
FFFFFFE0
FFFFFFE0
ENDCHAR
STARTCHAR product
ENCODING 8719
SWIDTH 750 0
DWIDTH 29 0
BBX 22 37 4 -8
BITMAP
FFFFFC
FFFFFC
FFFFFC
FFFFFC
F0007C
F0007C
F0007C
F0007C
F0007C
F0007C
F0007C
F0007C
F0007C
F0007C
F0007C
F0007C
F0007C
F0007C
F0007C
F0007C
F0007C
F0007C
F0007C
F0007C
F0007C
F0007C
F0007C
F0007C
F0007C
F0007C
F0007C
F0007C
F0007C
F0007C
F0007C
F0007C
F0007C
ENDCHAR
STARTCHAR summation
ENCODING 8721
SWIDTH 611 0
DWIDTH 24 0
BBX 23 34 1 -5
BITMAP
7FFFFC
7FFFFC
7FFFFC
7FFFFC
7C0000
3E0000
1F0000
0F8000
07C000
07C000
03E000
01F000
00F800
007C00
003E00
003E00
001F00
001F00
003E00
003E00
007C00
00F800
01F000
03E000
07C000
07C000
0F8000
1F0000
3E0000
7C0000
FFFFFE
FFFFFE
FFFFFE
FFFFFE
ENDCHAR
STARTCHAR minus
ENCODING 8722
SWIDTH 498 0
DWIDTH 19 0
BBX 17 3 1 11
BITMAP
FFFF80
FFFF80
FFFF80
ENDCHAR
STARTCHAR uni2215
ENCODING 8725
SWIDTH 331 0
DWIDTH 13 0
BBX 16 36 -1 -4
BITMAP
000F
000F
000F
001E
001E
001C
003C
003C
0038
0078
0078
0070
00F0
00F0
00E0
01E0
01E0
01C0
03C0
03C0
0380
0780
0780
0700
0F00
0F00
0E00
1E00
1E00
1C00
3C00
3C00
7800
7800
7800
F000
ENDCHAR
STARTCHAR uni2219
ENCODING 8729
SWIDTH 281 0
DWIDTH 11 0
BBX 7 8 2 6
BITMAP
38
7C
FE
FE
FE
FE
7C
38
ENDCHAR
STARTCHAR radical
ENCODING 8730
SWIDTH 689 0
DWIDTH 27 0
BBX 27 36 0 -6
BITMAP
000003E0
000003C0
000003C0
000007C0
00000780
00000780
00000780
00000F00
00000F00
00000F00
00001F00
00001E00
00001E00
00001E00
FF003C00
FF803C00
FF803C00
FF807800
07C07800
03C07800
03C07800
03E0F000
01E0F000
01E0F000
01F1E000
00F1E000
00F1E000
00FBC000
007BC000
007BC000
007B8000
003F8000
003F8000
003F8000
001F0000
001F0000
ENDCHAR
STARTCHAR infinity
ENCODING 8734
SWIDTH 875 0
DWIDTH 34 0
BBX 32 15 1 4
BITMAP
07F007F0
1FF81FF8
3FFC3FFC
7C3E7C3E
780FF00E
7007E00F
F003C007
F003C007
F003C007
7007E00F
780F701E
7E7E7E3E
3FFC3FFC
1FF81FF8
07E007E0
ENDCHAR
STARTCHAR integral
ENCODING 8747
SWIDTH 342 0
DWIDTH 13 0
BBX 13 38 0 -5
BITMAP
00F8
03F8
03F8
07F8
0780
0700
0700
0700
0700
0700
0700
0700
0700
0700
0700
0700
0700
0700
0700
0780
0780
0780
0780
0780
0780
0780
0780
0380
0380
0380
0380
0380
0780
0780
8F00
FF00
FE00
FC00
ENDCHAR
STARTCHAR approxequal
ENCODING 8776
SWIDTH 498 0
DWIDTH 19 0
BBX 14 14 3 6
BITMAP
3C00
FE1C
FFFC
FFF8
E3F8
E0F0
0000
0000
0000
7C1C
FF3C
FFFC
E7F8
E1F8
ENDCHAR
STARTCHAR notequal
ENCODING 8800
SWIDTH 498 0
DWIDTH 19 0
BBX 17 23 1 1
BITMAP
003C00
003800
003800
007800
007000
007000
FFFF80
FFFF80
FFFF80
01E000
01E000
01C000
03C000
03C000
FFFF80
FFFF80
FFFF80
070000
070000
0F0000
0E0000
0E0000
1E0000
ENDCHAR
STARTCHAR lessequal
ENCODING 8804
SWIDTH 498 0
DWIDTH 19 0
BBX 17 23 1 1
BITMAP
000180
000780
003F80
00FF00
07F800
1FE000
7F0000
FC0000
E00000
FC0000
FF0000
1FE000
07F800
01FE00
003F80
000F80
000380
000000
000000
000000
FFFF80
FFFF80
FFFF80
ENDCHAR
STARTCHAR greaterequal
ENCODING 8805
SWIDTH 498 0
DWIDTH 19 0
BBX 17 24 1 1
BITMAP
800000
E00000
F80000
FF0000
3FC000
07F000
01FE00
007F80
000F80
000380
001F80
007F80
03FC00
0FF000
3FC000
FE0000
F80000
C00000
000000
000000
000000
FFFF80
FFFF80
FFFF80
ENDCHAR
STARTCHAR lozenge
ENCODING 9674
SWIDTH 536 0
DWIDTH 21 0
BBX 18 27 1 -1
BITMAP
004000
00E000
00E000
01F000
03F800
03F800
07BC00
0FBE00
0F1E00
1E0F00
3C0F80
3C0780
7803C0
F803C0
7803C0
3C0780
3E0F00
1E0F00
0F1E00
0FBC00
07BC00
03F800
03F000
01F000
00E000
00C000
004000
ENDCHAR
STARTCHAR fi
ENCODING 64257
SWIDTH 627 0
DWIDTH 24 0
BBX 21 30 1 0
BITMAP
00F8F0
03FDF0
07FDF8
0FFCF0
0F84E0
1F0000
1F0000
1F0000
1F0000
1F00F0
FFF8F0
FFF8F0
FFF8F0
1F00F0
1F00F0
1F00F0
1F00F0
1F00F0
1F00F0
1F00F0
1F00F0
1F00F0
1F00F0
1F00F0
1F00F0
1F00F0
1F00F0
1F00F0
1F00F0
1F00F0
ENDCHAR
STARTCHAR fl
ENCODING 64258
SWIDTH 651 0
DWIDTH 25 0
BBX 21 30 1 0
BITMAP
01F800
03FCF8
07FCF8
0FFCF8
0F80F8
1F00F8
1F00F8
1F00F8
1F00F8
1F00F8
FFF8F8
FFF8F8
FFF8F8
1F00F8
1F00F8
1F00F8
1F00F8
1F00F8
1F00F8
1F00F8
1F00F8
1F00F8
1F00F8
1F00F8
1F00F8
1F00F8
1F00F8
1F00F8
1F00F8
1F00F8
ENDCHAR
STARTCHAR .notdef
ENCODING -1
SWIDTH 587 0
DWIDTH 23 0
BBX 19 27 2 0
BITMAP
FFFFE0
FFFFE0
FFFFE0
E000E0
E000E0
E000E0
E000E0
E000E0
E000E0
E000E0
E000E0
E000E0
E000E0
E000E0
E000E0
E000E0
E000E0
E000E0
E000E0
E000E0
E000E0
E000E0
E000E0
E000E0
FFFFE0
FFFFE0
FFFFE0
ENDCHAR
STARTCHAR A.ss01
ENCODING -1
SWIDTH 766 0
DWIDTH 30 0
BBX 24 28 3 0
BITMAP
00FF00
03FFE0
0FFFF0
1FFFF8
3F83FC
7E007E
7C003E
7C003E
F8001F
F8001F
F8001F
F8001F
F8001F
F8001F
F8001F
F8001F
FFFFFF
FFFFFF
FFFFFF
FFFFFF
F8001F
F8001F
F8001F
F8001F
F8001F
F8001F
F8001F
F8001F
ENDCHAR
STARTCHAR Aacute.ss01
ENCODING -1
SWIDTH 766 0
DWIDTH 30 0
BBX 24 37 3 0
BITMAP
000400
000700
000FC0
001F80
001E00
003C00
000000
000000
000000
00FF00
03FFE0
0FFFF0
1FFFF8
3F83FC
7E007E
7C003E
7C003E
F8001F
F8001F
F8001F
F8001F
F8001F
F8001F
F8001F
F8001F
FFFFFF
FFFFFF
FFFFFF
FFFFFF
F8001F
F8001F
F8001F
F8001F
F8001F
F8001F
F8001F
F8001F
ENDCHAR
STARTCHAR Abreve.ss01
ENCODING -1
SWIDTH 766 0
DWIDTH 30 0
BBX 24 37 3 0
BITMAP
038380
01C380
01E780
01FF80
00FF00
007C00
000000
000000
000000
00FF00
03FFE0
0FFFF0
1FFFF8
3F83FC
7E007E
7C003E
7C003E
F8001F
F8001F
F8001F
F8001F
F8001F
F8001F
F8001F
F8001F
FFFFFF
FFFFFF
FFFFFF
FFFFFF
F8001F
F8001F
F8001F
F8001F
F8001F
F8001F
F8001F
F8001F
ENDCHAR
ENDFONT
